<svg width="861" height="510" viewBox="0 0 861 510" fill="none" xmlns="http://www.w3.org/2000/svg">
<path d="M568.514 9.7561C568.514 4.39024 564.124 0 558.76 0C553.395 0 549.006 4.39024 549.006 9.7561C549.006 15.122 553.395 19.5122 558.76 19.5122C564.124 19.5122 568.514 15.122 568.514 9.7561Z" fill="#FFFFFF"/>
<path d="M606.187 59.3903C612.283 59.3903 617.282 64.3903 617.282 70.4878C617.282 76.5854 612.283 81.5854 606.187 81.5854C600.091 81.5854 595.092 76.5854 595.092 70.4878C595.092 64.3903 600.091 59.3903 606.187 59.3903Z" fill="#FFFFFF"/>
<path d="M653.614 119.024C660.441 119.024 666.05 124.634 666.05 131.463C666.05 138.293 660.441 143.902 653.614 143.902C646.786 143.902 641.178 138.293 641.178 131.463C641.178 124.634 646.786 119.024 653.614 119.024Z" fill="#FFFFFF"/>
<path d="M701.041 178.415C708.6 178.415 714.818 184.634 714.818 192.195C714.818 199.756 708.6 205.976 701.041 205.976C693.482 205.976 687.264 199.756 687.264 192.195C687.264 184.634 693.482 178.415 701.041 178.415" fill="#FFFFFF"/>
<path d="M748.346 238.415C756.758 238.415 763.464 245.244 763.464 253.537C763.464 261.829 756.636 268.659 748.346 268.659C740.055 268.659 733.228 261.829 733.228 253.537C733.228 245.244 740.055 238.415 748.346 238.415Z" fill="#FFFFFF"/>
<path d="M760.294 498.171C760.294 504.756 754.929 510 748.468 510C742.006 510 736.641 504.634 736.641 498.171C736.641 491.707 742.006 486.219 748.468 486.219C754.929 486.219 760.294 491.585 760.294 498.171Z" fill="#FFFFFF"/>
<path d="M795.773 450C788.214 450 781.996 443.78 781.996 436.219C781.996 428.658 788.214 422.439 795.773 422.439C803.332 422.439 809.55 428.658 809.55 436.219C809.55 443.78 803.332 450 795.773 450Z" fill="#FFFFFF"/>
<path d="M83.6373 181.342L66.8123 133.049L49.9873 181.342H83.5154H83.6373ZM134.722 233.049H100.462L90.9525 205.976H42.916L33.4062 233.049H0.60968L51.2065 98.2927H84.0031L134.722 233.049Z" fill="#FFFFFF"/>
<path d="M219.09 223.537C218.115 224.268 207.996 235 182.393 235C156.789 235 131.674 217.073 131.674 185.122C131.674 153.171 156.424 135 182.758 135C207.264 135 218.481 145.122 218.481 145.122L211.653 168.659C208.971 166.585 200.315 160.122 186.904 160.122C173.492 160.122 163.129 169.268 163.129 184.512C163.129 199.756 172.639 209.268 187.269 209.268C201.9 209.268 211.653 199.878 211.653 199.878L219.09 223.415V223.537Z" fill="#FFFFFF"/>
<path d="M310.043 223.537C309.068 224.268 298.948 235 273.345 235C247.742 235 222.626 217.073 222.626 185.122C222.626 153.171 247.376 135 273.711 135C298.217 135 309.433 145.122 309.433 145.122L302.606 168.659C299.924 166.585 291.267 160.122 277.856 160.122C264.445 160.122 254.082 169.268 254.082 184.512C254.082 199.756 263.591 209.268 278.222 209.268C292.852 209.268 302.606 199.878 302.606 199.878L310.043 223.415V223.537Z" fill="#FFFFFF"/>
<path d="M385.755 174.634C385.511 165.854 379.172 155.366 366.126 155.366C353.081 155.366 346.619 165.488 346.253 174.634H385.755ZM414.407 192.317H346.009C347.35 206.22 357.836 212.439 370.515 212.439C383.195 212.439 393.924 206.951 399.288 203.293L411.602 219.512C408.432 221.829 395.875 235.122 366.004 235.122C336.134 235.122 314.798 216.829 314.798 185C314.798 153.171 338.206 135.122 366.614 135.122C395.021 135.122 414.772 154.024 414.772 182.073C414.772 186.707 414.407 192.439 414.407 192.439" fill="#FFFFFF"/>
<path d="M489.266 226.707C482.194 232.195 472.684 235.122 459.883 235.122C445.496 235.122 430.256 230.61 419.283 220.244L430.988 201.707C438.791 208.293 451.714 213.415 459.395 213.415C467.076 213.415 472.684 211.463 472.684 205.244C472.684 199.024 458.664 195.854 455.128 194.756C451.47 193.78 445.984 192.195 441.473 190.244C436.962 188.293 425.135 182.317 425.135 165.122C425.135 146.463 441.473 134.878 461.59 134.878C481.706 134.878 492.923 142.317 498.41 146.829L488.29 165.122C482.804 160.854 471.953 155.732 464.15 155.732C456.347 155.732 452.689 157.683 452.689 162.805C452.689 167.927 460.127 170.244 466.71 172.195C473.294 174.146 476.22 175.122 480.365 176.707C484.633 178.293 489.509 180.732 492.801 183.902C495.971 187.073 500.604 193.293 500.604 203.415C500.604 213.537 496.337 221.098 489.266 226.829" fill="#FFFFFF"/>
<path d="M574.244 226.707C567.172 232.195 557.663 235.122 544.861 235.122C530.474 235.122 515.234 230.61 504.262 220.244L515.966 201.707C523.769 208.293 536.692 213.415 544.373 213.415C552.054 213.415 557.663 211.463 557.663 205.244C557.663 199.024 543.642 195.854 540.106 194.756C536.448 193.78 530.962 192.195 526.451 190.244C521.94 188.293 510.114 182.317 510.114 165.122C510.114 146.463 526.451 134.878 546.568 134.878C566.685 134.878 577.901 142.317 583.388 146.829L573.268 165.122C567.782 160.854 556.931 155.732 549.128 155.732C541.325 155.732 537.668 157.683 537.668 162.805C537.668 167.927 545.105 170.244 551.689 172.195C558.272 174.146 561.198 175.122 565.344 176.707C569.611 178.293 574.488 180.732 577.779 183.902C580.949 187.073 585.582 193.293 585.582 203.415C585.582 213.537 581.315 221.098 574.244 226.829" fill="#FFFFFF"/>
<path d="M119.116 376.951C112.288 384.024 98.0238 395.244 70.5918 395.244C31.0896 395.244 0 369.146 0 325.854C0 282.561 31.3335 256.463 70.5918 256.463C98.2676 256.463 113.264 267.927 116.799 271.707L107.046 297.805C104.486 294.512 90.099 283.78 72.4206 283.78C49.6215 283.78 32.065 299.024 32.065 325.244C32.065 351.463 50.353 366.585 72.4206 366.585C89.1236 366.585 101.194 360 108.631 352.317L119.116 376.829V376.951Z" fill="#FFFFFF"/>
<path d="M187.757 350.732L172.395 351.707C162.885 352.073 157.155 356.22 157.155 363.415C157.155 370.61 163.251 375.366 171.785 375.366C180.32 375.366 185.806 369.878 187.757 366.585V350.854V350.732ZM218.725 393.049H188.854L188.245 382.927C184.099 386.951 176.297 395.244 160.813 395.244C143.866 395.244 125.944 386.098 125.944 364.634C125.944 343.171 145.573 335.976 163.373 335.244L187.513 334.268V332.073C187.513 321.951 180.32 316.707 167.884 316.707C155.448 316.707 143.378 322.195 138.501 325.244L130.333 305C138.501 300.854 153.497 295.244 171.42 295.244C189.342 295.244 199.705 299.39 207.264 306.341C214.701 313.415 218.725 322.683 218.725 338.902V393.049V393.049Z" fill="#FFFFFF"/>
<path d="M328.453 392.927H297.241V342.805C297.241 330.122 295.291 320.61 282.367 320.61C269.444 320.61 265.176 331.463 265.176 345.366V392.927H233.965V296.829H265.176L264.932 310.61H265.298C270.541 302.073 279.319 295 293.218 295C321.138 295 328.331 312.927 328.331 336.098V392.805L328.453 392.927Z" fill="#FFFFFF"/>
<path d="M396.972 319.634C383.561 319.634 374.417 329.756 374.417 344.634C374.417 359.512 383.561 369.634 396.972 369.634C410.383 369.634 419.405 359.512 419.405 344.634C419.405 329.756 410.383 319.634 396.972 319.634ZM405.75 395.122C392.705 395.122 381.244 390.488 374.051 380.366H373.807L374.051 393.049H344.424V258.537H375.636V290.854C375.636 299.634 375.27 308.537 375.27 308.537H375.88C380.025 302.683 389.657 295.122 406.116 295.122C433.792 295.122 451.348 316.707 451.348 345C451.348 373.293 433.792 395.122 405.994 395.122" fill="#FFFFFF"/>
<path d="M529.743 334.634C529.499 325.854 523.159 315.366 510.114 315.366C497.068 315.366 490.607 325.488 490.241 334.634H529.743V334.634ZM558.394 352.317H489.997C491.338 366.22 501.823 372.439 514.503 372.439C527.183 372.439 537.912 366.951 543.276 363.293L555.59 379.512C552.42 381.829 539.862 395.122 509.992 395.122C480.122 395.122 458.786 376.829 458.786 345C458.786 313.171 482.194 295.122 510.602 295.122C539.009 295.122 558.76 314.024 558.76 342.073C558.76 346.707 558.394 352.439 558.394 352.439" fill="#FFFFFF"/>
<path d="M635.448 325.488H634.107C632.4 324.512 628.254 323.171 622.768 323.171C615.697 323.171 610.698 327.073 608.381 330.244C606.065 333.415 603.505 339.634 603.505 350.366V393.049H572.293V296.951H603.505L603.261 310.61H603.627C609.113 300.122 617.038 295.244 627.401 295.244C633.863 295.244 637.155 296.951 637.155 296.951L635.448 325.61V325.488Z" fill="#FFFFFF"/>
<path d="M710.794 325.488H709.453C707.746 324.512 703.601 323.171 698.115 323.171C691.043 323.171 686.045 327.073 683.728 330.244C681.412 333.415 678.851 339.634 678.851 350.366V393.049H647.64V296.951H678.851L678.607 310.61H678.973C684.46 300.122 692.384 295.244 702.748 295.244C709.209 295.244 712.501 296.951 712.501 296.951L710.794 325.61V325.488Z" fill="#FFFFFF"/>
<path d="M773.339 350.732L757.977 351.707C748.468 352.073 742.737 356.22 742.737 363.415C742.737 370.61 748.833 375.366 757.368 375.366C765.902 375.366 771.389 369.878 773.339 366.585V350.854V350.732ZM804.307 393.049H774.437L773.827 382.927C769.682 386.951 761.879 395.244 746.395 395.244C729.448 395.244 711.526 386.098 711.526 364.634C711.526 343.171 731.155 335.976 748.955 335.244L773.096 334.268V332.073C773.096 321.951 765.902 316.707 753.466 316.707C741.031 316.707 728.96 322.195 724.084 325.244L715.915 305C724.084 300.854 739.08 295.244 757.002 295.244C774.924 295.244 785.288 299.39 792.847 306.341C800.284 313.415 804.307 322.683 804.307 338.902V393.049Z" fill="#FFFFFF"/>
<path d="M843.2 393.902C853.075 393.902 861 385.976 861 376.098C861 366.22 852.953 358.293 843.2 358.293C833.446 358.293 825.399 366.22 825.399 376.098C825.399 385.976 833.446 393.902 843.2 393.902Z" fill="#FFFFFF"/>
</svg>
