<svg width="1000" height="510" viewBox="0 0 1000 510" fill="none" xmlns="http://www.w3.org/2000/svg">
<path d="M292.211 178.177C292.211 178.177 292.211 177.98 292.211 177.861C292.092 175.889 290.594 174.036 289.213 173.365C288.069 172.813 285.742 173.05 283.494 173.681C284.047 174.351 284.52 175.022 284.796 175.534L285.111 176.087L285.585 177.073C285.9 177.861 286.334 178.966 287.241 179.833H291.816C292.092 179.321 292.211 178.768 292.211 178.137V178.177Z" fill="white"/>
<path d="M284.126 177.625L283.81 176.954L283.416 176.323C283.021 175.574 282.43 174.549 281.365 173.72L280.931 173.444C279.629 172.774 273.398 171.985 269.296 173.326C270.046 174.075 270.637 174.943 271.032 175.574L271.347 176.166L271.82 177.152C272.136 177.98 272.57 179.045 273.477 179.952H285.269C284.717 179.124 284.323 178.295 284.126 177.704V177.625Z" fill="white"/>
<path d="M270.44 177.625L270.164 176.915L269.769 176.244C269.296 175.377 268.626 174.194 267.285 173.365C265.983 172.695 259.752 171.906 255.65 173.247C256.399 174.036 257.03 174.864 257.385 175.535L257.701 176.087L258.174 177.073C258.489 177.861 258.923 178.966 259.83 179.833H271.623C271.071 179.005 270.676 178.177 270.479 177.585L270.44 177.625Z" fill="white"/>
<path d="M256.754 177.625L256.438 176.954L256.044 176.284C255.571 175.416 254.9 174.233 253.559 173.405C252.218 172.734 246.026 171.946 241.924 173.286C242.713 174.075 243.265 174.904 243.66 175.574L244.015 176.126L244.488 177.112C244.764 177.901 245.237 179.005 246.145 179.873H257.937C257.346 179.045 256.991 178.216 256.793 177.625H256.754Z" fill="white"/>
<path d="M243.029 177.625L242.714 176.954L242.319 176.284C241.846 175.416 241.175 174.233 239.834 173.405C238.493 172.695 232.144 171.946 228.042 173.326C228.752 174.036 229.304 174.746 229.659 175.337L229.974 175.85L230.448 176.797C230.842 177.704 231.473 179.005 232.932 179.912H244.133C243.581 179.084 243.187 178.256 242.99 177.664L243.029 177.625Z" fill="white"/>
<path d="M229.146 177.349L228.83 176.718L228.436 176.126C227.963 175.337 227.292 174.312 226.188 173.641L225.794 173.365C224.177 172.655 221.573 173.168 219.917 174.509C219.404 174.943 219.247 175.653 219.247 176.205V176.363C219.247 177.585 219.759 178.887 220.509 179.912H230.724C229.895 179.005 229.422 178.059 229.146 177.388V177.349Z" fill="white"/>
<path d="M282.154 94.294C273.99 84.5136 263.853 81.2403 257.149 80.5305L256.163 78.2825L258.766 79.5051V75.6008L256.163 76.7839L257.306 74.1811H253.402L254.664 76.8234L251.982 75.6008V79.5051L254.664 78.2431L253.638 80.4121C246.934 80.6882 236.758 84.4347 228.555 94.294C228.16 94.7672 227.766 96.0292 228.397 96.6997C229.028 97.4095 229.422 97.5673 230.053 98.1983C230.684 98.8292 232.578 102.812 232.972 103.917C233.366 105.021 233.445 106.598 233.445 106.598C233.445 106.598 233.209 108.61 233.997 109.398C234.628 110.029 235.891 109.95 236.088 110.345C236.324 110.739 236.245 111.291 237.981 110.897C239.716 110.503 246.697 107.781 255.334 107.821C263.972 107.821 270.992 110.463 272.727 110.897C274.463 111.291 274.384 110.739 274.621 110.345C274.857 109.95 276.08 110.029 276.75 109.398C277.539 108.61 277.302 106.598 277.302 106.598C277.302 106.598 277.381 105.021 277.776 103.917C278.17 102.812 280.063 98.8292 280.694 98.1983C281.325 97.5673 281.72 97.4095 282.311 96.6997C282.942 95.9898 282.548 94.7278 282.154 94.294V94.294ZM252.771 100.683C251.666 101.195 250.365 101.472 249.497 101.55C246.5 101.826 245.987 100.998 245.711 100.564C244.922 99.2631 246.421 96.818 248.393 97.2518C248.393 97.2518 247.801 93.8602 244.449 96.1475C244.449 96.1475 244.37 93.1109 241.925 92.5588C240.308 94.4912 242.083 96.8968 242.083 96.8968C237.981 96.8968 239.598 100.21 239.598 100.21C240.899 98.6321 243.66 99.5786 243.581 101.353C243.542 102.379 240.584 103.443 238.296 102.576C236.009 101.708 234.155 97.1335 234.668 96.3053C238.691 89.9954 247.762 87.1164 249.024 86.6826C250.286 86.2094 251.075 86.6826 251.312 87.3136C251.509 87.8657 252.771 89.877 253.678 91.9278H252.14L254.191 95.832L249.773 94.0574V99.7757L254.191 97.9222L252.731 100.722L252.771 100.683ZM272.412 102.615C270.164 103.483 267.166 102.418 267.127 101.393C267.048 99.618 269.809 98.7109 271.11 100.249C271.11 100.249 272.727 96.9757 268.626 96.9363C268.626 96.9363 270.4 94.5306 268.783 92.5982C266.338 93.1503 266.259 96.187 266.259 96.187C262.907 93.8996 262.315 97.2912 262.315 97.2912C264.287 96.8574 265.786 99.3025 264.997 100.604C264.761 100.998 264.248 101.866 261.25 101.59C260.383 101.511 259.121 101.274 258.016 100.722L256.636 98.0011L260.935 99.7757V94.0574L256.636 95.7532L258.568 91.9672H257.03C257.977 89.9165 259.2 87.9052 259.397 87.3531C259.633 86.7221 260.422 86.2488 261.684 86.7221C262.907 87.1953 272.017 90.0348 276.04 96.3447C276.593 97.2123 274.699 101.748 272.412 102.615V102.615Z" fill="white"/>
<path d="M255.807 111.015H217.787V114.801C217.787 114.801 221.534 114.801 224.808 116.536C227.45 117.996 228.594 120.914 228.949 121.979V165.044H226.701L231.197 172.813L235.693 165.044H233.484V161.298H245.237V165.044H242.95L247.446 172.813L251.942 165.044H249.734V161.298H261.487V165.044H259.239L263.735 172.813L268.231 165.044H266.022V161.298H277.736V165.044H275.527L279.984 172.813L284.48 165.044H282.272V121.9C282.627 120.796 283.77 117.956 286.373 116.536C289.647 114.762 293.394 114.801 293.394 114.801V111.015H255.886H255.807ZM277.657 133.652H265.943V116.142H277.657V133.652ZM255.452 116.142H261.447V133.652H249.694V116.142H255.452ZM233.445 116.142H245.198V133.652H233.445V116.142ZM233.445 138.779H245.198V156.171H233.445V138.779ZM249.694 138.779H261.447V156.171H249.694V138.779ZM265.943 138.779H277.657V156.171H265.943V138.779Z" fill="white"/>
<path d="M218.695 116.142C218.695 118.509 220.627 120.481 223.033 120.481C225.439 120.481 227.332 118.509 227.332 116.142C227.332 113.776 225.399 111.843 223.033 111.843C220.667 111.843 218.695 113.776 218.695 116.142ZM220.627 116.142C220.627 114.801 221.692 113.737 223.033 113.737C224.374 113.737 225.439 114.801 225.439 116.142C225.439 117.483 224.374 118.548 223.033 118.548C221.692 118.548 220.627 117.483 220.627 116.142Z" fill="white"/>
<path d="M219.01 121.072L218.063 128.092L224.137 128.92L225.202 120.953L219.128 120.125L219.01 121.072V121.072ZM220.785 122.294C221.574 122.413 222.244 122.492 223.033 122.61C222.875 123.714 222.599 125.647 222.481 126.712C221.652 126.633 221.021 126.514 220.233 126.436C220.351 125.331 220.627 123.399 220.785 122.294V122.294Z" fill="white"/>
<path d="M217.906 130.221L217.669 137.084L223.782 137.281L224.019 129.472L217.906 129.275V130.261V130.221ZM219.799 131.247C220.588 131.247 221.258 131.286 222.047 131.325C222.047 132.43 221.968 134.205 221.929 135.269C221.14 135.269 220.469 135.269 219.641 135.191C219.641 134.126 219.72 132.311 219.759 131.247H219.799Z" fill="white"/>
<path d="M222.599 137.832H217.432V145.878H223.625V137.793H222.599V137.832ZM221.653 139.765C221.653 140.869 221.653 142.841 221.653 143.946H219.404C219.404 142.841 219.404 140.909 219.404 139.804C220.233 139.804 220.864 139.804 221.692 139.804L221.653 139.765Z" fill="white"/>
<path d="M217.353 147.1L216.604 154.121L222.678 154.752L223.506 146.785L217.432 146.154L217.353 147.1ZM219.168 148.283C219.996 148.362 220.627 148.402 221.455 148.52C221.337 149.624 221.14 151.557 221.021 152.661C220.233 152.582 219.562 152.543 218.773 152.425C218.892 151.32 219.089 149.388 219.207 148.283H219.168Z" fill="white"/>
<path d="M216.249 155.54L214.593 162.442L220.588 163.862L222.441 156.053L216.486 154.633L216.249 155.579V155.54ZM217.906 156.92C218.695 157.117 219.326 157.275 220.114 157.433C219.878 158.537 219.405 160.43 219.128 161.495C218.379 161.298 217.709 161.18 216.92 160.983C217.156 159.918 217.63 158.025 217.906 156.92Z" fill="white"/>
<path d="M214.08 163.546L210.767 169.777L216.21 172.617L219.957 165.518L214.553 162.638L214.08 163.506V163.546ZM215.342 165.32C216.052 165.675 216.644 165.991 217.354 166.385C216.841 167.371 215.934 169.067 215.421 170.093C214.711 169.738 214.119 169.422 213.41 169.028C213.922 168.042 214.829 166.306 215.342 165.32Z" fill="white"/>
<path d="M206.823 175.022C206.823 177.388 208.756 179.36 211.162 179.36C213.567 179.36 215.46 177.388 215.46 175.022C215.46 172.656 213.528 170.684 211.162 170.684C208.795 170.684 206.823 172.616 206.823 175.022ZM208.756 175.022C208.756 173.681 209.821 172.616 211.122 172.616C212.424 172.616 213.528 173.681 213.528 175.022C213.528 176.363 212.463 177.428 211.122 177.428C209.781 177.428 208.756 176.363 208.756 175.022Z" fill="white"/>
<path d="M288.385 111.804C286.019 111.804 284.086 113.737 284.086 116.103C284.086 118.469 286.019 120.441 288.385 120.441C290.752 120.441 292.724 118.469 292.724 116.103C292.724 113.737 290.791 111.804 288.385 111.804ZM288.385 118.509C287.044 118.509 285.979 117.444 285.979 116.103C285.979 114.762 287.044 113.697 288.385 113.697C289.726 113.697 290.791 114.762 290.791 116.103C290.791 117.444 289.687 118.509 288.385 118.509Z" fill="white"/>
<path d="M292.329 120.125L286.216 120.953L287.32 128.92L293.394 128.092L292.447 121.072L292.329 120.125V120.125ZM291.225 126.436C290.436 126.514 289.765 126.633 288.977 126.712C288.819 125.607 288.543 123.675 288.424 122.61C289.213 122.492 289.884 122.413 290.673 122.294C290.83 123.399 291.067 125.331 291.225 126.436Z" fill="white"/>
<path d="M293.512 129.235L287.399 129.432L287.636 137.241L293.749 137.044L293.552 130.182V129.196L293.512 129.235ZM291.777 135.191C290.949 135.23 290.278 135.23 289.489 135.269C289.489 134.165 289.41 132.39 289.371 131.326C290.16 131.326 290.83 131.286 291.619 131.247C291.619 132.351 291.698 134.126 291.777 135.191Z" fill="white"/>
<path d="M287.833 137.833V145.878H293.906V137.911H287.833V137.833ZM292.053 139.765C292.053 140.869 292.053 142.802 292.053 143.906H289.805C289.805 142.802 289.805 140.83 289.805 139.726C290.594 139.726 291.264 139.726 292.092 139.726L292.053 139.765Z" fill="white"/>
<path d="M293.985 146.154L287.912 146.785L288.74 154.752L294.853 154.121L294.143 147.1L294.025 146.154H293.985ZM292.723 152.425C291.895 152.504 291.264 152.582 290.475 152.661C290.357 151.557 290.16 149.624 290.002 148.52C290.83 148.441 291.461 148.362 292.289 148.283C292.368 149.388 292.605 151.32 292.723 152.425Z" fill="white"/>
<path d="M294.972 154.593L289.016 156.013L290.87 163.822L296.825 162.402L295.208 155.5L294.972 154.554V154.593ZM294.498 160.983C293.709 161.18 293.078 161.298 292.329 161.495C292.053 160.43 291.619 158.537 291.343 157.433C292.132 157.275 292.802 157.117 293.552 156.92C293.788 158.025 294.262 159.918 294.498 160.983Z" fill="white"/>
<path d="M296.904 162.678L291.461 165.557L295.208 172.656L300.651 169.816L297.338 163.585L296.904 162.717V162.678ZM298.008 168.988C297.299 169.343 296.707 169.659 295.997 170.053C295.484 169.067 294.577 167.371 294.064 166.346C294.774 165.991 295.366 165.675 296.076 165.281C296.589 166.267 297.496 167.963 298.008 168.988Z" fill="white"/>
<path d="M300.296 170.684C297.89 170.684 295.957 172.616 295.957 175.022C295.957 177.428 297.89 179.36 300.296 179.36C302.702 179.36 304.595 177.388 304.595 175.022C304.595 172.656 302.662 170.684 300.296 170.684ZM300.296 177.428C298.955 177.428 297.89 176.363 297.89 175.022C297.89 173.681 298.955 172.616 300.296 172.616C301.637 172.616 302.702 173.681 302.702 175.022C302.702 176.363 301.637 177.428 300.296 177.428Z" fill="white"/>
<path d="M139.696 182.712L145.534 185.394L149.793 187.129L157.326 190.244C156.695 188.194 156.932 186.656 156.932 186.656C156.932 186.656 159.219 188.075 161.428 185.591C163.597 183.106 161.586 179.084 157.997 175.653C154.447 172.261 150.227 171.788 145.1 173.641C141.708 174.903 139.144 177.979 137.37 181.45C138.079 181.884 138.829 182.317 139.696 182.751V182.712Z" fill="white"/>
<path d="M93.5515 271.406C86.965 278.268 84.0859 281.068 82.7055 283.158C82.7055 283.158 80.4969 284.814 81.6012 285.761C82.6661 286.747 90.3174 288.167 97.6138 287.575C93.9065 292.11 89.1342 299.879 88.1088 305.558C86.9256 312.065 90.4752 318.415 93.6304 319.401C96.7856 320.387 99.9013 319.637 102.268 316.798C105.423 313.051 106.724 303.35 106.724 303.35C106.724 303.35 111.773 303.468 116.072 303.35C111.931 281.817 104.752 262.73 101.124 254.961C100.453 260.6 98.5209 266.121 93.5515 271.327V271.406ZM200.789 242.104C198.935 241.946 196.924 241.631 196.293 242.262C196.293 242.262 195.819 237.924 196.766 236.189C197.673 234.493 197.515 233.231 198.935 233.073C198.935 233.073 195.03 231.062 193.65 233.073C192.27 235.124 191.481 237.411 191.481 238.831C191.481 238.831 190.219 240.527 189.588 240.527C189.588 240.527 189.903 243.958 190.061 247.034C190.219 250.149 189.588 254.014 188.365 258.352C187.143 262.69 183.553 268.606 182.489 269.828C181.7 270.735 180.359 271.918 179.609 271.13C179.373 270.696 179.176 270.183 179.057 269.513C178.9 268.645 178.939 268.172 179.057 267.896C179.215 265.53 180.043 262.848 180.635 258.865C182.055 255.986 183.553 252.713 184.579 249.913C186.551 244.352 190.337 238.2 188.365 224.555C186.354 210.909 173.496 201.563 169.947 198.802C167.935 197.225 164.543 195.568 159.061 193.242C154.802 191.427 149.28 189.219 142.22 186.34C139.972 185.433 137.961 184.487 136.226 183.579C125.616 178.019 123.881 172.774 123.21 169.777C122.461 166.385 125.458 158.379 136.541 157.867C147.624 157.354 154.96 164.571 157.523 167.607C160.087 170.684 162.216 175.258 164.938 178.729C167.699 182.199 173.891 183.501 173.891 183.501C176.454 187.878 181.424 191.861 182.765 192.768C183.514 193.281 184.382 194.346 185.171 195.253L185.762 196.002C185.762 196.002 185.644 195.805 185.565 195.726C186.038 196.239 186.433 196.712 186.63 196.87C187.261 197.264 187.852 195.529 187.852 193.912C187.852 192.295 187.419 190.757 186.748 189.653C186.038 188.509 184.5 183.816 183.987 182.515C183.553 181.371 183.08 179.32 182.922 178.729C182.922 178.61 182.922 178.532 182.922 178.532C182.922 178.532 184.303 173.286 178.821 166.109C174.956 161.021 168.606 159.168 166.121 157.867C163.597 156.526 156.537 151.951 152.278 150.216C147.979 148.481 140.367 145.957 133.544 146.43C126.721 146.942 116.229 149.9 111.773 162.126C107.632 173.326 112.798 181.963 115.086 187.247C119.819 184.92 124.236 185.946 127.273 186.656C131.493 187.642 136.58 189.85 139.578 192.058C143.798 195.135 144.745 200.025 144.745 203.811C144.745 206.216 144.35 208.149 144.192 208.938C143.601 211.501 141.708 213.078 140.209 214.025C140.643 214.616 141.116 215.247 141.589 216.155C142.023 217.022 142.26 217.811 142.378 218.521C145.494 217.377 150.227 217.062 155.906 216.864L159.061 216.746C159.89 216.746 160.639 217.338 160.639 218.205C160.639 219.033 160.047 219.743 159.219 219.783L155.985 219.901C151.252 220.059 144.074 220.335 141.905 222.07L138.947 224.436L139.499 220.65C139.499 220.65 139.696 219.191 138.868 217.535C137.921 215.681 136.896 214.735 136.896 214.735L135.082 213.118L137.369 212.211C137.369 212.211 140.682 210.87 141.274 208.307C141.51 207.321 143.325 198.526 137.843 194.543C135.161 192.571 130.428 190.52 126.602 189.653C122.461 188.667 116.782 187.365 110.984 194.661C101.006 207.321 95.8785 218.047 95.3263 227.512C95.2869 228.301 95.2474 229.05 95.2474 229.8C95.2474 238.476 98.3632 243.8 101.124 248.532L103.096 252.042C105.738 257.208 114.336 277.637 119.227 303.35L119.385 304.06C119.74 306.032 120.134 308.003 120.45 309.108C125.143 304.454 149.99 276.966 152.751 265.332L152.869 264.859L153.264 264.544C153.737 264.149 162.966 256.223 162.966 242.538C162.966 240.053 162.65 237.411 161.94 234.572C161.94 234.453 161.901 234.335 161.901 234.217C161.901 233.546 162.374 232.915 163.045 232.757C163.833 232.56 164.662 233.034 164.859 233.862C165.608 236.898 165.963 239.777 165.963 242.459C165.963 256.42 157.129 265.135 155.551 266.594C153.264 275.073 141.865 289.586 132.913 299.958C133.504 302.798 133.307 304.375 133.307 305.992C133.307 307.767 134.254 310.843 134.963 312.894C135.121 313.327 135.24 313.722 135.358 314.077C135.949 315.93 134.727 327.091 134.096 330.206C133.465 333.322 127.785 338.054 125.103 339.987C123.408 341.249 123.881 342.471 124.157 343.102C124.157 343.102 126.326 341.091 128.969 341.249C131.611 341.407 134.214 340.46 137.961 342.669C141.668 344.838 143.759 345.902 144.468 348.545C144.942 350.24 145.257 351.502 145.257 351.502C145.257 351.502 147.9 348.387 148.058 346.376C148.058 346.376 153.658 342.787 156.774 342.511C159.89 342.195 163.597 343.26 163.912 344.995C163.912 344.995 164.307 341.643 162.216 339.553C161.27 338.646 159.732 337.384 159.732 337.384C159.732 337.384 161.428 336.004 162.532 337.108C162.532 337.108 162.216 333.835 160.678 333.677C159.14 333.519 152.317 333.519 149.793 333.519C147.269 333.519 142.496 332.612 141.432 329.654C140.367 326.697 141.116 315.536 142.536 314.274C143.049 313.801 143.561 313.643 143.995 313.603C144.784 313.564 145.376 313.958 145.494 314.274C145.494 314.274 146.401 311.001 147.663 309.778C148.57 308.871 154.131 302.364 157.286 294.437C163.124 294.516 168.172 293.609 171.998 291.124C177.283 287.693 182.252 284.617 184.737 285.367C184.737 285.367 185.525 281.186 183.001 280.082C183.001 280.082 187.497 273.417 188.917 270.144C190.298 266.871 192.506 266.871 192.349 268.566C192.191 270.302 190.81 277.085 199.487 276.335C199.487 276.335 197.949 274.916 197.791 273.062C197.634 271.209 195.78 256.301 197.042 253.186C198.265 250.07 200.158 245.298 201.38 244.983C202.642 244.667 203.392 244.825 204.023 245.456C204.023 245.456 202.918 242.341 201.065 242.183L200.789 242.104Z" fill="white"/>
<path d="M274.857 130.734C274.699 130.339 274.423 129.984 274.226 129.59C274.029 129.196 273.477 129.038 273.24 128.683C273.003 128.328 273.161 127.658 272.885 127.303C272.609 126.948 272.175 126.711 271.899 126.396C271.584 126.08 271.071 126.001 270.716 125.686C270.361 125.41 269.967 125.173 269.612 124.897C269.217 124.621 268.902 124.306 268.507 124.069C268.192 123.911 267.955 123.714 267.64 123.517V132.035H274.936C274.857 131.641 275.054 131.128 274.936 130.734H274.857ZM267.6 145.68C267.955 145.483 268.31 145.326 268.665 145.128C269.099 144.892 269.533 144.695 269.927 144.418C270.322 144.103 270.913 144.064 271.229 143.748C271.584 143.433 271.663 142.802 271.978 142.447C272.294 142.131 272.609 141.776 272.885 141.421C273.161 141.066 273.792 140.909 274.029 140.514H267.64V145.72L267.6 145.68ZM257.306 120.717C256.794 120.717 256.32 120.52 255.768 120.52C255.374 120.52 255.019 120.677 254.664 120.677C254.27 120.677 253.796 120.362 253.402 120.401C252.968 120.441 252.574 120.796 252.179 120.835C251.903 120.835 251.627 120.835 251.351 120.835V132.035H259.791V120.598C259.515 120.401 259.2 120.204 258.884 120.165C258.371 120.086 257.819 120.717 257.267 120.677L257.306 120.717ZM251.351 148.599H251.39C251.982 151.478 252.061 152.897 251.548 154.554H257.03C257.03 152.858 257.661 150.807 259.633 148.441C259.633 148.441 259.712 148.441 259.752 148.441V140.554H251.312V148.638L251.351 148.599ZM237.744 140.751C237.981 141.106 238.572 141.263 238.849 141.618C239.125 141.934 239.44 142.249 239.795 142.565C240.111 142.88 240.347 143.275 240.702 143.551C241.057 143.827 241.452 144.064 241.846 144.379C242.201 144.655 242.359 145.286 242.793 145.523C242.99 145.641 243.266 145.68 243.542 145.68V140.475H237.744C237.744 140.475 237.744 140.672 237.744 140.711V140.751ZM241.649 124.739C241.254 125.015 240.899 125.331 240.544 125.646C240.189 125.962 239.677 126.12 239.322 126.435C239.006 126.751 238.848 127.263 238.533 127.618C238.257 127.973 238.217 128.525 237.981 128.88C237.744 129.314 237.429 129.708 237.231 130.142C236.995 130.615 237.034 131.128 236.877 131.601C236.877 131.759 236.798 131.877 236.758 132.035H243.542V123.635C243.384 123.832 243.226 124.03 243.029 124.187C242.635 124.424 242.043 124.463 241.649 124.739V124.739Z" fill="white"/>
<path d="M119.03 365.345H125.222V366.962H120.962V369.013H124.63V370.472H120.962V374.101H119.03V365.345Z" fill="white"/>
<path d="M130.231 365.148C132.952 365.148 134.53 367.159 134.53 369.762C134.53 372.365 132.952 374.298 130.231 374.298C127.509 374.298 125.932 372.286 125.932 369.762C125.932 367.238 127.509 365.148 130.231 365.148ZM130.231 372.681C131.966 372.681 132.597 371.221 132.597 369.762C132.597 368.303 131.966 366.765 130.231 366.765C128.495 366.765 127.864 368.263 127.864 369.762C127.864 371.261 128.495 372.681 130.231 372.681Z" fill="white"/>
<path d="M135.871 365.345H140.603C142.181 365.345 143.167 366.449 143.167 367.751C143.167 368.776 142.773 369.565 141.787 369.92C142.733 370.196 142.97 371.103 143.049 371.971C143.088 372.523 143.049 373.548 143.404 374.061H141.471C141.235 373.509 141.274 372.641 141.156 371.971C140.998 371.064 140.682 370.63 139.696 370.63H137.764V374.061H135.831V365.305L135.871 365.345ZM137.803 369.289H139.894C140.761 369.289 141.195 368.934 141.195 368.027C141.195 367.12 140.722 366.804 139.894 366.804H137.803V369.249V369.289Z" fill="white"/>
<path d="M150.03 366.962H147.427V365.345H154.605V366.962H151.962V374.101H150.03V366.962Z" fill="white"/>
<path d="M155.591 365.345H157.523V368.697H161.073V365.345H163.005V374.101H161.073V370.354H157.523V374.101H155.591V365.345Z" fill="white"/>
<path d="M164.701 365.345H171.248V366.962H166.594V368.855H170.854V370.354H166.594V372.483H171.327V374.101H164.701V365.345Z" fill="white"/>
<path d="M183.317 374.929L182.094 373.824C181.503 374.14 180.793 374.337 179.964 374.337C177.243 374.337 175.665 372.326 175.665 369.802C175.665 367.277 177.243 365.187 179.964 365.187C182.686 365.187 184.303 367.199 184.303 369.802C184.303 371.064 183.869 372.207 183.159 373.036L184.263 374.022L183.356 374.968L183.317 374.929ZM180.793 370.906L181.779 371.813C182.094 371.379 182.331 370.709 182.331 369.802C182.331 368.263 181.66 366.804 179.925 366.804C178.19 366.804 177.559 368.303 177.559 369.802C177.559 371.3 178.19 372.72 179.925 372.72C180.201 372.72 180.556 372.72 180.714 372.602L179.886 371.852L180.793 370.906Z" fill="white"/>
<path d="M193.019 370.788C193.019 373.154 191.639 374.298 189.272 374.298C186.906 374.298 185.525 373.154 185.525 370.788V365.345H187.458V370.788C187.458 371.734 187.695 372.681 189.233 372.681C190.613 372.681 191.047 372.089 191.047 370.788V365.345H192.98V370.788H193.019Z" fill="white"/>
<path d="M194.676 365.345H201.223V366.962H196.569V368.855H200.828V370.354H196.569V372.483H201.302V374.101H194.676V365.345Z" fill="white"/>
<path d="M202.603 365.345H209.15V366.962H204.536V368.855H208.756V370.354H204.536V372.483H209.268V374.101H202.603V365.345Z" fill="white"/>
<path d="M210.531 365.345H212.463L216.092 371.221H216.131V365.345H217.945V374.101H216.013L212.345 368.263V374.101H210.531V365.345Z" fill="white"/>
<path d="M219.523 372.207H221.456V374.1C221.456 375.204 220.588 375.993 219.523 376.151V375.244C220.036 375.165 220.43 374.652 220.391 374.1H219.523V372.207V372.207Z" fill="white"/>
<path d="M228.357 366.962H225.754V365.345H232.932V366.962H230.29V374.101H228.357V366.962Z" fill="white"/>
<path d="M233.918 365.345H235.851V368.697H239.401V365.345H241.333V374.101H239.401V370.354H235.851V374.101H233.918V365.345Z" fill="white"/>
<path d="M242.99 365.345H249.576V366.962H244.922V368.855H249.182V370.354H244.922V372.483H249.655V374.101H242.99V365.345Z" fill="white"/>
<path d="M254.348 365.345H256.281V372.483H260.54V374.101H254.348V365.345Z" fill="white"/>
<path d="M264.011 365.345H265.983L269.256 374.101H267.245L266.614 372.168H263.34L262.67 374.101H260.737L264.05 365.345H264.011ZM263.814 370.709H266.062L264.958 367.514L263.814 370.709V370.709Z" fill="white"/>
<path d="M278.131 374.101H276.238L274.739 368.145H274.699L273.28 374.101H271.308L269.02 365.345H270.913L272.294 371.3H272.333L273.871 365.345H275.646L277.145 371.379H277.184L278.604 365.345H280.497L278.131 374.101Z" fill="white"/>
<path d="M280.339 372.207H282.272V374.1C282.272 375.204 281.404 375.993 280.339 376.151V375.244C280.852 375.165 281.246 374.652 281.207 374.1H280.3V372.207H280.339Z" fill="white"/>
<path d="M289.686 365.345H291.658L294.932 374.101H292.92L292.25 372.168H288.976L288.267 374.101H286.334L289.647 365.345H289.686ZM289.489 370.709H291.737L290.672 367.514H290.633L289.489 370.709V370.709Z" fill="white"/>
<path d="M295.681 365.345H297.614L301.242 371.221V365.345H303.056V374.101H301.124L297.495 368.263H297.456V374.101H295.681V365.345Z" fill="white"/>
<path d="M304.753 365.345H308.499C310.787 365.345 312.483 366.765 312.483 369.683C312.483 372.207 311.181 374.101 308.499 374.101H304.753V365.345ZM306.685 372.483H308.42C309.525 372.483 310.59 371.813 310.59 369.841C310.59 368.066 309.998 366.962 308.066 366.962H306.685V372.483Z" fill="white"/>
<path d="M319.188 366.962H316.545V365.345H323.723V366.962H321.12V374.101H319.188V366.962Z" fill="white"/>
<path d="M324.748 365.345H326.642V368.697H330.231V365.345H332.124V374.101H330.231V370.354H326.642V374.101H324.748V365.345Z" fill="white"/>
<path d="M333.82 365.345H340.367V366.962H335.752V368.855H339.972V370.354H335.752V372.483H340.446V374.101H333.82V365.345Z" fill="white"/>
<path d="M345.179 365.345H349.123C351.292 365.345 352.159 366.725 352.159 368.145C352.159 369.565 351.331 370.945 349.123 370.945H347.111V374.101H345.179V365.345V365.345ZM347.111 369.447H348.61C349.517 369.447 350.306 369.249 350.306 368.145C350.306 367.041 349.478 366.844 348.61 366.844H347.111V369.447Z" fill="white"/>
<path d="M353.342 365.345H359.889V366.962H355.236V368.855H359.495V370.354H355.236V372.483H359.968V374.101H353.342V365.345Z" fill="white"/>
<path d="M365.214 365.148C367.935 365.148 369.513 367.159 369.513 369.762C369.513 372.365 367.935 374.298 365.214 374.298C362.493 374.298 360.915 372.286 360.915 369.762C360.915 367.238 362.532 365.148 365.214 365.148ZM365.214 372.681C366.949 372.681 367.58 371.221 367.58 369.762C367.58 368.303 366.949 366.765 365.214 366.765C363.478 366.765 362.847 368.263 362.847 369.762C362.847 371.261 363.478 372.681 365.214 372.681Z" fill="white"/>
<path d="M370.814 365.345H374.758C376.967 365.345 377.795 366.725 377.795 368.145C377.795 369.565 376.967 370.945 374.758 370.945H372.747V374.101H370.814V365.345V365.345ZM372.747 369.447H374.246C375.113 369.447 375.942 369.249 375.942 368.145C375.942 367.041 375.113 366.844 374.246 366.844H372.747V369.447Z" fill="white"/>
<path d="M378.978 365.345H380.911V372.483H385.17V374.101H378.978V365.345Z" fill="white"/>
<path d="M386.275 365.345H392.822V366.962H388.168V368.855H392.428V370.354H388.168V372.483H392.901V374.101H386.275V365.345Z" fill="white"/>
<path d="M397.594 356.629H111.773V382.894H399.093V356.629H397.594ZM396.095 379.897H114.77V359.626H396.095V379.897Z" fill="white"/>
<path d="M432.577 286.471V286.352C432.538 285.051 431.434 284.065 430.842 283.631C429.698 281.975 427.766 279.924 424.019 276.059L419.957 271.84C414.672 266.358 412.897 260.561 412.502 253.896L413.962 251.332C417.038 246.087 420.824 239.62 420.154 228.695C419.523 218.678 414.238 207.399 403.865 194.267C402.13 192.098 400.394 190.56 398.659 189.495C399.093 188.549 399.606 187.365 399.606 187.365C401.38 183.54 403.747 178.374 403.747 172.064C403.747 169.303 403.273 166.267 402.13 163.072C397.279 149.821 385.644 147.021 379.215 146.548C372.037 145.996 363.991 148.717 359.89 150.413C356.932 151.596 352.83 154.041 349.517 156.013L345.928 158.064L344.074 158.892C340.879 160.272 336.068 162.362 332.755 166.7C328.929 171.709 328.259 175.929 328.259 178.255C328.259 179.044 328.298 179.557 328.377 179.872C328.338 180.03 327.391 183.422 327.391 183.422L326.76 185.157C326.208 186.734 325.182 189.613 324.788 190.284C323.92 191.625 323.447 193.399 323.447 195.292C323.447 196.515 323.802 198.763 325.064 199.433C325.616 199.749 326.247 199.709 326.76 199.354C326.76 199.354 327.588 198.487 327.904 198.171L328.495 197.461L330.625 195.253C332.124 194.227 336.817 190.363 339.499 186.064C340.84 185.748 346.046 184.329 348.728 180.937L352.554 175.179L356.143 169.855C358.075 167.568 365.174 160.075 376.02 160.548C381.818 160.785 384.855 163.191 386.354 165.162C387.655 166.858 388.168 168.712 388.168 170.013C388.168 170.289 388.168 170.565 388.089 170.802C387.616 172.892 386.551 177.703 376.888 183.067C375.35 179.715 372.589 175.298 367.935 173.602C362.138 171.512 357.484 172.261 353.658 175.929C349.004 180.346 347.663 184.881 350.148 187.681C351.489 189.219 352.948 189.653 354.21 189.613C354.092 190.56 353.816 191.861 352.988 193.32C346.914 195.884 343.798 197.501 341.826 199.039L341.274 199.473C336.778 202.943 324.867 212.092 322.895 225.659C322.461 228.459 322.303 230.943 322.303 233.191C322.303 235.952 322.619 238.2 323.053 240.329C322.777 240.053 322.382 239.659 322.264 239.462C322.067 237.687 321.278 235.518 320.016 233.625C317.965 230.707 313.508 232.955 313.035 233.191L311.576 234.611L313.626 235.755L313.942 236.504L314.652 238.16C314.967 238.712 315.086 239.974 315.086 241.197C315.086 241.434 315.086 241.631 315.086 241.867C314.336 241.867 313.508 241.867 312.562 241.986L311.733 242.065C309.091 242.262 307.75 245.811 307.632 246.206L308.539 246.56C308.815 246.718 309.959 247.191 310.984 247.428C311.891 248.02 313.705 252.515 314.455 254.448L314.612 254.882C315.204 256.459 315.007 262.375 313.942 272.549L313.784 274.166C313.666 275.468 312.522 276.533 312.522 276.533L310.274 278.583L313.272 278.859C316.466 279.135 318.833 278.504 320.331 276.966C321.751 275.507 322.067 273.535 322.067 271.997C322.067 271.445 322.027 271.011 321.988 270.578C322.224 270.854 322.5 271.209 322.737 271.84C323.881 274.442 326.76 278.938 328.061 280.91C327.036 282.014 326.721 283.671 326.721 285.09C326.721 285.721 326.76 286.274 326.839 286.747L327.115 288.206L328.574 287.772C330.586 287.141 336.344 290.888 340.17 293.372C343.837 295.738 348.61 296.882 354.802 296.882C358.075 304.572 363.36 310.882 364.346 311.829C365.056 312.539 365.845 314.629 366.16 315.772L367.028 318.77C367.028 318.77 368.251 316.64 368.527 316.127C368.882 316.088 369.513 316.403 369.513 316.403C370.42 317.665 369.513 327.643 368.685 330.325C369.473 330.522 370.578 330.956 371.524 331.153C372.471 327.643 373.299 316.127 371.327 314.353L369 313.367C368.764 313.367 368.527 313.446 368.251 313.525C367.856 312.341 367.146 310.843 366.279 309.936C365.332 309.029 360.008 302.719 356.932 295.068L356.577 294.2H355.63C349.596 294.319 345.021 293.293 341.668 291.124C336.462 287.733 332.36 285.327 329.442 285.13C329.442 284.105 329.639 282.882 330.467 282.527L331.966 281.896L331.059 280.555C331.059 280.555 326.602 273.93 325.301 270.814C323.999 267.778 322.106 267.068 320.923 267.383C320.095 267.58 319.306 268.369 319.306 269.592V270.302C319.385 270.735 319.464 271.327 319.464 271.997C319.464 273.102 319.306 274.285 318.517 275.113C317.965 275.665 317.137 275.941 316.111 276.099C316.308 275.586 316.506 275.034 316.545 274.403L316.703 272.826C317.216 267.738 317.728 262.414 317.728 258.589C317.728 256.459 317.57 254.842 317.216 253.896L317.058 253.462C314.77 247.744 313.548 245.298 311.97 244.904H311.891C311.97 244.904 312.009 244.786 312.049 244.786L312.956 244.707C313.824 244.628 315.243 244.51 315.638 244.628L317.531 246.048L317.807 243.76C317.807 243.405 317.925 242.42 317.925 241.236C317.925 239.777 317.768 238.003 317.176 236.898L316.584 235.597C316.584 235.597 316.348 235.203 316.269 235.005C316.979 234.848 317.689 234.808 317.965 235.163C319.227 237.017 319.897 239.067 319.897 240.132V240.566L320.173 240.921C320.805 241.789 321.278 242.222 321.712 242.577C321.633 243.879 321.278 248.296 321.278 248.296C321.278 248.611 321.278 248.966 321.278 249.321C321.278 252.279 321.869 255.907 323.053 260.048C324.354 264.544 328.022 270.656 329.245 272.037C330.428 273.378 331.453 274.009 332.479 274.048L334.096 273.378L335.003 270.972V269.158L334.293 264.741L333.386 259.89L333.307 259.654L329.442 250.82L328.416 248.217C326.484 243.405 324.078 237.372 325.735 226.132C327.549 213.67 338.829 204.954 343.088 201.681L343.68 201.247C345.415 199.867 348.491 198.329 354.25 195.844L366.91 190.639L371.09 188.943L377.164 186.143C387.655 180.661 389.982 175.416 390.85 171.433C391.244 169.658 390.85 166.543 388.602 163.585C386.748 161.179 383.12 158.221 376.257 157.906C364.504 157.354 356.932 164.886 354.21 168.16L350.424 173.799L346.756 179.281C344.35 182.317 338.631 183.579 338.553 183.579L338 183.698L337.685 184.21C335.279 188.351 330.388 192.216 329.245 193.044L326.563 195.766C326.563 195.766 326.444 195.923 326.326 196.042C326.287 195.805 326.247 195.568 326.247 195.253C326.247 193.912 326.602 192.611 327.194 191.703C327.746 190.836 328.495 188.706 329.442 186.025L330.033 184.329L331.256 180.03V179.557C331.256 179.557 331.059 179.005 331.059 178.177C331.059 176.323 331.611 172.734 335.042 168.238C337.921 164.452 342.339 162.56 345.297 161.298L347.348 160.351L351.055 158.221C354.092 156.407 358.272 153.923 361.033 152.779C364.938 151.202 372.51 148.638 379.136 149.111C384.973 149.545 395.425 152.03 399.763 163.9C403.234 173.365 399.803 180.74 397.318 186.143L396.411 188.194C392.151 186.577 388.247 187.484 385.525 188.115C381.305 189.101 376.297 191.309 373.26 193.518C369.118 196.515 368.172 201.366 368.172 205.112C368.172 207.518 368.566 209.45 368.724 210.199C369.316 212.802 371.327 214.38 372.786 215.247C372.313 215.839 371.84 216.509 371.327 217.495C370.854 218.481 370.657 219.309 370.499 220.059C367.068 218.718 361.743 218.442 356.813 218.284L353.619 218.166C353.619 218.166 352.633 217.969 352.435 219.309C352.278 220.69 353.461 220.847 353.461 220.847L356.655 220.966C361.428 221.124 368.645 221.4 370.854 223.174L373.536 225.304L373.023 221.912C373.023 221.912 372.826 220.414 373.654 218.678C374.601 216.825 375.666 215.839 375.666 215.839L377.283 214.38L375.232 213.591C375.232 213.591 371.84 212.25 371.248 209.568C371.051 208.583 369.197 199.709 374.758 195.647C377.48 193.675 382.213 191.625 386.038 190.718C390.219 189.732 395.977 188.43 401.814 195.805C411.792 208.504 416.92 219.27 417.511 228.735C417.511 229.524 417.59 230.312 417.59 231.062C417.59 239.777 414.474 245.101 411.674 249.873L409.742 253.344C407.099 258.51 398.462 278.938 393.65 304.612L393.492 305.322C393.098 307.53 392.704 309.62 392.309 310.606C388.365 306.781 362.571 278.347 359.811 266.594L359.732 266.161L359.377 265.885C358.904 265.49 349.635 257.524 349.635 243.76C349.635 241.276 349.951 238.594 350.621 235.715C350.621 235.715 350.937 234.572 349.635 234.296C348.373 234.019 348.018 235.084 348.018 235.084C347.269 238.121 346.914 240.96 346.914 243.603C346.914 257.642 355.827 266.318 357.326 267.659C359.456 275.744 370.026 289.35 378.781 299.643L378.663 300.037C377.953 302.916 378.032 304.691 378.071 306.11V307.136C378.071 308.871 376.967 312.341 376.533 313.603L376.375 314.037L376.139 314.747C375.942 315.22 375.902 316.127 375.902 317.232C375.902 321.609 376.888 329.023 377.361 330.561C378.15 333.204 381.029 335.254 381.029 335.373C382.291 335.728 381.621 333.598 382.646 333.913C382.134 333.204 381.029 331.823 380.477 330.128C379.886 328.471 378.584 320.387 378.584 317.034C378.584 316.325 378.584 315.812 378.663 315.575L379.057 314.432C379.925 311.868 380.793 308.989 380.793 307.096V305.992C380.753 305.598 380.714 305.243 380.714 304.809C380.714 304.099 380.832 303.192 380.99 302.167C386.433 308.398 390.771 312.894 391.205 313.209C392.073 313.801 392.822 313.682 393.256 313.485C394.715 312.854 395.109 310.843 396.056 305.953C399.251 306.071 402.879 305.992 404.693 305.953C405.127 308.674 406.547 315.654 409.268 318.888C411.911 322.043 415.46 323.108 419.326 321.885C422.757 320.82 426.03 315.339 426.03 309.344C426.03 308.398 425.951 307.491 425.794 306.505C424.887 301.496 421.219 295.029 417.709 290.217C424.019 290.296 430.487 289.192 431.907 287.969C432.38 287.536 432.656 286.944 432.656 286.313L432.577 286.471ZM325.735 249.163L326.721 251.687C326.721 251.687 330.191 259.614 330.625 260.6C330.704 260.955 331.493 265.254 331.493 265.254L332.163 269.316L332.242 269.631L332.163 270.617C332.163 270.617 332.084 270.933 332.045 271.169C331.808 271.011 331.532 270.775 331.059 270.262C330.191 269.237 326.681 263.597 325.458 259.299C324.354 255.394 323.763 252.042 323.763 249.321C323.763 249.045 323.763 248.729 323.763 248.414C323.763 248.414 323.92 246.324 324.039 244.47C324.591 246.166 325.143 247.744 325.735 249.163V249.163ZM369.828 186.419L365.648 188.115L356.34 191.94C356.774 190.56 357.01 189.377 357.01 188.627C357.01 188.115 356.971 187.839 356.932 187.799L356.655 185.827L354.92 186.774C354.683 186.892 353.421 187.484 352.12 185.985C350.542 184.132 352.633 180.582 355.433 177.901C358.549 174.943 362.059 174.391 366.949 176.165C369.868 177.23 372.471 180.227 374.325 184.329C372.629 185.118 369.789 186.419 369.789 186.419H369.828ZM415.027 287.575L411.871 287.299L413.883 289.744C417.748 294.516 422.165 302.009 423.112 307.136C424.216 313.17 420.785 318.77 418.497 319.48C415.697 320.347 413.212 319.598 411.28 317.31C408.913 314.471 407.494 307.136 407.139 304.533L406.981 303.35H405.758C405.758 303.35 400.71 303.508 396.529 303.389C400.355 284.026 406.586 266.752 410.333 258.273C411.201 263.518 413.291 268.724 417.985 273.654L422.047 277.873C425.794 281.778 427.687 283.71 428.673 285.209L428.791 285.366L428.988 285.524C429.264 285.721 429.422 285.958 429.619 286.195C428.121 286.826 421.85 288.088 414.987 287.536L415.027 287.575Z" fill="white"/>
<path d="M261.605 335.057C265.234 337.029 266.93 336.516 266.93 336.516C267.6 335.175 266.969 331.232 266.969 331.232C265.313 332.928 263.025 330.995 263.025 330.995C263.893 334.15 261.566 335.057 261.566 335.057H261.605ZM194.163 230.233H196.766V225.304C196.766 202.154 196.687 185.472 196.648 180.898H315.993C315.993 185.433 315.875 202.154 315.875 225.304V230.588L318.478 230.51C318.478 200.38 318.596 179.912 318.596 179.636V178.295H194.005V179.636C194.005 179.912 194.123 200.104 194.123 230.233H194.163ZM303.412 304.296V293.727C303.412 293.451 303.569 292.978 304.476 292.82C304.476 292.82 304.476 292.741 304.476 292.662C304.476 292.465 304.398 292.11 304.24 291.795C302.859 289.152 301.716 285.288 301.676 284.972L300.454 261.941C300.454 259.851 302.426 257.09 302.82 256.538V249.952C302.82 249.952 302.465 249.597 302.347 249.518H300.375C300.02 249.518 299.941 249.715 299.941 249.636V250.189L299.625 250.346L298.718 250.189L298.403 250.07C298.403 250.07 298.403 249.4 298.127 249.36L295.879 249.479V252.318H292.644V249.36H290.12V250.07L289.805 250.189L288.898 250.346L288.543 250.189V249.794C288.543 249.794 288.464 249.518 288.109 249.518H286.334C286.019 249.597 285.703 249.794 285.703 249.952V256.577C285.9 256.893 287.557 259.575 287.557 259.575H284.796C284.796 259.575 283.849 259.575 283.81 259.732V262.572H278.919V259.653H274.857C274.857 259.653 274.463 259.693 274.463 259.653V262.611H269.612V251.372C269.612 249.558 271.189 245.693 271.229 245.772V238.791C271.229 237.845 270.282 237.569 270.321 237.569H266.062C265.391 237.569 265.273 238.003 265.273 238.2V240.448H263.774V237.411C263.774 237.017 263.419 236.898 263.222 236.898L259.475 237.096V240.408H254.545V239.777L254.348 236.859H250.838C250.838 236.859 250.286 236.977 250.286 237.372V240.408H248.787V238.16C248.787 237.924 248.629 237.49 247.959 237.49H243.857C243.857 237.49 242.832 237.766 242.832 238.712V245.456C242.832 245.456 244.409 249.479 244.449 251.293V262.532H239.598V259.693L239.164 259.614L235.141 259.732V262.532H230.25V261.941L230.172 259.535H226.425C226.425 259.535 228.121 256.853 228.318 256.538V249.913C228.318 249.913 227.963 249.558 227.845 249.479H225.873C225.518 249.479 225.439 249.676 225.439 249.597V250.149L225.123 250.307L224.216 250.149L223.94 250.031C223.94 250.031 223.94 249.36 223.664 249.321L221.376 249.439V252.279H218.142V249.321H215.618V249.991L215.303 250.149L214.396 250.307L214.08 250.149V249.755C214.08 249.755 213.962 249.479 213.607 249.479H211.832C211.556 249.558 211.201 249.755 211.201 249.913V256.499C211.556 257.011 213.567 259.772 213.567 261.901C213.567 261.901 212.345 284.933 212.345 285.09C212.305 285.248 211.162 289.152 209.781 291.755C209.584 292.15 209.505 292.662 209.505 292.741C210.491 292.899 210.649 293.372 210.649 293.648V304.217H228.949V301.102H238.06C238.06 300.037 238.178 293.214 238.178 293.214V293.057H245.593V295.147H244.37L246.736 299.248L249.103 295.147H247.92V293.057H255.453V295.147H254.269L256.675 299.248L259.042 295.147H257.898V293.057H265.431V295.147H264.248L266.614 299.248L268.98 295.147H267.797V293.057H275.843L275.922 293.333C275.922 293.333 276.001 299.998 276.04 301.062H285.151V304.178H303.451L303.412 304.296ZM245.593 290.769H239.046C239.716 289.152 240.82 286.983 242.516 284.814H245.593V290.769V290.769ZM245.593 282.409H244.607C244.922 282.093 245.238 281.817 245.593 281.502V282.409ZM255.492 290.769H247.959V284.814H255.492V290.769ZM255.492 282.409H247.959V279.688C250.01 278.307 252.534 277.282 255.492 276.73V282.409ZM265.431 290.769H257.898V284.814H265.431V290.769ZM265.431 282.409H257.898V276.572C260.816 277.006 263.301 277.952 265.431 279.214V282.409ZM267.797 280.871C268.389 281.383 268.98 281.896 269.493 282.409H267.797V280.871ZM267.797 290.769V284.814H271.584C273.201 286.983 274.344 289.152 275.015 290.769H267.797ZM269.02 319.716C268.231 318.572 265.155 319.716 264.287 320.189L262.512 320.426L261.447 319.401C261.25 318.927 261.29 318.415 261.566 317.981C261.881 317.468 262.512 317.113 263.222 317.034C264.208 316.956 267.403 316.049 267.403 314.708C267.403 313.525 266.18 311.355 264.169 309.896C262.118 308.437 259.712 307.846 258.647 308.201C257.306 308.595 257.425 311.868 257.622 312.854C257.78 313.603 257.622 314.313 257.188 314.826C256.833 315.181 256.399 315.378 255.886 315.339L254.585 314.629L254.348 312.894C254.545 311.947 254.703 308.634 253.362 308.24C252.258 307.885 249.813 308.398 247.841 309.817C245.79 311.316 244.528 313.446 244.528 314.55C244.528 315.93 247.683 316.877 248.629 316.956L250.207 317.784L250.483 319.243C250.365 319.756 250.049 320.111 249.576 320.347C248.984 320.584 248.275 320.505 247.643 320.111C246.776 319.598 243.739 318.415 242.911 319.558C242.24 320.505 241.964 322.989 242.713 325.316C243.502 327.722 245.119 329.575 246.224 329.93C247.525 330.364 249.379 327.682 249.813 326.775C250.128 326.066 250.68 325.592 251.311 325.434C251.785 325.316 252.297 325.435 252.652 325.789L253.283 327.13L252.455 328.668C251.864 329.22 250.286 331.113 250.286 332.375C250.286 332.612 250.325 332.849 250.483 333.006C251.154 333.953 253.441 334.978 255.886 334.978C258.371 334.978 260.659 333.992 261.329 333.085C261.447 332.888 261.526 332.691 261.526 332.415C261.526 331.153 260.028 329.22 259.436 328.708L258.647 327.091L259.278 325.789C259.673 325.435 260.146 325.316 260.659 325.434C261.29 325.592 261.802 326.065 262.078 326.736C262.473 327.682 264.248 330.404 265.589 329.97C266.693 329.615 268.389 327.761 269.138 325.395C269.927 323.029 269.69 320.544 269.02 319.637V319.716ZM258.568 324.843C256.517 326.342 253.638 325.829 252.179 323.778C250.72 321.727 251.193 318.849 253.244 317.389C255.295 315.93 258.174 316.403 259.633 318.454C261.092 320.505 260.619 323.384 258.529 324.804L258.568 324.843ZM207.494 236.543C208.322 236.188 208.913 235.557 209.229 234.926C209.939 235.045 210.925 235.045 211.95 234.848C213.134 234.611 221.574 230.904 225.636 229.129C225.636 229.129 225.636 229.169 225.675 229.208C227.411 231.811 230.093 235.163 232.38 236.425C235.733 238.318 237.192 237.727 237.862 236.583C238.533 235.439 237.547 233.467 234.865 232.166C233.208 231.338 231.236 229.563 229.698 227.749C229.698 227.749 229.698 227.749 229.698 227.709C231.867 226.645 235.93 224.633 240.465 222.385C240.308 222.307 240.15 222.228 240.071 222.149C239.834 221.991 239.795 221.833 239.755 221.597C239.203 220.729 238.967 219.743 238.967 219.152C238.967 219.152 238.967 218.954 238.967 218.797C238.927 218.6 238.769 217.692 238.769 217.692C238.769 217.692 238.572 216.785 238.296 215.563C233.287 217.811 228.791 219.862 226.464 220.926C226.03 218.56 225.912 215.918 226.267 214.143C226.937 211.225 226.03 209.214 224.729 209.016C223.427 208.819 222.008 209.568 221.376 213.354C220.943 215.918 221.889 220.098 222.757 223.095C222.757 223.095 222.757 223.095 222.757 223.135C218.852 225.146 210.609 229.405 209.663 230.194C208.874 230.864 208.243 231.614 207.888 232.245C207.178 232.087 206.35 232.166 205.561 232.521C204.023 233.231 203.234 234.729 203.747 235.834C204.26 236.938 205.955 237.293 207.454 236.543H207.494ZM231.236 196.594C230.842 195.016 229.422 195.963 229.422 195.963C227.529 193.36 224.058 192.453 224.058 192.453C223.703 191.861 222.796 191.27 222.008 190.796C221.653 188.115 220.154 185.788 217.787 184.723C214.238 183.146 209.939 184.881 207.533 188.667C207.296 188.351 206.981 188.115 206.547 187.918C205.403 187.405 204.102 187.799 203.628 188.825C203.195 189.85 203.747 191.112 204.93 191.585C205.324 191.782 205.758 191.822 206.153 191.782C204.969 196.081 206.547 200.498 210.097 202.036C212.463 203.101 215.184 202.628 217.432 201.089C218.3 201.366 219.365 201.642 220.036 201.523C220.036 201.523 223.033 203.495 226.228 203.18C226.228 203.18 226.464 204.875 227.923 204.087C227.923 204.087 230.053 206.808 233.248 205.98C233.248 205.98 234.234 206.374 235.969 207.084C236.245 206.335 236.64 205.23 236.64 205.191C237.902 203.653 239.243 202.391 240.544 201.326C237.823 200.025 236.245 199.275 236.245 199.275C234.747 196.318 231.315 196.594 231.315 196.594H231.236ZM216.644 193.675C215.658 193.557 215.066 191.743 216.17 190.994C216.17 190.994 214.12 189.732 213.843 192.413C213.843 192.413 212.345 191.112 211.004 192.058C211.201 193.675 213.173 193.912 213.173 193.912C211.359 195.923 213.686 196.594 213.686 196.594C213.488 195.253 215.184 194.543 215.973 195.174C216.723 195.805 216.21 197.54 215.263 198.487C214.159 199.551 212.542 199.749 211.319 199.196C209.111 198.211 208.519 194.819 209.939 191.625C211.359 188.391 214.317 186.616 216.525 187.602C217.669 188.115 218.576 189.574 218.616 190.954C218.695 192.295 217.669 193.833 216.683 193.675H216.644ZM273.358 205.23L273.556 205.743C288.858 198.132 302.228 191.467 303.451 190.875C306.37 189.495 308.144 186.261 308.144 186.261C308.144 186.261 304.516 185.591 301.597 186.971C300.335 187.563 285.782 194.149 269.493 201.484C270.874 202.588 272.175 203.771 273.358 205.23ZM403.037 345.39C400.473 343.102 395.977 340.894 393.374 337.975C392.388 336.871 388.839 335.609 384.54 334.347C384.421 334.308 384.303 334.229 384.224 334.19C383.159 333.795 381.148 333.204 378.86 332.573C380.043 335.649 385.092 339.868 387.616 341.683C389.312 342.945 388.878 344.167 388.562 344.798C388.562 344.798 386.393 342.787 383.751 342.945C381.108 343.102 378.505 342.156 374.758 344.325C371.051 346.494 368.961 347.559 368.251 350.201C367.778 351.936 367.462 353.159 367.462 353.159C367.462 353.159 364.82 350.043 364.662 348.032C364.662 348.032 359.061 344.443 355.985 344.128C352.869 343.852 349.162 344.916 348.846 346.612C348.846 346.612 348.452 343.3 350.582 341.17C351.489 340.223 353.066 339.001 353.066 339.001C353.066 339.001 351.371 337.581 350.266 338.685C350.266 338.685 350.582 335.412 352.12 335.254C353.658 335.097 360.521 335.097 363.005 335.097C365.49 335.097 370.302 334.15 371.406 331.232C371.485 331.074 371.524 330.877 371.564 330.601C370.381 330.325 369.355 330.049 368.645 329.851C367.147 329.418 365.924 328.984 365.135 328.589C360.323 326.342 351.607 326.026 346.756 325.711L345.376 325.316L345.297 314.984L343.956 314.826C337.685 314.195 329.126 314.984 323.605 318.967L323.289 318.888C319.069 317.705 314.415 316.877 307.513 315.102C307.356 315.063 305.62 314.51 304.437 314.156C311.26 305.282 316.506 294.358 318.162 281.068H315.48C310.116 322.477 268.665 340.026 256.517 342.747C244.054 339.987 200.868 321.649 197.003 278.347H194.4C195.701 293.451 201.578 305.677 209.347 315.299C203.313 316.167 195.188 317.981 192.23 318.691C191.087 318.967 190.14 319.282 189.233 319.637C189.115 319.637 188.917 319.716 188.799 319.756C183.908 314.629 174.167 312.972 166.949 314.037L165.687 314.195L165.608 326.775C160.402 326.973 155.433 326.854 153.224 327.012C151.173 327.17 147.742 328.668 144.547 330.049C145.849 330.798 147.86 331.232 149.556 331.232L160.639 331.39C163.045 331.626 164.149 334.268 164.386 336.713L164.701 339.987C165.451 341.564 165.845 343.181 165.845 344.128C165.845 344.601 165.806 344.916 165.806 345.035L164.583 348.663L161.783 345.429C161.388 344.956 159.18 344.167 156.813 344.404C155.078 344.561 151.804 346.336 149.675 347.598C148.965 349.846 147.15 352.173 146.717 352.686L144.114 355.722L142.339 348.939C141.905 347.322 140.722 346.612 137.409 344.68L136.778 344.325C134.53 343.023 132.873 343.102 130.98 343.181H128.693C127.312 343.102 125.853 344.128 125.419 344.522L123.368 346.415L122.106 343.93C121.041 341.801 121.633 339.671 123.684 338.173C124.788 337.384 125.892 336.477 126.957 335.53C126.721 335.57 126.444 335.649 126.208 335.688C123.013 336.319 115.283 341.17 110.747 342.787C106.251 344.404 99.4676 347.953 99.7831 350.162C100.099 352.409 105.029 360.573 110.826 362.15C111.536 362.348 112.207 362.505 112.798 362.624V357.733H144.074C161.073 354.302 179.531 348.032 181.148 339.711C181.148 339.711 175.311 336.595 168.685 337.187V326.302C168.685 326.302 168.685 326.302 168.606 326.302C168.606 324.173 168.645 318.533 168.685 316.798C174.285 316.246 181.384 317.389 185.486 320.702C185.565 320.781 185.644 320.82 185.723 320.899C186.235 321.491 188.168 323.896 188.168 325.434V355.84C188.168 355.84 187.852 356.629 187.103 357.694H322.5L322.422 357.536L322.974 357.694H323.881C323.132 356.629 322.816 355.84 322.816 355.84V325.434C322.816 324.488 323.526 323.265 324.196 322.28C328.298 318.494 335.871 317.232 342.299 317.665C342.299 318.849 342.299 321.885 342.299 324.33V337.108C335.673 336.516 329.797 339.632 329.797 339.632C331.414 347.953 349.872 354.224 366.87 357.655H397.87V364.95C398.698 364.477 399.408 364.004 400 363.491C403.944 361.441 407.178 356.077 407.967 353.632C408.953 350.556 405.679 347.48 403.076 345.232L403.037 345.39ZM307.119 236.938C307.829 236.701 308.657 235.912 308.775 235.597C308.894 235.281 308.973 234.177 308.697 233.467C306.843 228.893 300.809 228.853 300.809 228.853C300.02 227.591 298.442 228.262 298.442 228.262C293.63 223.49 287.793 222.425 287.793 222.425C286.255 220.453 284.323 221.557 284.323 221.557C280.142 219.743 275.843 217.811 271.623 215.878C271.465 216.667 271.229 217.732 271.229 217.732C271.15 218.047 271.11 218.245 271.031 218.521C271.031 218.718 271.071 219.112 271.071 219.112C271.071 219.862 270.913 220.887 270.361 221.715C274.226 223.411 278.17 225.146 281.956 226.881C281.956 226.881 282.469 229.011 284.954 228.853C284.954 228.853 289.686 232.481 296.431 232.797C296.431 232.797 297.022 234.453 298.482 234.217C298.482 234.217 302.583 238.673 307.198 236.977L307.119 236.938ZM244.449 330.916C243.699 334.939 244.725 336.437 244.725 336.437C246.224 336.674 249.773 334.86 249.773 334.86C247.643 333.835 248.787 331.074 248.787 331.074C246.066 332.849 244.449 330.956 244.449 330.956V330.916ZM255.926 308.989C257.07 305.953 259.515 306.544 259.515 306.544C257.78 302.837 256.044 302.246 256.044 302.246C254.703 302.916 252.889 306.465 252.889 306.465C255.216 306.071 255.926 308.95 255.926 308.95V308.989ZM237.941 315.22C238.178 316.719 241.018 319.519 241.018 319.519C241.333 317.192 244.331 317.429 244.331 317.429C241.806 315.378 243.108 313.288 243.108 313.288C239.046 313.801 237.941 315.26 237.941 315.26V315.22ZM270.952 320.071C273.95 317.232 273.989 315.457 273.989 315.457C272.924 314.392 268.98 313.801 268.98 313.801C270.085 315.851 267.521 317.429 267.521 317.429C270.755 317.587 270.952 320.071 270.952 320.071ZM238.572 206.887C238.336 207.163 238.099 207.952 238.454 208.385C238.848 208.819 239.085 208.937 239.479 209.292C239.874 209.687 241.018 216.352 241.254 217.022C241.491 217.692 241.53 218.639 241.53 218.639C241.53 218.639 241.412 219.901 241.885 220.374C242.28 220.769 243.029 220.69 243.187 220.926C243.345 221.163 243.266 221.518 244.331 221.281C245.395 221.045 249.694 219.388 254.979 219.388C260.304 219.388 264.603 221.045 265.628 221.281C266.693 221.518 266.654 221.202 266.772 220.926C266.93 220.69 267.679 220.729 268.073 220.374C268.547 219.901 268.389 218.639 268.389 218.639C268.389 218.639 268.428 217.692 268.665 217.022C268.902 216.352 270.085 209.687 270.44 209.292C270.834 208.937 271.071 208.819 271.465 208.385C271.86 207.952 271.623 207.163 271.347 206.887C266.338 200.853 260.146 198.92 256.005 198.447L255.374 197.067L256.991 197.816V195.45L255.374 196.16L256.123 194.543H253.717L254.506 196.16L252.85 195.411V197.777L254.506 197.027L253.875 198.329C249.773 198.526 243.502 200.813 238.493 206.847L238.572 206.887ZM255.768 208.346L256.951 206.019H256.044C256.596 204.757 257.346 202.943 257.503 202.588C257.661 202.233 258.135 201.918 258.923 202.233C259.673 202.509 265.234 204.244 267.718 208.149C268.073 208.661 266.89 212.014 265.51 212.566C264.129 213.078 262.315 212.447 262.276 211.816C262.276 210.752 263.932 210.16 264.721 211.146C264.721 211.146 265.746 209.135 263.183 209.135C263.183 209.135 264.287 207.636 263.262 206.453C261.763 206.808 261.724 208.622 261.724 208.622C259.673 207.242 259.278 209.332 259.278 209.332C260.501 209.056 261.408 210.554 260.935 211.343C260.777 211.58 260.461 212.132 258.608 211.935C258.056 211.935 257.306 211.737 256.636 211.383L255.768 209.726L258.411 210.791V207.321L255.768 208.346V208.346ZM254.309 208.425L251.627 207.321V210.791L254.309 209.647L253.441 211.383C252.771 211.698 251.982 211.895 251.43 211.935C249.576 212.092 249.261 211.58 249.103 211.343C248.629 210.554 249.537 209.056 250.759 209.332C250.759 209.332 250.404 207.242 248.353 208.622C248.353 208.622 248.353 206.216 246.815 205.901C245.829 207.084 246.894 209.135 246.894 209.135C244.37 209.135 245.395 211.146 245.395 211.146C246.184 210.199 247.88 210.752 247.841 211.816C247.841 212.447 245.948 213.118 244.567 212.566C243.147 212.053 242.004 208.701 242.359 208.149C244.843 204.244 250.404 202.509 251.154 202.233C251.942 201.957 252.416 202.233 252.573 202.588C252.692 202.904 253.441 204.718 254.033 206.019H253.086L254.348 208.385L254.309 208.425Z" fill="white"/>
<path d="M254.979 0C114.179 0 0 114.17 0 255C0 395.83 114.179 510 254.979 510C395.78 510 509.998 395.83 509.998 255C509.998 114.17 395.819 0 254.979 0ZM254.979 460.27C141.589 460.27 49.6549 368.382 49.6549 255C49.6549 141.618 141.629 49.6907 254.979 49.6907C368.33 49.6907 460.304 141.579 460.304 254.961C460.304 368.342 368.369 460.23 254.979 460.23V460.27Z" fill="white"/>
<path d="M616.891 122.786H680.979L727.129 304.16H675.685L666.083 257.891H632.024L622.422 304.16H570.978L616.851 122.786H616.891ZM637.081 223.681H660.789L652.215 180.406C651.701 177.884 651.187 174.376 650.436 170.593C649.686 164.05 649.449 160.779 649.172 152.227C648.658 160.779 648.421 164.326 647.631 170.593C646.88 174.1 646.367 177.647 645.853 180.406L637.042 223.681H637.081Z" fill="white"/>
<path d="M844.322 159.655C836.002 156.892 829.968 155.905 823.423 155.905C798.738 155.905 787.934 173.785 787.934 214.598C787.934 255.411 799.014 271.041 823.935 271.041C831.979 271.041 840.3 269.265 849.842 264.726L854.101 299.5C838.762 304.789 825.394 307.315 811.83 307.315C763.249 307.315 735.804 273.567 735.804 214.085C735.804 154.602 763.722 119.631 811.317 119.631C824.409 119.631 837.224 121.881 850.315 126.697L844.243 159.694L844.322 159.655Z" fill="white"/>
<path d="M871.451 122.786H1000V157.232L960.849 160.503V304.16H910.13V160.503L871.451 156.995V122.786Z" fill="white"/>
<path d="M609.788 334.679C605.121 331.524 601.013 330.105 596.665 330.105C591.56 330.105 587.012 332.707 584.699 337.242C582.346 341.736 581.309 347.69 581.309 357.429C581.309 366.34 582.226 371.23 584.42 375.803C586.693 380.377 591.081 382.822 596.984 382.822C600.454 382.822 603.366 382.112 606.836 380.377V359.913H592.876V353.329H615.931V385.424C606.996 388.933 602.17 390.116 596.147 390.116C579.474 390.116 570.978 379.234 570.978 357.587C570.978 334.876 579.434 323.086 595.668 323.086C601.85 323.086 607.076 324.9 612.819 328.685L609.708 334.718L609.788 334.679Z" fill="white"/>
<path d="M643.533 342.801C656.531 342.801 663.249 350.857 663.249 366.419C663.249 381.981 656.531 390.116 643.533 390.116C630.535 390.116 623.817 382.021 623.817 366.419C623.817 350.818 630.535 342.801 643.533 342.801ZM632.92 366.419C632.92 377.816 636.537 383.75 643.533 383.75C650.529 383.75 654.067 377.737 654.067 366.419C654.067 355.101 650.45 349.246 643.533 349.246C636.617 349.246 632.92 355.18 632.92 366.419Z" fill="white"/>
<path d="M673.977 342.801L684.082 376.161C684.559 377.484 684.877 379.275 685.235 381.766C685.593 379.275 686.15 376.978 686.389 376.161L696.215 343.852H705.047L690.407 388.539H679.387L664.826 343.93L673.937 342.801H673.977Z" fill="white"/>
<path d="M716.768 369.399C717.469 378.435 722.653 383.368 731.033 383.368C734.073 383.368 737.191 382.737 741.361 381.119L742.96 387.591C738.243 389.209 733.605 390.116 729.162 390.116C715.247 390.116 707.413 381.198 707.413 365.886C707.413 351.522 714.546 342.801 726.512 342.801C738.477 342.801 744.48 350.891 744.48 365.413C744.48 366.32 744.48 367.583 744.402 369.359H716.768V369.399ZM716.066 363.519H736.178V363.361C736.178 354.166 732.709 349.273 726.395 349.273C720.081 349.273 716.222 354.442 716.066 363.519Z" fill="white"/>
<path d="M752.407 343.625L761.253 343.272V346.841C765.166 343.899 768.06 342.801 772.871 342.801L771.852 350.96C770.547 350.686 769.895 350.686 768.835 350.686C765.859 350.686 763.617 351.313 761.212 353V388.539H752.366V343.586L752.407 343.625Z" fill="white"/>
<path d="M777.602 343.375L786.16 342.213V346.5C791.021 343.375 795.159 342.013 799.578 342.013C803.997 342.013 807.773 343.375 810.304 345.859C812.956 348.423 813.88 351.267 813.88 357.317V389.288H805.243V359.24C805.243 357.477 805.162 356.075 804.881 355.033C804.238 351.548 801.024 349.264 796.725 349.264C793.391 349.264 790.016 350.546 786.24 353.23V389.328H777.602V343.415V343.375Z" fill="white"/>
<path d="M823.344 343.393L831.862 342.407V345.798C836.021 343.195 839.627 342.013 843.43 342.013C847.233 342.013 850.759 343.156 853.136 345.443C853.77 346.074 854.206 346.429 854.958 347.612C859.673 343.984 864.189 342.21 868.903 342.21C873.063 342.21 876.708 343.629 879.125 346.153C881.66 348.873 882.492 351.397 882.492 357.429V388.539H873.974V359.322C873.974 357.429 873.895 356.089 873.697 354.985C873.063 351.554 869.894 349.11 865.972 349.11C862.921 349.11 860.188 350.372 857.018 353.171V388.539H848.54V359.519C848.54 357.153 848.54 356.01 848.421 355.103C847.867 351.673 844.618 349.149 840.458 349.149C837.368 349.149 834.833 350.135 831.862 352.58V388.539H823.344V343.353V343.393Z" fill="white"/>
<path d="M899.942 369.399C900.659 378.435 905.959 383.368 914.526 383.368C917.634 383.368 920.822 382.737 925.086 381.119L926.719 387.591C921.898 389.209 917.156 390.116 912.573 390.116C898.388 390.116 890.379 381.198 890.379 365.886C890.379 351.522 897.671 342.801 909.864 342.801C922.057 342.801 928.233 350.891 928.233 365.413C928.233 366.32 928.233 367.583 928.154 369.359H899.902L899.942 369.399ZM899.185 363.519H919.786V363.361C919.786 354.166 916.239 349.273 909.784 349.273C903.329 349.273 899.384 354.442 899.185 363.519Z" fill="white"/>
<path d="M936.12 343.375L944.452 342.213V346.5C949.207 343.375 953.255 342.013 957.578 342.013C961.901 342.013 965.596 343.375 968.111 345.859C970.744 348.423 971.609 351.267 971.609 357.317V389.288H963.159V359.24C963.159 357.477 963.041 356.075 962.805 355.033C962.177 351.548 959.032 349.264 954.827 349.264C951.565 349.264 948.303 350.546 944.57 353.23V389.328H936.12V343.415V343.375Z" fill="white"/>
<path d="M977.129 343.773H982.661V336.26L991.095 334.915V343.773H999.961V349.467L991.173 350.258V377.384C991.173 379.123 991.173 379.914 991.291 380.547C991.448 382.445 993.017 383.631 995.332 383.631C996.744 383.631 998.117 383.354 1000 382.722V388.851C997.646 389.681 995.253 390.116 992.664 390.116C989.173 390.116 986.387 389.167 984.661 387.506C983.21 385.964 982.7 383.789 982.7 379.914V350.06L977.168 349.506V343.733L977.129 343.773Z" fill="white"/>
</svg>
