<svg width="1000" height="1620" viewBox="0 0 1000 1620" fill="none" xmlns="http://www.w3.org/2000/svg">
<g clip-path="url(#clip0_16_2)">
<path d="M572.967 349.632C572.967 349.632 572.967 349.174 572.967 348.944C572.738 345.047 569.759 341.378 567.239 340.232C564.948 339.086 560.366 339.544 556.014 340.92C557.159 342.296 557.846 343.442 558.534 344.588L559.221 345.735L560.137 347.569C560.825 349.174 561.741 351.237 563.345 353.071H572.279C572.279 353.071 573.196 351.008 573.196 349.861" fill="black"/>
<path d="M557.159 348.715L556.472 347.339L555.785 346.193C554.868 344.817 553.723 342.754 551.661 340.92L550.744 340.461C548.224 339.086 536.082 337.71 527.835 340.232C529.21 341.837 530.355 343.442 531.271 344.817L531.959 345.964L532.875 347.798C533.333 349.403 534.479 351.466 536.082 353.3H559.221C558.075 351.695 557.388 350.091 556.93 348.944" fill="black"/>
<path d="M530.355 348.486L529.668 347.11L528.981 345.735C528.064 344.13 526.69 341.608 524.17 340.003C521.649 338.627 509.507 337.252 501.26 339.774C502.864 341.378 504.009 342.983 504.696 344.359L505.384 345.505L506.3 347.339C506.987 348.944 507.675 351.008 509.507 352.842H532.646C531.501 351.237 530.813 349.632 530.355 348.486" fill="black"/>
<path d="M503.322 348.715L502.635 347.339L501.718 345.964C500.802 344.359 499.427 341.837 496.907 340.232C494.387 338.857 482.016 337.481 473.998 340.003C475.601 341.608 476.518 343.213 477.434 344.588L478.122 345.735L479.038 347.569C479.725 349.174 480.642 351.237 482.245 353.071H505.384C504.238 351.466 503.551 349.861 503.093 348.715" fill="black"/>
<path d="M476.518 348.715L475.83 347.339L474.914 345.964C473.998 344.359 472.623 341.837 470.103 340.232C467.354 338.856 454.983 337.481 446.964 340.232C448.339 341.608 449.484 342.983 450.172 344.13L450.859 345.047L451.775 346.881C452.692 348.715 453.837 351.237 456.586 353.071H478.579C477.434 351.466 476.747 349.861 476.289 348.715" fill="black"/>
<path d="M449.255 348.027L448.568 346.881L447.881 345.734C446.964 344.13 445.59 342.066 443.528 340.92L442.841 340.461C439.633 339.086 434.593 340.003 431.386 342.754C430.47 343.671 430.011 345.047 430.011 345.964C430.011 348.715 431.157 351.237 432.531 353.3H452.463C450.859 351.466 449.943 349.632 449.485 348.256" fill="black"/>
<path d="M534.25 201.296C529.897 202.901 523.94 200.838 523.94 199.004C523.94 195.565 529.21 193.731 531.73 196.711C531.73 196.711 534.937 190.292 526.919 190.292C526.919 190.292 530.355 185.477 527.148 181.809C522.337 182.955 522.337 188.916 522.337 188.916C515.693 184.331 514.547 191.209 514.547 191.209C518.442 190.292 521.42 195.106 519.817 197.628C519.358 198.545 518.213 200.15 512.486 199.691C510.882 199.691 508.362 199.004 506.071 197.857L503.322 192.584L511.798 196.023V184.789L503.322 188.228L507.216 180.892H504.238C506.071 176.765 508.591 172.867 508.82 171.721C509.278 170.575 510.882 169.658 513.402 170.575C515.922 171.492 533.562 177.223 541.581 189.604C542.726 191.209 539.061 200.15 534.479 201.984M495.991 198.316C493.7 199.462 491.409 199.921 489.576 200.15C483.62 200.609 482.703 199.004 482.245 198.087C480.641 195.565 483.62 190.75 487.514 191.667C487.514 191.667 486.369 185.018 479.725 189.374C479.725 189.374 479.725 183.414 474.914 182.267C471.707 185.935 475.143 190.75 475.143 190.75C467.125 190.75 470.332 197.17 470.332 197.17C472.852 194.189 478.35 196.023 478.121 199.462C478.121 201.526 472.165 203.589 467.812 201.755C463.23 200.15 459.565 191.209 460.71 189.374C468.499 176.994 486.369 171.262 488.889 170.345C491.409 169.428 492.783 170.345 493.242 171.492C493.7 172.638 495.991 176.536 498.053 180.662H495.074L498.969 188.228L490.263 184.789V196.023L498.969 192.355L496.22 197.857L495.991 198.316ZM553.723 185.706C537.686 166.448 517.755 160.028 504.696 158.653L502.635 154.297L507.675 156.589V149.023L502.635 151.316L504.925 146.272H497.365L499.885 151.545L494.616 149.253V156.819L499.885 154.297L498.053 158.423C484.994 159.111 464.834 166.448 448.797 185.706C448.11 186.623 447.194 189.145 448.568 190.521C449.714 191.896 450.63 192.126 451.775 193.501C452.921 194.648 456.815 202.672 457.503 204.735C458.19 206.799 458.419 210.008 458.419 210.008C458.419 210.008 457.961 213.906 459.565 215.511C460.71 216.657 463.23 216.657 463.688 217.345C464.147 218.033 463.917 219.179 467.354 218.491C470.79 217.804 484.536 212.53 501.489 212.53C518.442 212.53 532.188 217.804 535.624 218.491C539.061 219.179 538.832 218.262 539.29 217.345C539.748 216.657 542.268 216.657 543.413 215.511C545.017 213.906 544.559 210.008 544.559 210.008C544.559 210.008 544.559 207.028 545.475 204.735C546.163 202.672 549.828 194.648 551.203 193.501C552.348 192.355 553.265 191.896 554.41 190.521C555.555 189.145 554.868 186.623 554.181 185.706" fill="black"/>
<path d="M521.649 272.369H544.788V306.53H521.649V272.369ZM489.805 272.369H512.944V306.53H489.805V272.369ZM457.961 272.369H481.1V306.53H457.961V272.369ZM457.961 227.891H481.1V262.281H457.961V227.891ZM501.031 227.891H512.715V262.281H489.576V227.891H500.802H501.031ZM544.559 262.281H521.42V227.891H544.559V262.281ZM501.718 217.804H427.033V225.14C427.033 225.14 434.364 225.14 440.779 228.579C446.048 231.33 448.11 237.062 448.797 239.125V323.725H444.444L453.15 339.086L462.085 323.725H457.732V316.388H480.871V323.725H476.518L485.223 339.086L493.929 323.725H489.576V316.388H512.715V323.725H508.362L517.297 339.086L526.002 323.725H521.649V316.388H544.788V323.725H540.435L549.141 339.086L558.076 323.725H553.723V239.125C554.41 236.833 556.701 231.33 561.741 228.579C568.156 225.14 575.487 225.14 575.487 225.14V217.804H501.947H501.718Z" fill="black"/>
<path d="M432.761 227.891C432.761 225.369 434.822 223.077 437.572 223.077C440.321 223.077 442.383 225.14 442.383 227.891C442.383 230.643 440.321 232.706 437.572 232.706C434.822 232.706 432.761 230.643 432.761 227.891ZM428.866 227.891C428.866 232.477 432.761 236.374 437.343 236.374C441.924 236.374 445.819 232.477 445.819 227.891C445.819 223.306 441.924 219.408 437.343 219.408C432.761 219.408 428.866 223.306 428.866 227.891Z" fill="black"/>
<path d="M432.99 240.042C434.593 240.042 435.739 240.501 437.342 240.73C437.113 242.794 436.655 246.691 436.197 248.755C434.593 248.755 433.448 248.296 431.844 248.067C432.073 246.003 432.761 242.106 432.99 240.042ZM429.553 237.75L427.72 251.506L439.633 253.111L441.695 237.521L429.782 235.916V237.75H429.553Z" fill="black"/>
<path d="M430.928 257.467C432.532 257.467 433.906 257.467 435.281 257.467C435.281 259.53 435.281 263.198 435.281 265.262C433.677 265.262 432.302 265.262 430.699 265.262C430.699 263.198 430.699 259.53 430.928 257.467M427.262 255.403L426.804 268.93L438.717 269.389L439.175 254.028L427.262 253.569V255.403Z" fill="black"/>
<path d="M434.593 274.203C434.593 276.496 434.593 280.164 434.593 282.457C432.99 282.457 431.615 282.457 430.241 282.457C430.241 280.164 430.241 276.496 430.241 274.203C431.844 274.203 433.219 274.203 434.823 274.203M436.655 270.306H426.575V286.125H438.717V270.306H436.655Z" fill="black"/>
<path d="M429.782 290.94C431.386 290.94 432.531 291.169 434.135 291.398C433.906 293.462 433.448 297.359 433.219 299.652C431.615 299.652 430.47 299.423 428.866 299.193C429.095 296.901 429.553 293.232 429.782 291.169M426.346 288.876L424.742 302.632L436.655 303.779L438.259 288.188L426.346 287.042V288.876Z" fill="black"/>
<path d="M427.262 307.905C428.866 308.364 430.011 308.593 431.615 308.823C431.157 310.886 430.241 314.554 429.782 316.847C428.179 316.388 427.033 316.159 425.43 315.93C425.888 313.866 426.804 309.969 427.262 307.905ZM424.055 305.154L420.848 318.681L432.531 321.432L436.197 306.071L424.513 303.32L424.055 305.154Z" fill="black"/>
<path d="M422.222 324.413C423.597 325.1 424.742 325.788 426.117 326.476C425.2 328.31 423.368 331.749 422.451 333.813C421.077 333.125 419.931 332.437 418.557 331.749L422.451 324.413M419.931 320.974L413.517 333.354L424.055 338.857L431.386 324.871L420.848 319.369L419.931 320.974Z" fill="black"/>
<path d="M409.393 343.442C409.393 340.92 411.455 338.627 414.204 338.627C416.953 338.627 418.786 340.691 418.786 343.442C418.786 346.193 416.724 348.256 414.204 348.256C411.684 348.256 409.393 346.193 409.393 343.442ZM405.498 343.442C405.498 348.256 409.393 351.925 413.975 351.925C418.557 351.925 422.451 348.027 422.451 343.442C422.451 338.857 418.557 334.959 413.975 334.959C409.393 334.959 405.498 338.857 405.498 343.442Z" fill="black"/>
<path d="M565.636 232.706C563.116 232.706 560.825 230.643 560.825 227.891C560.825 225.14 562.887 223.077 565.636 223.077C568.385 223.077 570.447 225.14 570.447 227.891C570.447 230.643 568.385 232.706 565.636 232.706ZM565.636 219.408C561.054 219.408 557.159 223.306 557.159 227.891C557.159 232.477 560.825 236.374 565.636 236.374C570.447 236.374 574.112 232.477 574.112 227.891C574.112 223.306 570.218 219.408 565.636 219.408Z" fill="black"/>
<path d="M571.134 248.067L566.781 248.755C566.552 246.691 565.865 242.794 565.636 240.73C567.24 240.501 568.385 240.272 569.989 240.042C570.218 242.106 570.676 246.003 571.134 248.067ZM573.425 235.686L561.512 237.291L563.574 252.881L575.487 251.277L573.654 237.521V235.686H573.425Z" fill="black"/>
<path d="M572.05 265.262C570.447 265.262 569.072 265.262 567.698 265.262V257.467C569.072 257.467 570.218 257.467 571.821 257.467C571.821 259.53 571.821 262.969 571.821 265.262M575.258 253.569L563.345 254.028L563.803 269.389L575.716 268.93L575.258 255.403V253.569Z" fill="black"/>
<path d="M572.738 274.432C572.738 276.496 572.738 280.393 572.738 282.686C571.134 282.686 569.989 282.686 568.156 282.686C568.156 280.393 568.156 276.725 568.156 274.432C569.76 274.432 570.905 274.432 572.509 274.432M564.261 270.535V286.354H576.174V270.764H564.261V270.535Z" fill="black"/>
<path d="M573.883 299.193C572.279 299.193 570.905 299.423 569.53 299.652C569.301 297.359 568.843 293.691 568.614 291.398C570.218 291.398 571.363 291.169 572.967 290.94C573.196 293.232 573.654 296.901 573.883 298.964M576.403 286.584L564.49 287.73L566.094 303.549L578.007 302.403L576.632 288.647V286.813L576.403 286.584Z" fill="black"/>
<path d="M577.549 315.93C575.945 316.388 574.8 316.618 573.196 317.076C572.738 315.013 571.821 311.115 571.363 309.052C572.967 308.593 574.112 308.364 575.716 308.135C576.174 310.198 577.091 313.866 577.549 316.159M578.465 303.549L566.781 306.301L570.447 321.661L582.131 318.91L578.923 305.384L578.465 303.549Z" fill="black"/>
<path d="M584.422 331.52C583.047 332.208 581.902 332.896 580.527 333.583C579.382 331.749 577.778 328.31 576.632 326.247C578.007 325.559 579.152 324.871 580.527 324.183C581.443 326.247 583.276 329.457 584.422 331.52ZM582.131 319.14L571.592 324.642L578.923 338.627L589.462 333.125L583.047 320.744L582.131 319.14Z" fill="black"/>
<path d="M588.774 348.256C586.254 348.256 583.963 346.193 583.963 343.442C583.963 340.691 586.025 338.627 588.774 338.627C591.524 338.627 593.585 340.691 593.585 343.442C593.585 346.193 591.524 348.256 588.774 348.256ZM588.774 335.188C584.192 335.188 580.298 339.086 580.298 343.671C580.298 348.256 583.963 352.154 588.774 352.154C593.585 352.154 597.251 348.256 597.251 343.671C597.251 339.086 593.356 335.188 588.774 335.188Z" fill="black"/>
<path d="M273.998 358.573L285.452 363.847L293.7 367.286L308.362 373.247C307.216 369.12 307.446 366.139 307.446 366.139C307.446 366.139 312.027 368.89 316.38 364.076C320.504 359.261 316.609 351.237 309.737 344.588C302.635 337.939 294.616 337.022 284.536 340.691C277.892 343.213 272.852 349.173 269.416 356.051C270.79 356.969 272.165 357.656 273.998 358.573" fill="black"/>
<path d="M393.814 475.041C390.149 474.812 386.254 474.124 385.109 475.27C385.109 475.27 384.192 466.787 386.025 463.348C387.858 459.909 387.4 457.617 390.378 457.158C390.378 457.158 382.818 453.261 380.069 457.158C377.32 461.056 375.716 465.641 375.716 468.392C375.716 468.392 373.196 471.831 372.05 471.831C372.05 471.831 372.738 478.48 372.967 484.67C373.196 490.631 372.05 498.426 369.53 506.909C367.01 515.392 360.137 527.085 357.846 529.377C356.243 531.211 353.723 533.504 352.119 531.899C351.661 530.982 351.203 530.065 350.974 528.689C350.745 527.085 350.745 526.167 350.974 525.48C351.203 520.894 353.035 515.621 354.181 507.826C356.93 502.094 359.908 495.675 361.97 490.173C365.865 479.397 373.196 467.246 369.301 440.422C365.407 413.597 340.206 395.256 333.104 389.983C329.21 387.002 322.566 383.563 311.798 379.207C303.322 375.539 292.554 371.183 278.809 365.681C274.456 363.847 270.561 362.012 267.125 360.178C246.277 349.173 242.841 338.856 241.695 333.125C240.092 326.476 246.048 310.657 267.812 309.74C289.576 308.822 304.009 323.037 309.049 328.998C314.089 334.959 318.213 343.9 323.711 350.778C328.981 357.656 341.352 360.178 341.352 360.178C346.392 368.89 356.014 376.456 358.763 378.29C360.137 379.207 361.97 381.271 363.574 383.105L364.719 384.71C364.719 384.71 364.49 384.251 364.261 384.022C365.178 385.168 365.865 386.085 366.323 386.315C367.468 387.232 368.614 383.793 368.614 380.583C368.614 377.373 367.927 374.393 366.323 372.1C364.948 369.807 361.97 360.637 360.825 358.115C359.908 355.822 358.992 351.925 358.763 350.549V350.091C358.763 350.091 361.512 339.773 350.745 325.788C343.184 315.93 330.813 312.261 325.773 309.51C320.733 306.988 306.987 297.818 298.74 294.608C290.263 291.169 275.372 286.125 262.085 287.271C248.797 288.188 228.179 294.149 219.473 317.993C211.455 340.003 221.535 356.969 226.117 367.286C235.281 362.7 243.986 364.764 249.943 366.139C258.19 367.973 268.041 372.329 273.998 376.685C282.245 382.646 284.078 392.276 284.078 399.841C284.078 404.656 283.391 408.324 282.932 409.929C281.787 414.973 277.892 418.183 275.143 419.788C276.06 420.934 276.976 422.08 277.892 423.914C278.809 425.519 279.267 427.124 279.496 428.5C285.682 426.207 294.845 425.749 306.071 425.29H312.257C313.86 425.061 315.235 426.207 315.464 427.812C315.464 429.417 314.318 430.792 312.715 431.022H306.3C297.136 431.71 282.932 432.168 278.58 435.607L272.852 440.192L273.998 432.856C273.998 432.856 274.456 430.105 272.852 426.666C271.019 422.997 268.958 421.163 268.958 421.163L265.292 417.953L269.645 416.119C269.645 416.119 276.06 413.597 277.205 408.554C277.663 406.49 281.1 389.295 270.561 381.5C265.292 377.603 255.899 373.705 248.568 371.871C240.55 370.037 229.324 367.286 218.099 381.729C198.625 406.49 188.545 427.583 187.4 446.153C187.4 447.758 187.4 449.134 187.4 450.739C187.4 467.704 193.585 478.251 198.855 487.421L202.749 494.299C208.018 504.387 224.742 544.509 234.364 594.948V596.323C235.281 600.221 236.197 604.118 236.655 606.182C245.819 597.011 294.616 543.133 299.885 520.207V519.289L300.802 518.602C300.802 518.602 319.817 502.324 319.817 475.499C319.817 470.685 319.129 465.412 317.755 459.909C317.755 459.909 317.755 459.451 317.755 459.222C317.755 457.846 318.671 456.7 320.046 456.47C321.649 456.012 323.253 457.158 323.482 458.534C325.086 464.495 325.773 470.226 325.773 475.27C325.773 502.782 308.362 519.748 305.384 522.728C300.802 539.465 278.58 567.894 260.939 588.299C262.085 593.801 261.627 597.011 261.627 600.221C261.627 603.66 263.459 609.621 264.834 613.747C265.063 614.665 265.292 615.352 265.521 616.04C266.667 619.708 264.376 641.718 263.001 647.679C261.856 653.869 250.63 663.04 245.361 666.937C241.924 669.459 242.841 671.752 243.528 673.128C243.528 673.128 247.881 669.23 252.921 669.459C258.19 669.689 263.23 667.854 270.561 672.211C277.892 676.337 282.016 678.63 283.391 683.674C284.307 687.113 284.994 689.406 284.994 689.406C284.994 689.406 290.034 683.215 290.493 679.318C290.493 679.318 301.489 672.21 307.446 671.752C313.631 671.064 320.733 673.357 321.42 676.567C321.42 676.567 322.108 669.918 318.213 666.02C316.38 664.186 313.402 661.894 313.402 661.894C313.402 661.894 316.838 659.142 318.9 661.206C318.9 661.206 318.213 654.786 315.235 654.557C312.257 654.328 298.74 654.328 293.929 654.328C289.118 654.328 279.725 652.494 277.434 646.762C275.372 641.03 276.747 619.021 279.496 616.499C280.641 615.582 281.558 615.352 282.474 615.123C284.078 615.123 285.223 615.811 285.452 616.499C285.452 616.499 287.285 610.079 289.805 607.787C291.638 605.952 302.635 593.343 308.591 577.753C320.046 577.753 329.897 576.148 337.457 571.333C347.766 564.684 357.617 558.494 362.428 560.099C362.428 560.099 364.032 551.845 358.992 549.782C358.992 549.782 367.698 536.714 370.447 530.294C373.196 523.875 377.549 523.875 377.09 527.314C376.861 530.753 374.112 544.05 391.065 542.445C391.065 542.445 388.087 539.694 387.629 536.026C387.629 532.358 383.734 503.012 386.254 497.051C388.774 490.86 392.44 481.46 394.731 480.773C397.251 480.085 398.625 480.543 400 481.69C400 481.69 397.938 475.729 394.273 475.27M183.963 532.816C170.905 546.343 165.407 551.845 162.657 555.972C162.657 555.972 158.305 559.182 160.596 561.016C162.658 562.85 177.549 565.831 191.982 564.684C184.651 573.626 175.258 588.757 173.196 599.991C170.905 612.83 177.778 625.211 184.192 627.274C190.378 629.338 196.334 627.733 201.145 622.23C207.331 614.894 209.851 595.865 209.851 595.865C209.851 595.865 219.702 595.865 228.179 595.865C220.16 553.68 205.956 516.08 198.855 500.948C197.48 511.953 193.814 522.728 183.963 533.045" fill="black"/>
<path d="M473.998 244.628C473.998 244.628 472.623 245.774 471.707 246.462C471.02 247.15 469.874 247.379 469.416 248.067C468.729 248.755 468.5 249.672 467.812 250.359C467.354 251.047 467.125 252.194 466.667 252.881C466.209 253.798 465.521 254.486 465.063 255.403C464.605 256.32 464.605 257.237 464.376 258.155C464.376 258.384 464.376 258.613 464.147 259.072H477.434V242.564C477.434 242.564 476.747 243.252 476.518 243.481C475.831 243.94 474.685 243.94 473.769 244.628M465.979 276.037C465.979 276.037 467.583 276.954 468.27 277.642C468.729 278.33 469.416 278.789 470.103 279.476C470.79 280.164 471.249 280.852 471.936 281.54C472.623 282.228 473.311 282.686 474.227 283.145C474.914 283.603 475.143 284.979 476.06 285.437C476.518 285.667 476.976 285.667 477.434 285.667V275.579H465.979V276.037M492.555 291.398C493.7 297.13 493.929 299.881 492.784 303.091H503.551C503.551 299.881 504.926 295.754 508.591 291.169H508.82V275.579H492.325V291.398H492.555ZM504.238 236.603C504.238 236.603 502.176 236.145 501.26 236.145C500.573 236.145 499.886 236.374 498.969 236.374C498.053 236.374 497.366 235.686 496.449 235.916C495.533 236.145 494.845 236.603 493.929 236.833C493.471 236.833 493.013 236.833 492.325 236.833V258.842H508.82V236.374C508.82 236.374 507.675 235.686 506.987 235.457C506.071 235.457 504.926 236.603 503.78 236.603M523.941 285.667C523.941 285.667 525.315 284.979 526.002 284.52C526.919 284.062 527.606 283.603 528.522 283.145C529.21 282.686 530.355 282.457 531.042 281.769C531.73 281.081 531.959 279.935 532.417 279.247C533.104 278.559 533.792 277.871 534.25 277.184C534.708 276.496 536.083 276.267 536.541 275.35H523.941V285.437V285.667ZM538.144 256.32C538.144 256.32 537.228 254.945 536.77 254.028C536.541 253.34 535.395 252.881 534.937 252.194C534.479 251.506 534.937 250.13 534.25 249.442C533.792 248.755 532.875 248.296 532.188 247.608C531.501 246.92 530.584 246.691 529.897 246.233C529.21 245.545 528.293 245.316 527.606 244.628C526.919 244.169 526.231 243.481 525.315 243.023C524.857 242.564 524.17 242.335 523.711 241.877V258.613H537.915C537.915 258.613 537.915 256.779 537.915 256.091" fill="black"/>
<path d="M233.448 717.147V734.342H237.342V727.235H244.444V724.254H237.342V720.357H245.59V717.147H233.448Z" fill="black"/>
<path d="M255.441 731.591C258.878 731.591 260.023 728.61 260.023 725.859C260.023 722.879 258.648 719.898 255.441 719.898C252.234 719.898 250.859 722.649 250.859 725.859C250.859 728.61 252.005 731.591 255.441 731.591ZM255.441 716.688C260.71 716.688 263.918 720.586 263.918 725.859C263.918 731.132 260.71 734.8 255.441 734.8C250.172 734.8 246.965 730.903 246.965 725.859C246.965 720.815 250.172 716.688 255.441 716.688" fill="black"/>
<path d="M270.103 724.713H274.227C275.83 724.713 276.747 724.025 276.747 722.191C276.747 720.357 275.83 719.898 274.227 719.898H270.103V724.713ZM266.208 716.918H275.372C278.35 716.918 280.412 718.981 280.412 721.732C280.412 723.796 279.496 725.171 277.663 726.088C279.496 726.547 279.954 728.381 280.183 730.215C280.183 731.362 280.183 733.425 280.871 734.342H276.976C276.976 734.342 276.518 731.591 276.289 730.215C276.06 728.381 275.372 727.693 273.539 727.693H269.645V734.342H265.75V717.147L266.208 716.918Z" fill="black"/>
<path d="M289.118 717.147V720.357H294.158V734.342H298.053V720.357H303.093V717.147H289.118Z" fill="black"/>
<path d="M315.922 717.147V723.566H309.049V717.147H305.155V734.342H309.049V726.776H315.922V734.342H319.588V717.147H315.922Z" fill="black"/>
<path d="M323.024 717.147V734.342H336.083V731.132H326.69V726.776H334.937V724.025H326.69V720.357H335.853V717.147H323.024Z" fill="black"/>
<path d="M354.639 727.922L356.472 729.756C356.472 729.756 357.617 727.464 357.617 725.859C357.617 722.878 356.472 719.898 353.035 719.898C349.599 719.898 348.454 722.878 348.454 725.859C348.454 728.61 349.828 731.591 353.035 731.591C353.494 731.591 354.181 731.591 354.639 731.361L353.035 729.986L354.868 728.152L354.639 727.922ZM359.45 735.947L356.93 733.654C356.93 733.654 354.41 734.571 352.806 734.571C347.537 734.571 344.33 730.674 344.33 725.63C344.33 720.586 347.537 716.459 352.806 716.459C358.076 716.459 361.283 720.357 361.283 725.63C361.283 728.152 360.366 730.215 358.992 732.049L361.054 733.883L359.221 735.717L359.45 735.947Z" fill="black"/>
<path d="M378.465 727.693C378.465 732.279 375.716 734.571 371.134 734.571C366.552 734.571 363.803 732.279 363.803 727.693V716.918H367.469V727.693C367.469 729.527 367.927 731.362 370.905 731.362C373.654 731.362 374.341 730.215 374.341 727.693V716.918H378.236V727.693H378.465Z" fill="black"/>
<path d="M381.672 717.147V734.342H394.731V731.132H385.567V726.776H393.814V724.025H385.567V720.357H394.502V717.147H381.672Z" fill="black"/>
<path d="M397.251 717.147V734.342H410.309V731.132H401.146V726.776H409.393V724.025H401.146V720.357H410.08V717.147H397.251Z" fill="black"/>
<path d="M423.826 717.147V728.61L416.495 717.147H412.829V734.342H416.495V722.649L423.597 734.342H427.491V717.147H423.826Z" fill="black"/>
<path d="M430.47 730.444H434.364V734.113C434.364 736.405 432.761 737.781 430.699 738.01V736.405C430.699 736.405 432.532 735.259 432.302 734.113H430.47V730.444V730.444Z" fill="black"/>
<path d="M442.612 717.147V720.357H447.881V734.342H451.547V720.357H456.816V717.147H442.612Z" fill="black"/>
<path d="M469.416 717.147V723.566H462.543V717.147H458.648V734.342H462.543V726.776H469.416V734.342H473.311V717.147H469.416Z" fill="black"/>
<path d="M476.518 717.147V734.342H489.576V731.132H480.412V726.776H488.66V724.025H480.412V720.357H489.347V717.147H476.518Z" fill="black"/>
<path d="M498.74 717.147V734.342H510.882V731.132H502.635V717.147H498.74Z" fill="black"/>
<path d="M519.588 721.274L521.878 727.464H517.526L519.817 721.274H519.588ZM517.755 717.147L511.34 734.342H515.235L516.609 730.444H523.024L524.398 734.342H528.293L521.878 717.147H517.984H517.755Z" fill="black"/>
<path d="M546.392 717.147L543.413 728.84L540.664 717.147H536.999L534.021 728.84L531.271 717.147H527.606L531.959 734.342H535.853L538.832 722.649L541.81 734.342H545.475L550.057 717.147H546.392Z" fill="black"/>
<path d="M549.828 730.444H553.494V734.113C553.494 736.405 551.89 737.781 549.828 738.01V736.405C549.828 736.405 551.661 735.259 551.432 734.113H549.599V730.444H549.828Z" fill="black"/>
<path d="M569.989 721.274L572.05 727.464H567.698L569.989 721.274ZM568.156 717.147L561.741 734.342H565.636L567.01 730.444H573.425L574.8 734.342H578.694L572.28 717.147H568.385H568.156Z" fill="black"/>
<path d="M590.836 717.147V728.61H590.607L583.505 717.147H579.84V734.342H583.276V722.649H583.505L590.607 734.342H594.273V717.147H590.836Z" fill="black"/>
<path d="M601.375 731.132H604.811C607.102 731.132 609.164 729.757 609.164 726.088C609.164 722.649 608.018 720.357 604.124 720.357H601.375V731.132ZM597.709 717.147H605.04C609.393 717.147 612.829 719.898 612.829 725.63C612.829 730.674 610.309 734.342 605.04 734.342H597.709V717.147Z" fill="black"/>
<path d="M620.848 717.147V720.357H625.888V734.342H629.782V720.357H634.822V717.147H620.848Z" fill="black"/>
<path d="M647.423 717.147V723.566H640.55V717.147H636.884V734.342H640.55V726.776H647.423V734.342H651.317V717.147H647.423Z" fill="black"/>
<path d="M654.525 717.147V734.342H667.583V731.132H658.419V726.776H666.667V724.025H658.419V720.357H667.583V717.147H654.525Z" fill="black"/>
<path d="M680.641 725.171H683.62C685.223 725.171 686.827 724.713 686.827 722.649C686.827 720.586 685.223 720.127 683.62 720.127H680.641V725.171ZM676.747 717.147H684.536C688.889 717.147 690.492 719.898 690.492 722.649C690.492 725.401 688.889 728.152 684.536 728.152H680.641V734.342H676.747V717.147V717.147Z" fill="black"/>
<path d="M692.783 717.147V734.342H705.842V731.132H696.678V726.776H704.926V724.025H696.678V720.357H705.613V717.147H692.783Z" fill="black"/>
<path d="M716.151 731.591C719.588 731.591 720.733 728.61 720.733 725.859C720.733 722.879 719.359 719.898 716.151 719.898C712.944 719.898 711.569 722.649 711.569 725.859C711.569 728.61 712.944 731.591 716.151 731.591ZM716.151 716.688C721.421 716.688 724.628 720.586 724.628 725.859C724.628 731.132 721.421 734.8 716.151 734.8C710.882 734.8 707.675 730.903 707.675 725.859C707.675 720.815 710.882 716.688 716.151 716.688" fill="black"/>
<path d="M731.042 725.171H734.021C735.624 725.171 737.228 724.713 737.228 722.649C737.228 720.586 735.624 720.127 734.021 720.127H731.042V725.171ZM727.148 717.147H734.937C739.29 717.147 740.893 719.898 740.893 722.649C740.893 725.401 739.29 728.152 734.937 728.152H731.042V734.342H727.148V717.147V717.147Z" fill="black"/>
<path d="M743.184 717.147V734.342H755.326V731.132H747.079V717.147H743.184Z" fill="black"/>
<path d="M757.388 717.147V734.342H770.447V731.132H761.283V726.776H769.53V724.025H761.283V720.357H770.218V717.147H757.388Z" fill="black"/>
<path d="M776.632 745.576H225.2V705.913H776.861V745.576H776.632ZM779.61 699.952H219.244V751.537H782.589V699.952H779.61V699.952Z" fill="black"/>
<path d="M813.746 564.455L807.56 563.997L811.455 568.811C819.015 578.211 827.72 592.884 829.553 602.972C831.615 614.894 824.971 625.899 820.39 627.274C814.891 628.879 810.08 627.503 806.186 622.918C801.604 617.416 798.625 602.972 798.167 597.928V595.635H795.418C795.418 595.635 785.567 595.865 777.32 595.635C784.88 557.577 797.022 523.646 804.353 507.138C805.956 517.455 810.08 527.543 819.244 537.402L827.262 545.655C834.593 553.221 838.259 557.119 840.321 560.099V560.558H841.008C841.008 560.558 841.924 561.704 842.153 562.162C839.175 563.309 826.804 565.831 813.517 564.684M724.857 366.139L716.609 369.349L698.282 376.915C699.198 374.164 699.427 371.871 699.427 370.266C699.427 369.349 699.427 368.661 699.427 368.661L698.969 364.764L695.533 366.598C695.533 366.598 692.554 367.973 690.034 364.993C686.827 361.325 690.951 354.447 696.449 349.173C702.635 343.442 709.507 342.295 718.9 345.734C724.628 347.798 729.668 353.759 733.333 361.783C729.897 363.388 724.399 365.91 724.399 365.91M637.801 489.026L639.633 493.841C639.633 493.841 646.506 509.431 647.194 511.265C647.194 511.953 648.797 520.436 648.797 520.436L650.172 528.46V530.982C650.172 530.982 650.172 531.67 649.943 532.128C649.485 531.899 648.797 531.211 648.11 530.294C646.277 528.231 639.404 517.226 637.113 508.743C635.052 500.948 633.906 494.529 633.906 489.026C633.906 488.338 633.906 487.88 633.906 487.192C633.906 487.192 634.135 483.065 634.364 479.397C635.51 482.836 636.655 485.817 637.572 488.568M847.194 561.704C847.194 558.953 844.903 557.119 843.757 556.201C841.466 552.992 837.801 548.865 830.47 541.299L822.451 533.046C812.142 522.27 808.706 510.807 807.789 497.738L810.538 492.695C816.495 482.378 824.055 469.768 822.68 448.217C821.535 428.5 810.997 406.49 790.836 380.583C787.4 376.227 783.963 373.246 780.756 371.183C781.672 369.349 782.589 367.056 782.589 367.056C786.025 359.49 790.607 349.403 790.607 337.022C790.607 331.52 789.691 325.788 787.4 319.369C777.778 293.232 755.097 287.73 742.497 286.813C728.293 285.896 712.715 291.169 704.467 294.379C698.511 296.671 690.493 301.486 684.078 305.383L676.976 309.51L673.31 311.115C667.125 313.866 657.503 317.764 651.088 326.476C643.528 336.335 642.383 344.588 642.383 349.173C642.383 350.778 642.383 351.695 642.612 352.383C642.612 352.612 640.55 359.261 640.55 359.261L639.404 362.7C638.259 365.681 636.426 371.412 635.51 372.788C633.906 375.539 632.99 378.978 632.99 382.646C632.99 384.939 633.677 389.524 636.197 390.9C637.343 391.588 638.488 391.359 639.633 390.9C639.633 390.9 641.237 389.295 641.924 388.607L643.07 387.232L647.194 382.876C650.172 380.812 659.336 373.246 664.605 364.764C667.125 364.076 677.434 361.325 682.703 354.676L690.263 343.442L697.365 332.896C701.031 328.31 715.006 313.637 736.312 314.783C747.766 315.242 753.723 320.057 756.472 323.954C758.992 327.164 760.137 330.832 760.137 333.354C760.137 334.042 760.137 334.5 760.137 334.959C759.221 339.086 757.159 348.486 738.144 359.032C735.166 352.383 729.668 343.9 720.504 340.461C709.278 336.335 700.115 337.939 692.554 345.047C683.391 353.759 680.871 362.7 685.682 368.203C688.431 371.183 691.18 372.1 693.7 371.871C693.7 373.705 693.013 376.227 691.18 379.207C679.267 384.251 673.081 387.461 669.187 390.442L668.041 391.359C659.107 398.007 635.739 416.119 631.844 442.714C630.928 448.217 630.699 453.031 630.699 457.387C630.699 462.89 631.157 467.246 632.073 471.373C631.615 470.914 630.699 469.997 630.47 469.768C630.241 466.329 628.637 461.973 626.117 458.305C622.222 452.573 613.287 456.929 612.371 457.387L609.622 460.139L613.746 462.431L614.204 464.036L615.578 467.246C615.578 467.246 616.495 470.685 616.495 473.207C616.495 473.665 616.495 474.124 616.495 474.582C614.891 474.582 613.288 474.582 611.455 474.582H609.851C604.582 475.27 602.062 482.148 601.833 482.836L603.666 483.524C603.666 483.524 606.415 484.67 608.476 485.358C610.309 486.504 613.746 495.446 615.349 499.114L615.808 500.031C616.953 503.012 616.495 514.704 614.433 534.65V537.86C613.975 540.382 611.684 542.445 611.684 542.445L607.331 546.572L613.288 547.031C619.473 547.489 624.284 546.343 627.262 543.363C630.011 540.611 630.699 536.714 630.699 533.504C630.699 532.358 630.699 531.67 630.699 530.753C631.157 531.211 631.615 532.128 632.302 533.275C634.593 538.319 640.092 547.26 642.841 551.158C640.779 553.45 640.092 556.66 640.092 559.411C640.092 560.558 640.092 561.704 640.321 562.621L640.779 565.601L643.528 564.684C647.423 563.538 658.877 570.875 666.208 575.689C673.31 580.275 682.703 582.567 694.845 582.567C701.26 597.699 711.798 610.079 713.631 611.913C715.006 613.289 716.609 617.416 717.297 619.708L718.9 625.669C718.9 625.669 721.191 621.543 721.879 620.396C722.566 620.396 723.711 620.855 723.711 620.855C725.544 623.377 723.711 642.864 722.108 648.138C723.711 648.596 725.773 649.284 727.606 649.742C729.439 642.864 731.042 620.167 727.148 616.728L722.566 614.665C722.566 614.665 721.649 614.665 720.962 614.894C720.046 612.601 718.9 609.621 717.068 607.787C715.235 605.952 704.696 593.572 698.74 578.67L698.053 577.065H696.22C684.307 577.065 675.372 575.231 668.729 571.104C658.419 564.455 650.63 559.64 644.674 559.411C644.674 557.348 645.132 554.826 646.735 554.138L649.714 552.762L647.881 550.241C647.881 550.241 639.175 537.172 636.655 531.211C634.135 525.25 630.47 523.875 627.95 524.563C626.346 525.021 624.742 526.397 624.742 528.919V530.294C624.742 530.294 625.2 532.358 625.2 533.733C625.2 535.797 624.742 538.089 623.139 539.694C622.222 540.841 620.389 541.299 618.557 541.528C619.015 540.611 619.244 539.465 619.473 538.089V535.109C620.848 525.021 621.764 514.704 621.764 507.138C621.764 503.012 621.535 499.802 620.848 497.968L620.389 497.051C615.808 485.817 613.517 481.002 610.538 480.085C610.538 480.085 610.767 479.856 610.997 479.856H612.829C614.433 479.626 617.411 479.168 618.098 479.626L621.764 482.378L622.222 477.792C622.222 477.792 622.451 475.27 622.451 472.978C622.451 469.997 622.222 466.558 620.848 464.495L619.702 461.973C619.702 461.973 619.244 461.285 619.015 460.826C620.389 460.597 621.764 460.368 622.222 461.056C624.742 464.724 625.888 468.622 625.888 470.914V471.831L626.346 472.519C627.491 474.124 628.637 475.041 629.324 475.729C629.324 478.251 628.408 486.963 628.408 486.963C628.408 487.651 628.408 488.338 628.408 489.026C628.408 494.987 629.553 502.094 631.844 510.119C634.364 519.06 641.695 530.982 643.986 533.733C646.277 536.485 648.339 537.631 650.401 537.631L653.608 536.255L655.441 531.441V527.085V527.772L654.296 519.06L652.463 509.431V508.973L644.674 491.548L642.841 486.504C638.946 477.104 634.364 465.183 637.572 443.173C641.008 418.641 663.23 401.676 671.707 395.256L672.852 394.339C676.289 391.588 682.245 388.607 693.471 383.793L718.213 373.476L726.46 370.037L738.373 364.534C758.992 353.759 763.574 343.442 765.178 335.647C765.865 332.208 765.178 326.018 760.825 320.286C757.159 315.471 750.057 309.74 736.541 309.052C713.402 307.905 698.74 322.808 693.242 329.227L685.911 340.232L678.809 351.008C673.998 356.969 662.772 359.49 662.772 359.49H661.627L660.939 360.637C656.128 368.89 646.735 376.456 644.444 378.061L639.175 383.334L638.717 384.022C638.717 384.022 638.717 383.105 638.717 382.417C638.717 379.666 639.404 377.144 640.55 375.31C641.695 373.705 643.07 369.349 644.903 364.076L646.048 360.866L648.568 352.383V351.466C648.568 351.466 648.339 350.549 648.339 348.715C648.339 345.047 649.485 338.169 656.128 329.227C661.627 321.891 670.332 317.993 676.289 315.471L680.183 313.637L687.514 309.281C693.471 305.842 701.718 300.798 707.217 298.735C715.006 295.525 729.668 290.481 742.726 291.627C754.181 292.545 774.57 297.359 783.276 320.744C790.149 339.315 783.276 353.759 778.465 364.305L776.632 368.432C768.385 365.222 760.596 367.056 755.326 368.432C747.079 370.266 737.228 374.622 731.271 378.978C723.253 384.939 721.42 394.339 721.42 401.676C721.42 406.261 722.108 410.158 722.337 411.534C723.482 416.578 727.377 419.788 730.355 421.393C729.439 422.539 728.522 423.914 727.377 425.749C726.46 427.583 726.002 429.188 725.773 430.793C719.129 428.271 708.591 427.583 698.969 427.353H692.784C692.784 427.353 690.951 426.666 690.493 429.417C690.034 432.168 692.554 432.397 692.554 432.397H698.74C708.133 433.085 722.108 433.544 726.46 436.983L731.73 441.109L730.813 434.461C730.813 434.461 730.355 431.48 732.188 428.041C734.021 424.373 736.083 422.539 736.083 422.539L739.29 419.788L735.395 418.183C735.395 418.183 728.751 415.432 727.606 410.388C727.148 408.554 723.711 390.9 734.479 383.105C739.748 379.207 749.141 375.081 756.701 373.476C764.948 371.642 776.174 368.89 787.629 383.563C807.102 408.324 817.182 429.646 818.328 448.217C818.328 449.822 818.328 451.197 818.328 452.802C818.328 469.997 812.142 480.314 806.644 489.714L802.978 496.592C797.709 506.68 780.985 546.802 771.363 597.24V598.616C770.218 602.972 769.53 607.099 768.843 608.933C761.054 601.367 710.653 545.655 705.155 522.499V521.582L704.238 521.124C704.238 521.124 685.223 504.616 685.223 477.792C685.223 472.978 685.911 467.704 687.285 461.973C687.285 461.973 687.973 459.68 685.452 459.222C682.932 458.534 682.245 460.826 682.245 460.826C680.641 466.787 680.183 472.29 680.183 477.563C680.183 505.075 697.595 522.041 700.573 524.792C704.696 540.611 725.315 567.436 742.497 587.611V588.299C740.893 594.031 741.123 597.47 741.123 600.221V602.055C741.123 605.494 738.832 612.372 738.144 614.894V615.811L737.457 617.186C737.457 617.186 736.999 619.938 736.999 622.001C736.999 630.713 738.832 645.157 739.748 648.138C741.352 653.411 746.85 657.308 747.079 657.537C749.599 658.225 748.225 654.098 750.286 654.557C749.37 653.181 747.079 650.43 745.934 647.22C744.788 644.011 742.268 628.191 742.268 621.543C742.268 620.167 742.268 619.25 742.497 618.791L743.184 616.499C744.788 611.455 746.621 605.952 746.621 602.055V599.991C746.621 599.991 746.621 598.387 746.621 597.699C746.621 596.323 746.621 594.489 747.079 592.426C757.847 604.577 766.323 613.518 767.239 613.977C769.072 615.123 770.447 614.894 771.363 614.435C774.112 613.289 775.029 609.162 776.861 599.762C783.047 599.762 790.149 599.762 793.814 599.762C794.731 605.035 797.48 618.791 802.749 625.211C808.018 631.401 814.891 633.464 822.451 631.172C829.095 629.108 835.739 618.333 835.739 606.64C835.739 604.806 835.739 602.972 835.281 601.138C833.448 591.279 826.346 578.67 819.473 569.04C831.844 569.27 844.444 566.977 847.423 564.684C848.339 563.767 848.797 562.621 848.797 561.475" fill="black"/>
<path d="M498.511 408.783L493.242 406.49V413.368L498.511 411.076L496.678 414.515C495.304 415.202 493.929 415.432 492.783 415.661C489.118 415.89 488.66 414.973 488.202 414.515C487.285 412.91 489.118 409.929 491.409 410.617C491.409 410.617 490.722 406.49 486.598 409.241C486.598 409.241 486.598 404.656 483.62 403.968C481.558 406.261 483.62 410.388 483.62 410.388C478.809 410.388 480.641 414.285 480.641 414.285C482.245 412.451 485.452 413.597 485.452 415.661C485.452 416.807 481.787 418.183 479.038 417.266C476.289 416.119 473.998 409.7 474.685 408.554C479.496 400.988 490.493 397.549 491.867 396.861C493.471 396.402 494.387 396.861 494.616 397.549C494.845 398.237 496.449 401.676 497.594 404.198H495.762L498.282 409.012L498.511 408.783ZM501.489 408.783L503.78 404.198H501.947C503.093 401.676 504.467 398.237 504.696 397.549C504.926 396.861 505.842 396.173 507.446 396.861C509.049 397.32 519.817 400.759 524.628 408.554C525.315 409.7 523.024 416.119 520.275 417.266C517.526 418.183 513.86 417.036 513.86 415.661C513.86 413.597 517.068 412.451 518.671 414.285C518.671 414.285 520.504 410.388 515.693 410.388C515.693 410.388 517.755 407.407 515.693 405.115C512.715 405.802 512.715 409.471 512.715 409.471C508.591 406.72 507.904 410.846 507.904 410.846C510.195 410.158 512.027 413.139 511.111 414.744C510.882 415.202 510.195 416.349 506.529 415.89C505.384 415.89 504.009 415.432 502.635 414.744L501.031 411.534L506.071 413.598V406.719L501.031 408.783H501.489ZM467.812 406.032C467.812 406.032 466.896 408.095 467.812 409.012C468.499 409.929 468.958 409.929 469.874 410.846C470.561 411.534 472.852 424.602 473.31 425.978C473.769 427.354 473.769 429.188 473.769 429.188C473.769 429.188 473.539 431.48 474.456 432.627C475.143 433.314 476.747 433.314 476.976 433.773C477.205 434.232 476.976 434.919 479.267 434.461C481.329 434.002 489.805 430.793 500.115 430.793C510.424 430.793 518.9 434.002 520.962 434.461C523.024 434.919 523.024 434.461 523.253 433.773C523.482 433.314 525.086 433.314 525.773 432.627C526.69 431.71 526.46 429.188 526.46 429.188C526.46 429.188 526.46 427.354 526.919 425.978C527.377 424.602 529.668 411.534 530.355 410.846C531.042 410.158 531.501 409.929 532.417 409.012C533.104 408.095 532.646 406.719 532.417 406.032C522.566 394.339 510.424 390.442 502.405 389.524L501.26 386.773L504.467 388.149V383.564L501.26 384.939L502.635 381.959H498.053L499.656 385.168L496.449 383.793V388.378L499.656 386.773L498.511 389.295C490.493 389.524 478.121 394.11 468.27 406.032M531.73 628.191C537.686 622.689 537.686 619.021 537.686 619.021C535.624 616.957 527.835 615.582 527.835 615.582C529.897 619.708 525.086 622.689 525.086 622.689C531.501 622.918 531.73 627.962 531.73 627.962M467.125 618.333C467.583 621.313 473.081 626.816 473.081 626.816C473.769 622.23 479.496 622.689 479.496 622.689C474.456 618.791 477.205 614.435 477.205 614.435C469.187 615.582 467.125 618.333 467.125 618.333M502.405 606.182C504.696 600.221 509.278 601.367 509.278 601.367C505.842 594.031 502.635 592.884 502.635 592.884C500.115 594.26 496.449 601.138 496.449 601.138C501.031 600.221 502.405 606.182 502.405 606.182M479.954 649.284C478.351 657.308 480.412 660.059 480.412 660.059C483.391 660.518 490.263 657.079 490.263 657.079C486.14 655.016 488.431 649.513 488.431 649.513C483.161 652.952 479.954 649.284 479.954 649.284ZM602.749 464.724C604.124 464.265 605.727 462.661 605.957 462.202C606.186 461.514 606.415 459.451 605.957 458.075C602.291 449.134 590.378 448.905 590.378 448.905C588.774 446.383 585.567 447.758 585.567 447.758C576.174 438.358 564.719 436.295 564.719 436.295C561.741 432.397 557.846 434.69 557.846 434.69C549.599 431.022 541.123 427.353 532.875 423.456C532.417 425.061 532.188 427.124 532.188 427.124C532.188 427.812 531.959 428.271 531.73 428.729C531.73 429.188 531.73 429.875 531.73 429.875C531.73 431.48 531.501 433.314 530.355 434.919C537.915 438.358 545.704 441.568 553.035 445.007C553.035 445.007 553.952 449.134 558.992 448.905C558.992 448.905 568.156 456.012 581.443 456.7C581.443 456.7 582.589 459.909 585.338 459.451C585.338 459.451 593.356 468.163 602.52 464.724M790.607 677.713C785.567 673.357 776.632 668.772 771.592 663.269C769.76 661.206 762.658 658.684 754.181 656.162C754.181 656.162 753.723 656.162 753.723 655.933C751.661 655.016 747.766 653.869 743.184 652.723C745.475 658.684 755.556 666.937 760.367 670.606C763.803 672.898 762.887 675.42 762.199 676.796C762.199 676.796 758.076 672.898 752.806 673.128C747.537 673.357 742.497 671.523 735.166 675.879C727.835 680.235 723.94 682.298 722.337 687.571C721.42 691.01 720.733 693.303 720.733 693.303C720.733 693.303 715.464 687.342 715.235 683.215C715.235 683.215 704.238 676.108 698.282 675.65C692.096 674.962 684.994 677.254 684.307 680.464C684.307 680.464 683.62 673.815 687.743 669.918C689.576 668.084 692.554 665.562 692.554 665.562C692.554 665.562 689.118 662.811 687.056 665.103C687.056 665.103 687.743 658.684 690.722 658.455C693.7 658.225 707.217 658.225 712.028 658.225C716.839 658.225 726.231 656.391 728.522 650.659C728.522 650.43 728.522 649.972 728.751 649.513C726.461 648.825 724.399 648.367 723.024 647.908C720.046 646.991 717.755 646.303 716.151 645.616C706.758 641.26 689.576 640.572 680.183 639.884L677.434 638.967V618.562H674.685C662.314 616.957 645.59 618.562 634.822 626.357H634.135C625.888 623.835 616.724 622.23 603.207 618.791C602.749 618.791 599.542 617.645 597.251 616.957C610.767 599.533 620.848 578.211 624.284 552.075H619.015C608.477 633.235 527.148 667.855 503.322 673.128C478.809 667.625 394.044 631.86 386.483 546.802H381.443C383.963 576.377 395.647 600.45 410.767 619.25C398.854 620.855 383.047 624.523 377.09 625.899C374.799 626.357 372.967 627.045 371.363 627.733H370.447C360.825 617.874 341.81 614.665 327.606 616.728L325.086 617.187V641.718C314.777 642.177 304.925 641.718 300.802 642.177C296.678 642.406 290.034 645.386 283.849 648.138C286.369 649.513 290.263 650.43 293.7 650.43H315.464C320.275 651.118 322.337 656.391 322.795 661.206C322.795 661.206 323.024 664.416 323.482 667.625C325.086 670.606 325.773 673.815 325.773 675.65C325.773 676.567 325.773 677.254 325.773 677.484L323.253 684.591L317.755 678.172C317.755 678.172 312.715 675.879 308.133 676.337C304.696 676.567 298.282 680.006 294.158 682.528C292.783 686.884 289.118 691.469 288.431 692.615L283.391 698.576L279.954 685.279C279.038 682.069 276.747 680.693 270.332 676.796L268.958 676.108C264.605 673.586 261.397 673.815 257.503 673.815H253.15C250.401 673.815 247.652 675.65 246.735 676.337L242.612 680.006L240.092 675.191C238.03 671.064 239.175 666.937 243.299 663.957C245.361 662.352 247.652 660.518 249.714 658.913C249.255 658.913 248.797 659.142 248.339 659.142C241.924 660.518 226.804 669.918 218.098 673.128C209.164 676.337 196.105 683.215 196.563 687.571C197.251 691.928 206.873 707.976 218.098 711.186C219.473 711.644 220.848 711.874 221.993 712.103V702.474H283.391C316.609 695.596 352.806 683.445 356.014 667.167C356.014 667.167 344.559 660.976 331.501 662.123V640.801C331.501 636.674 331.501 625.669 331.501 622.23C342.497 621.084 356.472 623.377 364.49 629.796C364.49 629.796 364.719 630.025 364.948 630.255C365.865 631.401 369.759 636.216 369.759 639.196V698.806C369.759 698.806 369.072 700.41 367.698 702.474H635.968C634.593 700.41 633.906 698.806 633.906 698.806V639.196C633.906 637.362 635.281 634.84 636.655 633.006C644.674 625.669 659.565 623.147 672.165 623.835C672.165 626.128 672.165 632.089 672.165 636.903V662.123C659.107 660.976 647.652 667.167 647.652 667.167C650.859 683.445 687.056 695.825 720.275 702.474H780.985V716.688C782.589 715.771 783.963 714.854 785.109 713.937C792.898 710.04 799.313 699.264 800.687 694.449C802.52 688.489 796.105 682.298 791.065 677.942M536.77 402.822L537.228 403.968C567.239 389.066 593.356 375.998 595.876 374.851C601.604 372.1 605.04 365.681 605.04 365.681C605.04 365.681 597.938 364.305 592.211 367.056C589.691 368.203 561.054 381.042 529.21 395.485C531.959 397.549 534.479 400.071 536.77 402.822M425.43 380.125C423.597 379.895 422.451 376.456 424.513 374.851C424.513 374.851 420.389 372.329 419.931 377.603C419.931 377.603 416.953 375.081 414.204 376.915C414.662 380.125 418.557 380.583 418.557 380.583C414.891 384.481 419.473 385.856 419.473 385.856C419.015 383.105 422.451 381.729 424.055 383.105C425.659 384.481 424.513 387.92 422.68 389.524C420.619 391.588 417.182 392.046 414.891 390.9C410.538 389.066 409.393 382.417 412.142 375.998C414.891 369.808 420.618 366.139 424.971 367.973C427.262 368.89 429.095 371.871 429.095 374.622C429.095 377.144 427.262 380.125 425.2 379.895M453.837 385.627C452.921 382.417 450.172 384.251 450.172 384.251C446.506 379.207 439.633 377.373 439.633 377.373C438.946 376.227 437.113 375.081 435.51 374.164C434.822 368.89 431.844 364.305 427.262 362.242C420.389 359.032 411.913 362.7 407.102 370.037C406.644 369.349 405.956 368.89 405.269 368.432C402.978 367.515 400.458 368.432 399.542 370.266C398.625 372.329 399.542 374.622 402.062 375.768C402.978 376.227 403.665 376.227 404.582 376.227C402.291 384.71 405.269 393.193 412.371 396.403C416.953 398.466 422.451 397.549 426.804 394.568C428.408 395.027 430.47 395.715 431.844 395.485C431.844 395.485 437.801 399.383 443.986 398.695C443.986 398.695 444.444 401.905 447.423 400.529C447.423 400.529 451.546 405.802 457.732 404.198C457.732 404.198 459.565 404.885 463.001 406.49C463.459 405.115 464.376 402.822 464.376 402.822C466.896 399.841 469.416 397.32 471.936 395.256C466.667 392.734 463.459 391.129 463.459 391.129C460.481 385.398 453.837 385.856 453.837 385.856M407.331 464.265C408.935 463.578 410.08 462.431 410.767 461.056C412.142 461.285 413.975 461.056 416.037 461.056C418.328 460.597 435.052 453.261 442.841 449.822C446.277 455.095 451.546 461.744 455.899 464.265C462.543 467.934 465.292 466.787 466.667 464.495C467.812 462.202 465.979 458.305 460.71 455.783C457.503 454.178 453.608 450.739 450.63 447.07C454.754 445.007 462.772 440.88 471.707 436.524C471.478 436.524 471.019 436.295 471.019 436.066C470.561 435.836 470.561 435.378 470.332 434.919C469.187 433.314 468.728 431.251 468.728 430.105C468.728 430.105 468.728 429.875 468.728 429.417C468.728 428.958 468.27 427.353 468.27 427.353L467.354 423.227C457.503 427.583 448.797 431.71 444.215 433.773C443.299 429.188 443.07 423.915 443.986 420.476C445.132 414.744 443.528 410.846 441.008 410.388C438.488 409.929 435.739 411.534 434.364 418.871C433.448 423.915 435.281 432.168 437.113 438.129C429.324 442.256 413.287 450.509 411.455 452.114C409.851 453.49 408.706 454.866 408.018 456.241C406.644 456.012 405.04 456.241 403.436 456.7C400.458 458.075 398.854 461.056 400 463.348C401.145 465.641 404.353 466.1 407.331 464.724M507.446 638.05C503.322 640.801 497.824 639.884 494.845 635.986C492.096 631.86 492.783 626.357 496.907 623.377C500.802 620.396 506.529 621.543 509.278 625.44C512.027 629.338 511.34 635.069 507.216 638.05M527.606 627.962C526.002 625.669 520.046 627.962 518.213 628.879L514.777 629.338L512.715 627.274C512.715 627.274 512.486 625.44 512.715 624.523C513.402 623.606 514.548 622.918 516.151 622.689C517.984 622.689 524.169 620.855 524.169 618.104C524.169 615.811 521.649 611.455 517.755 608.704C513.86 605.952 509.049 604.806 506.987 605.494C504.467 606.411 504.467 612.601 504.926 614.665C505.155 616.04 504.926 617.416 504.009 618.562C503.322 619.25 502.405 619.708 501.489 619.479L498.969 618.104L498.511 614.665C498.969 612.83 499.198 606.411 496.678 605.494C494.616 604.806 489.805 605.723 485.911 608.704C482.016 611.684 479.496 615.811 479.496 617.874C479.496 620.626 485.682 622.46 487.514 622.689L490.493 624.294L490.951 627.045C490.951 627.045 490.034 628.879 489.118 629.108C487.972 629.567 486.598 629.338 485.223 628.65C483.62 627.733 477.434 625.44 476.06 627.733C474.685 629.567 474.227 634.382 475.601 638.967C477.205 643.552 480.183 647.22 482.474 647.908C484.994 648.825 488.66 643.552 489.576 641.718C490.263 640.342 491.18 639.425 492.554 639.196C493.471 639.196 494.387 639.196 495.304 639.884L496.449 642.406L494.845 645.386C493.7 646.303 490.722 650.201 490.722 652.723C490.722 653.181 490.722 653.64 491.18 654.099C492.554 655.933 496.907 657.996 501.718 657.996C506.529 657.996 511.111 655.933 512.486 654.328C512.715 654.099 512.944 653.411 512.944 653.181C512.944 650.659 509.966 646.991 508.82 645.845L507.216 642.635L508.362 640.113C508.362 640.113 510.195 639.196 511.111 639.425C512.257 639.655 513.402 640.572 513.86 641.947C514.777 643.781 518.213 649.055 520.733 648.367C523.024 647.679 526.231 644.011 527.606 639.425C529.21 634.84 528.751 630.025 527.606 628.191M525.315 571.333V559.641H532.646C535.853 563.997 538.144 568.123 539.29 571.333H525.086H525.315ZM525.315 551.845C526.46 552.763 527.606 553.909 528.751 554.826H525.315V551.845ZM520.733 554.826H505.842V543.363C511.569 544.28 516.38 546.114 520.733 548.636V554.826ZM520.733 571.104H505.842V559.411H520.733V571.104ZM501.26 554.826H486.369V549.553C490.493 547.031 495.304 544.738 501.26 543.821V555.055V554.826ZM501.26 571.104H486.369V559.411H501.26V571.104ZM481.787 554.826H479.954C479.954 554.826 481.1 553.68 481.787 552.992V554.826ZM481.787 571.104H468.958C470.332 567.894 472.394 563.767 475.83 559.411H481.787V571.104V571.104ZM595.189 597.699V577.065C595.189 577.065 595.418 575.689 597.251 575.231C597.251 575.231 597.251 575.231 597.251 575.001C597.251 574.543 597.251 573.855 596.793 573.397C594.044 568.123 591.753 560.558 591.753 559.87L589.462 514.704C589.462 510.577 593.356 505.075 594.044 504.158V491.09C594.044 491.09 593.356 490.402 593.127 490.402H589.233C589.233 490.402 588.316 490.86 588.316 490.402V491.548H585.338C585.338 491.548 585.338 489.943 584.88 489.943H580.527V495.675H574.112V489.943H569.301V491.319H568.614L566.781 491.778H566.094V490.631C566.094 490.631 566.094 490.173 565.178 490.173H561.741C561.741 490.173 560.596 490.631 560.596 490.86V503.929L564.261 509.89H558.763C558.763 509.89 556.93 509.89 556.701 510.119V515.851H547.079V510.119H539.061H538.144V515.851H528.751V493.841C528.751 490.402 531.959 482.836 531.959 482.836V469.08C531.959 467.246 530.126 466.787 530.126 466.787H521.879C520.504 466.787 520.275 467.704 520.275 468.163V472.519H517.297V466.558C517.297 466.558 516.609 465.641 516.151 465.641L508.82 466.1V472.519H499.198V471.373L498.74 465.641H491.867C491.867 465.641 490.722 465.641 490.722 466.558V472.519H487.743V468.163C487.743 468.163 487.514 466.787 486.14 466.787H478.121C478.121 466.787 476.06 467.246 476.06 469.08V482.378C476.06 482.378 479.038 490.402 479.267 493.841V515.851H469.645V510.119H460.939V515.851H451.317V509.89H443.757C443.757 509.89 446.964 504.616 447.423 503.929V490.86C447.423 490.86 446.735 490.173 446.506 490.173H442.612C442.612 490.173 441.695 490.631 441.695 490.173V491.319H438.717C438.717 491.319 438.717 489.714 438.259 489.714H433.906V495.446H427.491V489.714H422.451V491.09H421.764L419.931 491.548H419.244V490.402C419.244 490.402 419.015 489.943 418.328 489.943H414.891C414.891 489.943 413.746 490.402 413.746 490.631V503.699C413.746 503.699 418.328 510.119 418.328 514.246C418.328 514.246 416.037 559.411 415.808 559.641C415.808 559.87 413.517 567.665 410.767 572.709C410.309 573.397 410.309 574.543 410.309 574.543C412.142 574.772 412.6 575.689 412.6 576.377V597.011H448.568V590.821H466.438C466.438 588.757 466.438 575.46 466.438 575.46H481.1V579.357H478.809L483.391 587.382L488.202 579.357H485.911V575.231H500.802V579.357H498.511L503.093 587.382L507.675 579.357H505.384V575.231H520.275V579.357H517.984L522.566 587.382L527.148 579.357H524.857V575.231H540.664V575.918C540.664 575.918 540.893 588.987 541.123 591.05H558.992V597.24H594.96L595.189 597.699ZM380.985 452.344H386.025V442.714C386.025 397.32 386.025 364.534 385.796 355.593H619.931C619.931 364.534 619.702 397.32 619.702 442.714V453.031H624.742C624.742 393.651 624.971 353.53 624.971 353.071V350.32H380.527V353.071C380.527 353.071 380.756 393.193 380.756 452.344M512.944 657.996C520.046 661.894 523.253 660.747 523.253 660.747C524.628 657.996 523.253 650.43 523.253 650.43C520.046 653.64 515.464 649.972 515.464 649.972C517.068 656.162 512.715 657.996 512.715 657.996" fill="black"/>
<path d="M500.114 903.312C277.663 903.312 97.5945 722.879 97.5945 500.49C97.5945 278.101 277.663 97.4384 500.114 97.4384C722.566 97.4384 902.634 277.871 902.634 500.26C902.634 722.649 722.337 903.082 500.114 903.082M500.114 0C223.826 0 0 223.994 0 500.49C0 776.986 223.826 1000.98 500.114 1000.98C776.403 1000.98 1000.23 776.986 1000.23 500.49C1000.23 223.994 776.174 0 500.114 0Z" fill="black"/>
<path d="M208.935 1293.29H255.212L238.488 1208.24C237.572 1203.19 236.426 1196.31 235.052 1188.98C233.677 1176.14 233.219 1169.72 232.532 1152.98C231.615 1169.72 230.928 1176.83 229.553 1188.98C228.179 1195.86 227.033 1202.73 226.117 1208.24L208.935 1293.29V1293.29ZM169.301 1095.21H294.845L385.109 1451.49H284.536L265.75 1360.7H199.084L180.298 1451.49H79.7251L169.53 1095.21H169.301Z" fill="black"/>
<path d="M615.349 1168.11C599.084 1162.61 587.171 1160.78 574.341 1160.78C526.002 1160.78 504.696 1195.86 504.696 1275.87C504.696 1355.88 526.46 1386.61 575.258 1386.61C591.065 1386.61 607.331 1383.17 626.117 1374.23L634.593 1442.32C604.582 1452.63 578.236 1457.68 551.661 1457.68C456.357 1457.68 402.52 1391.42 402.52 1274.95C402.52 1158.49 457.274 1089.71 550.515 1089.71C576.174 1089.71 601.375 1094.06 627.033 1103.46L615.12 1168.11H615.349Z" fill="black"/>
<path d="M667.812 1095.21H920.504V1162.84L843.528 1169.26V1451.26H743.872V1169.26L667.812 1162.38V1095.21Z" fill="black"/>
<path d="M154.868 1511.1C145.934 1504.91 137.915 1502.16 129.439 1502.16C119.588 1502.16 110.653 1507.2 106.3 1516.14C101.718 1525.08 99.6565 1536.55 99.6565 1555.81C99.6565 1573.23 101.489 1582.86 105.613 1591.8C109.966 1600.74 118.442 1605.56 129.897 1605.56C136.77 1605.56 142.268 1604.18 148.912 1600.74V1560.62H121.879V1547.78H166.552V1610.83C149.37 1617.71 139.748 1620 128.293 1620C95.9909 1620 79.4961 1598.68 79.4961 1556.03C79.4961 1513.39 95.9909 1488.4 127.377 1488.4C139.29 1488.4 149.599 1491.84 160.596 1499.41L154.639 1511.33L154.868 1511.1Z" fill="black"/>
<path d="M200.458 1573.23C200.458 1595.7 207.56 1607.39 221.077 1607.39C234.593 1607.39 241.466 1595.47 241.466 1573.23C241.466 1550.99 234.364 1539.3 221.077 1539.3C207.789 1539.3 200.458 1550.99 200.458 1573.23ZM221.077 1526.69C246.277 1526.69 259.336 1542.51 259.336 1573.23C259.336 1603.95 246.277 1620 221.077 1620C195.876 1620 182.589 1604.18 182.589 1573.23C182.589 1542.28 195.647 1526.69 221.077 1526.69Z" fill="black"/>
<path d="M281.787 1526.92L301.489 1593.18C302.405 1595.7 303.093 1599.37 303.78 1604.41C304.467 1599.37 305.613 1594.78 306.071 1593.18L325.086 1528.98H342.268L313.86 1617.71H292.554L264.146 1528.98L281.787 1526.69V1526.92Z" fill="black"/>
<path d="M363.803 1567.5H403.665V1567.04C403.665 1549.16 396.793 1539.53 384.192 1539.53C371.592 1539.53 364.032 1549.62 363.574 1567.5M364.948 1578.96C366.323 1596.61 376.632 1606.47 393.127 1606.47C399.083 1606.47 405.269 1605.33 413.746 1602.12L416.953 1614.73C407.56 1617.94 398.396 1619.77 389.461 1619.77C361.97 1619.77 346.392 1602.35 346.392 1572.31C346.392 1544.11 360.596 1527.15 384.192 1527.15C407.789 1527.15 419.931 1542.97 419.931 1571.4C419.931 1573.23 419.931 1575.52 419.931 1579.19H365.177L364.948 1578.96Z" fill="black"/>
<path d="M435.51 1528.98L452.234 1528.29V1535.4C459.794 1529.44 465.063 1527.38 474.227 1527.38L472.394 1543.42C469.874 1542.97 468.729 1542.97 466.667 1542.97C461.168 1542.97 456.816 1544.11 452.234 1547.55V1617.71H435.51V1528.98V1528.98Z" fill="black"/>
<path d="M484.994 1528.98L501.489 1526.69V1534.94C510.882 1528.98 518.9 1526.23 527.377 1526.23C535.853 1526.23 543.185 1528.75 547.996 1533.57C553.036 1538.61 554.868 1544.11 554.868 1555.58V1617.48H538.144V1559.47C538.144 1556.03 538.144 1553.28 537.457 1551.45C536.312 1544.8 530.126 1540.22 521.879 1540.22C515.464 1540.22 509.049 1542.74 501.718 1547.78V1617.48H484.994V1528.75V1528.98Z" fill="black"/>
<path d="M574.341 1528.98L591.065 1527.15V1533.8C599.313 1528.75 606.186 1526.46 613.746 1526.46C621.306 1526.46 628.179 1528.75 632.761 1533.11C634.135 1534.25 634.822 1535.17 636.426 1537.46C645.59 1530.36 654.525 1526.92 663.688 1526.92C671.707 1526.92 678.809 1529.67 683.62 1534.71C688.431 1539.99 690.263 1545.03 690.263 1556.72V1617.71H673.539V1560.39C673.539 1556.72 673.539 1553.97 673.081 1551.91C671.936 1545.26 665.75 1540.44 657.961 1540.44C652.005 1540.44 646.735 1542.97 640.55 1548.47V1617.94H624.055V1560.85C624.055 1556.26 624.055 1553.97 623.826 1552.14C622.909 1545.49 616.495 1540.44 608.247 1540.44C602.291 1540.44 597.251 1542.28 591.523 1547.09V1617.71H574.8V1528.98H574.341Z" fill="black"/>
<path d="M722.795 1567.5H762.887V1567.04C762.887 1549.16 756.014 1539.53 743.414 1539.53C730.813 1539.53 723.253 1549.62 722.795 1567.5M724.17 1578.96C725.544 1596.61 735.853 1606.47 752.348 1606.47C758.305 1606.47 764.49 1605.33 772.967 1602.12L776.174 1614.73C766.781 1617.94 757.617 1619.77 748.683 1619.77C721.191 1619.77 705.613 1602.35 705.613 1572.31C705.613 1544.11 719.817 1527.15 743.414 1527.15C767.01 1527.15 779.152 1542.97 779.152 1571.4C779.152 1573.23 779.152 1575.52 779.152 1579.19H724.399L724.17 1578.96Z" fill="black"/>
<path d="M794.731 1528.98L811.226 1526.69V1534.94C820.619 1528.98 828.637 1526.23 837.113 1526.23C845.59 1526.23 852.921 1528.75 857.732 1533.57C863.001 1538.61 864.605 1544.11 864.605 1555.58V1617.48H847.881V1559.47C847.881 1556.03 847.652 1553.28 847.194 1551.45C846.048 1544.8 839.863 1540.22 831.386 1540.22C824.971 1540.22 818.557 1542.74 811.226 1547.78V1617.48H794.502V1528.75L794.731 1528.98Z" fill="black"/>
<path d="M875.372 1528.98H886.369V1514.31L903.093 1511.56V1528.98H920.504V1540.22L903.093 1541.82V1595.01C903.093 1598.45 903.093 1600.05 903.093 1601.2C903.322 1604.87 906.529 1607.16 911.111 1607.16C913.86 1607.16 916.609 1606.47 920.275 1605.33V1617.48C915.693 1619.08 910.882 1620 905.842 1620C898.969 1620 893.471 1618.17 890.034 1614.96C887.285 1611.98 886.14 1607.62 886.14 1600.05V1541.59L875.143 1540.67V1529.44L875.372 1528.98Z" fill="black"/>
</g>
<defs>
<clipPath id="clip0_16_2">
<rect width="1000" height="1620" fill="white"/>
</clipPath>
</defs>
</svg>
