<?xml version="1.0" encoding="UTF-8"?><svg id="Layer_2" xmlns="http://www.w3.org/2000/svg" viewBox="0 0 111.16 56.69"><g id="Layer_1-2"><g><path d="M32.48,19.81s0-.02,0-.03c-.01-.22-.18-.43-.33-.5-.13-.06-.39-.03-.64,.03,.06,.07,.11,.15,.14,.21l.04,.06,.05,.11c.03,.09,.08,.21,.18,.31h.51c.03-.06,.05-.12,.05-.19"/><path d="M31.59,19.75l-.03-.08-.04-.07c-.05-.08-.11-.2-.23-.29l-.05-.03c-.15-.08-.84-.16-1.29-.02,.08,.08,.15,.18,.19,.25l.04,.06,.05,.11c.03,.09,.08,.21,.19,.31h1.31c-.06-.09-.1-.18-.13-.25"/><path d="M30.06,19.75l-.03-.08h0l-.04-.07c-.06-.1-.13-.23-.28-.32-.15-.08-.84-.16-1.29-.02,.08,.09,.15,.18,.19,.25l.03,.06,.05,.11c.03,.09,.08,.21,.19,.31h1.31c-.06-.09-.1-.18-.13-.25"/><path d="M28.54,19.75l-.03-.08-.04-.07c-.05-.1-.13-.23-.27-.32-.15-.08-.84-.16-1.3-.02,.09,.09,.15,.18,.19,.25l.04,.06,.05,.11c.03,.09,.08,.21,.18,.31h1.31c-.07-.09-.11-.18-.13-.25"/><path d="M27.02,19.75l-.03-.08-.04-.07c-.05-.1-.13-.23-.28-.32-.15-.08-.85-.16-1.31-.01,.08,.08,.14,.16,.18,.22l.04,.06,.06,.11c.04,.1,.11,.25,.27,.34h1.24c-.06-.09-.1-.18-.13-.25"/><path d="M25.47,19.71l-.03-.07-.04-.07c-.06-.09-.13-.2-.25-.28l-.05-.03c-.18-.08-.47-.02-.65,.13-.06,.05-.07,.13-.08,.19v.02c0,.13,.06,.28,.14,.39h1.14c-.09-.1-.14-.21-.17-.28"/><path d="M30.28,11.41h0c-.25,.1-.59-.02-.59-.14,0-.2,.3-.3,.44-.13,0,0,.18-.37-.28-.37,0,0,.2-.27,.02-.48-.27,.06-.28,.4-.28,.4-.37-.25-.44,.12-.44,.12,.22-.05,.39,.22,.3,.37-.03,.05-.08,.14-.42,.11-.1,0-.24-.04-.36-.1l-.15-.3,.48,.2v-.63l-.48,.19,.22-.42h-.17c.1-.23,.24-.45,.26-.51,.03-.07,.11-.12,.25-.07,.14,.05,1.15,.37,1.59,1.07,.06,.1-.15,.6-.4,.7m-2.18-.21h0c-.12,.06-.27,.09-.36,.1-.34,.03-.39-.06-.42-.11-.09-.14,.08-.42,.3-.37,0,0-.07-.38-.44-.12,0,0,0-.34-.28-.4-.18,.21,.02,.48,.02,.48-.46,0-.28,.37-.28,.37,.15-.17,.45-.07,.44,.13,0,.11-.33,.23-.59,.14-.25-.1-.46-.6-.4-.7,.45-.7,1.46-1.02,1.6-1.07,.14-.05,.23,0,.25,.07,.02,.06,.16,.28,.26,.51h-.17l.23,.43-.49-.2v.63l.49-.21-.16,.31Zm3.26-.71c-.91-1.09-2.04-1.45-2.78-1.53l-.11-.25,.29,.14v-.43l-.29,.13,.13-.29h-.43l.14,.29-.3-.14v.43l.3-.14-.11,.24c-.75,.03-1.88,.45-2.79,1.54-.05,.05-.09,.19-.02,.27,.07,.08,.11,.1,.18,.17,.07,.07,.28,.51,.32,.64,.04,.12,.05,.3,.05,.3,0,0-.03,.22,.06,.31,.07,.07,.21,.06,.23,.11,.03,.04,.02,.1,.21,.06,.19-.05,.97-.34,1.93-.34,.96,0,1.74,.29,1.93,.34,.19,.04,.18-.02,.21-.06,.03-.05,.16-.04,.24-.11,.09-.09,.06-.31,.06-.31,0,0,0-.18,.05-.3,.04-.12,.25-.57,.32-.64,.07-.07,.11-.09,.18-.17,.07-.08,.03-.22-.02-.27"/><path d="M29.56,15.43h1.3v1.93h-1.3v-1.93Zm-1.81,0h1.31v1.93h-1.31v-1.93Zm-1.81,0h1.31v1.93h-1.31v-1.93Zm0-2.52h1.31v1.95h-1.31v-1.95Zm2.45,0h.66v1.95h-1.31v-1.95h.64Zm2.47,1.95h-1.3v-1.95h1.3v1.95Zm-2.43-2.52h-4.23v.42s.42,0,.78,.19c.29,.16,.42,.49,.46,.6v4.79h-.25l.5,.86,.5-.86h-.25v-.42h1.31v.42h-.25l.5,.86,.5-.86h-.25v-.42h1.31v.42h-.25l.5,.86,.5-.86h-.25v-.42h1.3v.42h-.25l.5,.86,.5-.86h-.25v-4.8c.04-.12,.17-.44,.46-.59,.36-.2,.78-.19,.78-.19v-.42h-4.17Z"/><path d="M24.53,12.91h0c0-.15,.12-.27,.27-.27s.27,.12,.27,.27-.12,.27-.27,.27-.27-.12-.27-.27m-.21,0c0,.26,.22,.48,.48,.48s.48-.22,.48-.48-.21-.48-.48-.48-.48,.21-.48,.48"/><path d="M24.54,13.59h0c.09,.01,.16,.02,.25,.03-.02,.12-.05,.34-.06,.46-.09-.01-.16-.02-.25-.03,.01-.12,.04-.34,.06-.46m-.2-.14l-.1,.78,.68,.09,.12-.89-.68-.09v.11Z"/><path d="M24.43,14.59h0c.09,0,.16,0,.25,0,0,.12,0,.32-.01,.44-.09,0-.16,0-.25,0v-.44m-.2-.11l-.03,.76,.68,.02,.03-.87-.68-.02v.11Z"/><path d="M24.64,15.54h0c0,.12,0,.34,0,.46h-.25c0-.12,0-.34,0-.46,.09,0,.16,0,.25,0m.11-.21h-.57v.9h.69v-.9h-.11Z"/><path d="M24.36,16.48h0c.09,0,.16,.02,.25,.03-.01,.12-.04,.34-.05,.46-.09,0-.16-.02-.25-.03,.01-.12,.04-.34,.05-.46m-.2-.13l-.08,.78,.68,.07,.09-.89-.68-.07v.11Z"/><path d="M24.22,17.45h0c.08,.02,.16,.04,.24,.06-.03,.12-.08,.33-.11,.45-.09-.02-.16-.04-.25-.06,.03-.12,.08-.33,.11-.45m-.19-.15l-.18,.77,.66,.16,.2-.87-.66-.16-.02,.1Z"/><path d="M23.94,18.38h0c.08,.04,.14,.08,.22,.12-.06,.11-.16,.3-.22,.41-.08-.04-.14-.08-.22-.12,.06-.11,.16-.3,.22-.41m-.14-.2l-.37,.69,.6,.32,.42-.79-.6-.32-.05,.1Z"/><path d="M23.21,19.46h0c0-.15,.12-.27,.26-.27s.27,.12,.27,.27-.12,.27-.27,.27-.26-.12-.26-.27m-.22,0c0,.26,.22,.48,.48,.48s.48-.22,.48-.48-.21-.48-.48-.48-.48,.22-.48,.48"/><path d="M32.06,13.18h0c-.15,0-.27-.12-.27-.27s.12-.27,.27-.27,.27,.12,.27,.27-.12,.27-.27,.27m0-.75c-.26,0-.48,.21-.48,.48s.21,.48,.48,.48,.48-.22,.48-.48-.22-.48-.48-.48"/><path d="M32.37,14.05h0c-.09,.01-.16,.02-.25,.03-.02-.12-.05-.34-.06-.46,.09-.01,.16-.02,.25-.03,.02,.12,.04,.34,.06,.46m.12-.7l-.68,.09,.12,.89,.67-.09-.1-.78v-.11Z"/><path d="M32.44,15.03h0c-.09,0-.17,0-.25,0,0-.12-.01-.32-.01-.44,.09,0,.16,0,.25,0,0,.12,.01,.32,.02,.44m.19-.66l-.68,.02,.03,.87,.68-.02-.02-.76v-.11Z"/><path d="M32.46,15.54h0c0,.12,0,.34,0,.46h-.25c0-.12,0-.34,0-.46,.09,0,.16,0,.25,0m-.47-.22v.89h.68v-.89h-.68Z"/><path d="M32.54,16.94h0c-.09,.01-.16,.02-.25,.03-.01-.12-.04-.34-.05-.46,.09-.01,.16-.02,.25-.03,.01,.12,.03,.34,.05,.46m.14-.7l-.68,.07,.09,.89,.68-.07-.08-.78v-.11Z"/><path d="M32.74,17.9h0c-.09,.02-.16,.04-.24,.06-.03-.12-.08-.33-.11-.45,.09-.02,.16-.04,.25-.06,.03,.12,.08,.33,.11,.45m.05-.71l-.66,.16,.21,.87,.66-.16-.18-.77-.03-.1Z"/><path d="M33.13,18.79h0c-.08,.04-.14,.08-.22,.12-.06-.11-.16-.3-.22-.41,.08-.04,.14-.08,.22-.12,.06,.11,.16,.3,.22,.41m-.12-.7l-.61,.32,.42,.79,.6-.32-.37-.69-.05-.1Z"/><path d="M33.38,19.72h0c-.15,0-.27-.12-.27-.27s.12-.27,.27-.27,.27,.12,.27,.27-.12,.27-.27,.27m0-.75c-.27,0-.48,.22-.48,.48s.22,.48,.48,.48,.48-.22,.48-.48-.22-.48-.48-.48"/><path d="M15.53,20.31l.65,.3,.47,.19,.84,.34c-.07-.23-.05-.4-.05-.4,0,0,.26,.16,.5-.12,.24-.28,.02-.72-.38-1.11-.4-.38-.86-.43-1.43-.22-.38,.14-.66,.48-.86,.87,.08,.05,.16,.1,.26,.15"/><path d="M22.32,26.91h0c-.21-.02-.43-.05-.5,.02,0,0-.05-.48,.05-.68,.1-.19,.08-.33,.24-.34,0,0-.43-.22-.59,0-.15,.23-.24,.48-.24,.64,0,0-.14,.19-.21,.19,0,0,.03,.38,.05,.73,.02,.34-.05,.78-.19,1.26-.14,.48-.53,1.14-.65,1.28-.09,.1-.24,.23-.32,.14-.03-.05-.05-.11-.06-.18-.02-.1-.01-.15,0-.18,.02-.26,.11-.56,.17-1,.16-.32,.33-.68,.44-1,.22-.62,.64-1.3,.42-2.82-.22-1.52-1.65-2.55-2.05-2.86-.22-.17-.6-.36-1.21-.62-.47-.2-1.09-.45-1.87-.77-.25-.1-.47-.21-.67-.31-1.18-.62-1.37-1.2-1.45-1.53-.08-.38,.25-1.27,1.48-1.32,1.23-.06,2.05,.75,2.33,1.09,.28,.34,.52,.85,.83,1.24,.3,.38,1,.53,1,.53,.28,.49,.84,.93,.98,1.03,.08,.06,.18,.17,.27,.28l.06,.08s-.01-.02-.02-.03c.05,.06,.1,.11,.12,.13,.07,.04,.14-.15,.14-.33s-.05-.35-.12-.48c-.08-.13-.25-.65-.31-.79-.05-.13-.1-.35-.12-.42v-.02s.15-.58-.46-1.38c-.43-.57-1.13-.77-1.41-.92-.28-.15-1.06-.65-1.54-.85-.48-.19-1.32-.47-2.08-.42-.76,.06-1.92,.38-2.42,1.74-.46,1.25,.12,2.21,.37,2.79,.53-.26,1.02-.15,1.35-.07,.47,.11,1.03,.35,1.37,.6,.47,.34,.57,.88,.57,1.3,0,.27-.04,.48-.06,.57-.06,.29-.28,.46-.44,.56,.05,.07,.1,.14,.16,.24,.05,.1,.07,.19,.09,.26,.35-.13,.87-.16,1.5-.18l.35-.02c.09,0,.17,.07,.18,.16,0,.09-.06,.17-.16,.17l-.36,.02c-.53,.02-1.32,.05-1.56,.24l-.33,.26,.06-.42s.02-.16-.07-.35c-.1-.21-.22-.31-.22-.31l-.2-.18,.25-.1s.37-.15,.43-.43c.02-.11,.23-1.09-.38-1.53-.3-.22-.82-.45-1.25-.54-.46-.11-1.09-.26-1.73,.56-1.11,1.41-1.68,2.6-1.74,3.65,0,.09,0,.17,0,.25,0,.96,.35,1.56,.65,2.08l.22,.39c.29,.57,1.25,2.85,1.79,5.71l.02,.08c.04,.22,.08,.44,.12,.56,.52-.52,3.28-3.57,3.59-4.87v-.05l.06-.03c.05-.04,1.08-.93,1.08-2.45,0-.28-.03-.57-.11-.89,0-.01,0-.03,0-.04,0-.07,.05-.14,.13-.16,.09-.02,.18,.03,.2,.12,.08,.34,.12,.66,.12,.96,0,1.55-.98,2.52-1.16,2.68-.25,.94-1.52,2.55-2.52,3.71,.07,.32,.04,.49,.04,.67,0,.2,.11,.54,.18,.77,.02,.05,.03,.09,.04,.13,.07,.21-.07,1.45-.14,1.79-.07,.35-.7,.87-1,1.09-.19,.14-.14,.28-.1,.34,0,0,.24-.22,.53-.21,.29,.02,.59-.09,1,.16,.41,.24,.64,.36,.73,.65,.05,.19,.09,.33,.09,.33,0,0,.29-.34,.31-.57,0,0,.62-.4,.97-.43,.34-.03,.76,.08,.79,.28,0,0,.04-.37-.19-.6-.1-.1-.28-.24-.28-.24,0,0,.19-.15,.31-.03,0,0-.03-.37-.21-.38-.17-.02-.93-.02-1.21-.02s-.81-.1-.93-.43c-.12-.33-.03-1.57,.12-1.71,.06-.05,.11-.07,.16-.07,.09,0,.15,.04,.17,.07,0,0,.1-.37,.24-.5,.1-.1,.72-.82,1.07-1.7,.65,.01,1.21-.09,1.64-.37,.59-.38,1.14-.73,1.42-.64,0,0,.09-.47-.19-.59,0,0,.5-.74,.66-1.1,.16-.36,.4-.36,.38-.17-.02,.19-.17,.95,.79,.86,0,0-.17-.16-.19-.36-.02-.21-.22-1.86-.08-2.21,.14-.34,.34-.88,.48-.91,.14-.04,.23-.02,.29,.05,0,0-.12-.34-.33-.36m-11.92,3.26c-.73,.76-1.05,1.07-1.21,1.31,0,0-.24,.19-.12,.29,.12,.11,.97,.27,1.78,.2-.41,.51-.94,1.37-1.06,2-.13,.73,.26,1.43,.62,1.54,.35,.11,.7,.03,.96-.29,.35-.42,.5-1.5,.5-1.5,0,0,.56,.01,1.04,0-.46-2.39-1.26-4.52-1.66-5.38-.07,.63-.29,1.24-.84,1.82"/><path d="M26.86,13.86h0s-.08,.07-.12,.1c-.04,.03-.1,.05-.14,.09-.03,.04-.05,.09-.08,.13s-.04,.1-.06,.14c-.03,.05-.06,.09-.08,.14-.02,.05-.02,.11-.04,.16,0,.02,0,.03-.01,.05h.75v-.93s-.03,.05-.06,.06c-.05,.03-.11,.03-.15,.06m-.43,1.78h0s.09,.06,.12,.1c.03,.04,.07,.07,.1,.11,.03,.03,.06,.08,.1,.11,.04,.03,.08,.06,.13,.09,.04,.03,.06,.1,.1,.13,.02,.02,.05,.02,.08,.02v-.58h-.65s0,.02,0,.03m1.51,.87h0c.06,.32,.08,.48,.02,.66h.61c0-.19,.07-.41,.29-.68h.02v-.88h-.94v.9Zm.66-3.1h0c-.06,0-.11-.02-.17-.02-.04,0-.08,.02-.12,.02-.04,0-.1-.04-.14-.03-.05,0-.09,.04-.14,.05-.03,0-.06,0-.09,0v1.25h.94v-1.27s-.06-.04-.1-.05c-.06,0-.12,.06-.18,.06m1.15,2.78h0s.08-.04,.12-.06c.05-.03,.1-.05,.14-.08,.04-.03,.11-.04,.15-.08,.04-.04,.05-.11,.08-.14,.04-.04,.07-.07,.1-.11,.03-.04,.1-.06,.13-.1h-.71v.58Zm.81-1.66s-.05-.08-.07-.13c-.02-.04-.08-.06-.11-.1-.03-.04,0-.11-.04-.15-.03-.04-.08-.06-.11-.1-.04-.03-.09-.05-.13-.08-.04-.03-.08-.06-.12-.09-.04-.03-.08-.06-.12-.09-.03-.02-.06-.04-.1-.06v.95h.81s.01-.1,0-.14"/><polygon points="13.23 40.61 13.23 41.59 13.45 41.59 13.45 41.19 13.86 41.19 13.86 41.02 13.45 41.02 13.45 40.79 13.92 40.79 13.92 40.61 13.23 40.61"/><path d="M14.48,41.43h0c.19,0,.26-.16,.26-.33s-.07-.33-.26-.33-.26,.17-.26,.33,.07,.33,.26,.33m0-.84c.3,0,.48,.22,.48,.51s-.18,.51-.48,.51-.48-.22-.48-.51,.18-.51,.48-.51"/><path d="M15.32,41.06h.23c.1,0,.15-.04,.15-.14s-.05-.14-.15-.14h-.23v.27Zm-.21-.44h.52c.17,0,.29,.12,.29,.27,0,.12-.05,.2-.15,.24h0c.11,.03,.13,.13,.14,.23,0,.06,0,.18,.04,.23h-.21c-.03-.06-.02-.16-.03-.23-.02-.1-.05-.15-.16-.15h-.21v.38h-.21v-.97Z"/><polygon points="16.39 40.61 16.39 40.79 16.68 40.79 16.68 41.59 16.89 41.59 16.89 40.79 17.19 40.79 17.19 40.61 16.39 40.61"/><polygon points="17.91 40.61 17.91 40.99 17.51 40.99 17.51 40.61 17.3 40.61 17.3 41.59 17.51 41.59 17.51 41.17 17.91 41.17 17.91 41.59 18.12 41.59 18.12 40.61 17.91 40.61"/><polygon points="18.31 40.61 18.31 41.59 19.05 41.59 19.05 41.41 18.52 41.41 18.52 41.17 18.99 41.17 18.99 41 18.52 41 18.52 40.79 19.04 40.79 19.04 40.61 18.31 40.61"/><path d="M20.1,41.23h0l.11,.1s.06-.12,.06-.22c0-.17-.07-.33-.27-.33s-.26,.17-.26,.33,.07,.33,.26,.33c.03,0,.07,0,.09-.01l-.09-.08,.1-.11Zm.28,.45l-.14-.12c-.06,.04-.14,.06-.24,.06-.3,0-.48-.22-.48-.51s.18-.51,.48-.51,.48,.22,.48,.51c0,.14-.05,.27-.13,.36l.12,.11-.1,.1Z"/><path d="M21.45,41.22c0,.26-.16,.39-.42,.39s-.42-.13-.42-.39v-.61h.22v.61c0,.11,.03,.21,.2,.21,.15,0,.2-.07,.2-.21v-.61h.21v.61Z"/><polygon points="21.64 40.61 21.64 41.59 22.38 41.59 22.38 41.41 21.85 41.41 21.85 41.17 22.32 41.17 22.32 41 21.85 41 21.85 40.79 22.37 40.79 22.37 40.61 21.64 40.61"/><polygon points="22.52 40.61 22.52 41.59 23.26 41.59 23.26 41.41 22.74 41.41 22.74 41.17 23.21 41.17 23.21 41 22.74 41 22.74 40.79 23.25 40.79 23.25 40.61 22.52 40.61"/><polygon points="24.03 40.61 24.03 41.27 24.02 41.27 23.62 40.61 23.41 40.61 23.41 41.59 23.6 41.59 23.6 40.94 23.61 40.94 24.01 41.59 24.23 41.59 24.23 40.61 24.03 40.61"/><path d="M24.4,41.38h.21v.21c0,.12-.1,.21-.21,.23v-.1c.06,0,.1-.07,.1-.13h-.1v-.21Z"/><polygon points="25.09 40.61 25.09 40.79 25.39 40.79 25.39 41.59 25.6 41.59 25.6 40.79 25.89 40.79 25.89 40.61 25.09 40.61"/><polygon points="26.61 40.61 26.61 40.99 26.22 40.99 26.22 40.61 26 40.61 26 41.59 26.22 41.59 26.22 41.17 26.61 41.17 26.61 41.59 26.83 41.59 26.83 40.61 26.61 40.61"/><polygon points="27.01 40.61 27.01 41.59 27.75 41.59 27.75 41.41 27.23 41.41 27.23 41.17 27.7 41.17 27.7 41 27.23 41 27.23 40.79 27.74 40.79 27.74 40.61 27.01 40.61"/><polygon points="28.27 40.61 28.27 41.59 28.96 41.59 28.96 41.41 28.49 41.41 28.49 40.61 28.27 40.61"/><path d="M29.46,40.86h0l.12,.35h-.25l.13-.35Zm-.11-.24l-.37,.97h.21l.08-.22h.37l.07,.22h.22l-.37-.97h-.22Z"/><polygon points="30.97 40.61 30.81 41.29 30.81 41.29 30.64 40.61 30.44 40.61 30.27 41.28 30.27 41.28 30.11 40.61 29.9 40.61 30.16 41.59 30.38 41.59 30.54 40.93 30.54 40.93 30.71 41.59 30.92 41.59 31.18 40.61 30.97 40.61"/><path d="M31.16,41.38h.22v.21c0,.12-.1,.21-.21,.23v-.1c.06,0,.1-.07,.1-.13h-.1v-.21Z"/><path d="M32.31,40.86h0l.12,.35h-.25l.13-.35Zm-.11-.24l-.37,.97h.22l.08-.22h.36l.07,.22h.22l-.36-.97h-.22Z"/><polygon points="33.49 40.61 33.49 41.27 33.08 40.61 32.87 40.61 32.87 41.59 33.07 41.59 33.07 40.94 33.07 40.94 33.47 41.59 33.69 41.59 33.69 40.61 33.49 40.61"/><path d="M34.09,41.41h.19c.12,0,.24-.08,.24-.29,0-.2-.07-.32-.28-.32h-.15v.61Zm-.21-.79h.42c.25,0,.44,.16,.44,.48,0,.28-.15,.49-.44,.49h-.42v-.97Z"/><polygon points="35.19 40.61 35.19 40.79 35.48 40.79 35.48 41.59 35.69 41.59 35.69 40.79 35.99 40.79 35.99 40.61 35.19 40.61"/><polygon points="36.71 40.61 36.71 40.99 36.31 40.99 36.31 40.61 36.1 40.61 36.1 41.59 36.31 41.59 36.31 41.17 36.71 41.17 36.71 41.59 36.92 41.59 36.92 40.61 36.71 40.61"/><polygon points="37.11 40.61 37.11 41.59 37.85 41.59 37.85 41.41 37.32 41.41 37.32 41.17 37.79 41.17 37.79 41 37.32 41 37.32 40.79 37.83 40.79 37.83 40.61 37.11 40.61"/><path d="M38.58,41.07h.16c.1,0,.19-.02,.19-.15s-.09-.15-.19-.15h-.16v.29Zm-.21-.46h.44c.24,0,.34,.15,.34,.31s-.09,.31-.34,.31h-.22v.35h-.21v-.97Z"/><polygon points="39.28 40.61 39.28 41.59 40.02 41.59 40.02 41.41 39.49 41.41 39.49 41.17 39.96 41.17 39.96 41 39.49 41 39.49 40.79 40.01 40.79 40.01 40.61 39.28 40.61"/><path d="M40.6,41.43h0c.19,0,.26-.16,.26-.33s-.07-.33-.26-.33-.26,.17-.26,.33,.07,.33,.26,.33m0-.84c.3,0,.48,.22,.48,.51s-.18,.51-.48,.51-.48-.22-.48-.51,.18-.51,.48-.51"/><path d="M41.43,41.07h.17c.1,0,.19-.02,.19-.15s-.09-.15-.19-.15h-.17v.29Zm-.21-.46h.44c.24,0,.34,.15,.34,.31s-.09,.31-.34,.31h-.22v.35h-.21v-.97Z"/><polygon points="42.13 40.61 42.13 41.59 42.82 41.59 42.82 41.41 42.34 41.41 42.34 40.61 42.13 40.61"/><polygon points="42.94 40.61 42.94 41.59 43.68 41.59 43.68 41.41 43.15 41.41 43.15 41.17 43.62 41.17 43.62 41 43.15 41 43.15 40.79 43.67 40.79 43.67 40.61 42.94 40.61"/><path d="M44.03,42.23H12.76v-2.25h31.27v2.25Zm.16-2.58H12.42v2.92h31.94v-2.92h-.17Z"/><path d="M46.13,31.97h0l-.35-.03,.22,.27c.43,.53,.92,1.36,1.02,1.93,.12,.67-.26,1.29-.51,1.37-.31,.1-.59,.01-.8-.24-.26-.32-.42-1.13-.46-1.42l-.02-.13h-.14s-.56,.02-1.02,0c.42-2.16,1.12-4.07,1.53-5.02,.1,.58,.33,1.16,.85,1.71l.45,.47c.42,.43,.63,.65,.74,.82v.02l.04,.02s.05,.05,.07,.08c-.17,.07-.86,.21-1.63,.15m-5.02-11.25h0l-.46,.19-1.04,.43c.05-.15,.07-.29,.07-.37,0-.06,0-.09,0-.09l-.03-.22-.19,.11s-.17,.08-.31-.09c-.18-.2,.06-.6,.37-.9,.34-.33,.74-.39,1.28-.19,.32,.12,.61,.45,.82,.91-.19,.09-.5,.23-.5,.23m-4.9,6.97h0l.11,.28s.39,.88,.43,.99c0,.04,.1,.52,.1,.52l.07,.45v.15s0,.03-.01,.06c-.03-.02-.06-.04-.11-.1-.1-.11-.49-.74-.62-1.22-.12-.43-.19-.81-.19-1.11,0-.03,0-.07,0-.1,0,0,.02-.23,.03-.44,.06,.19,.12,.37,.19,.52m11.88,4.15h0c0-.15-.13-.26-.19-.32-.13-.19-.34-.41-.76-.84l-.45-.47c-.59-.61-.78-1.25-.83-2l.16-.29c.34-.58,.76-1.3,.69-2.52-.07-1.11-.66-2.36-1.81-3.83-.19-.24-.39-.41-.58-.53,.05-.11,.1-.24,.1-.24,.2-.42,.46-1,.46-1.7,0-.31-.05-.64-.18-1-.54-1.47-1.83-1.79-2.55-1.84-.8-.06-1.69,.24-2.15,.43-.33,.13-.78,.4-1.15,.62l-.4,.23-.21,.09c-.35,.15-.89,.38-1.26,.87-.43,.56-.5,1.03-.5,1.28,0,.09,0,.14,.01,.18,0,.02-.11,.39-.11,.39l-.07,.19c-.06,.17-.17,.49-.22,.57-.1,.15-.15,.35-.15,.56,0,.14,.04,.39,.18,.46,.06,.03,.13,.03,.19,0,0,0,.09-.1,.13-.13h0l.07-.08s.24-.24,.24-.24c.17-.12,.69-.54,.99-1.02,.15-.03,.73-.19,1.02-.57l.43-.64,.4-.59c.21-.25,1-1.09,2.21-1.03,.64,.03,.98,.3,1.15,.51,.15,.19,.2,.39,.2,.54,0,.03,0,.06,0,.09-.05,.23-.17,.77-1.25,1.36-.17-.37-.48-.86-.99-1.05-.64-.23-1.16-.15-1.59,.26-.52,.49-.67,.99-.39,1.31,.15,.17,.31,.22,.45,.21-.01,.11-.04,.25-.14,.41-.67,.29-1.02,.47-1.24,.64l-.06,.05c-.5,.38-1.82,1.4-2.04,2.91-.05,.31-.07,.59-.07,.84,0,.31,.03,.56,.08,.79-.03-.03-.07-.08-.09-.1-.02-.2-.11-.44-.25-.65-.23-.32-.72-.08-.78-.05l-.16,.16,.23,.13s.04,.08,.04,.08l.08,.18c.03,.06,.05,.2,.05,.34,0,.03,0,.05,0,.08-.08,0-.18,0-.28,.01h-.09c-.3,.03-.44,.43-.46,.47l.1,.04s.16,.07,.27,.1c.1,.07,.3,.57,.39,.78l.02,.05c.07,.17,.04,.83-.08,1.96l-.02,.18c-.01,.14-.14,.26-.14,.26l-.25,.23,.33,.03c.35,.03,.62-.04,.78-.21,.16-.16,.19-.38,.19-.55,0-.06,0-.11-.01-.16,.03,.03,.06,.07,.08,.14,.13,.29,.45,.79,.59,1.01-.11,.12-.15,.31-.15,.46,0,.07,0,.13,.01,.19l.03,.16,.16-.05c.22-.07,.87,.34,1.29,.62,.41,.26,.94,.39,1.63,.39,.37,.85,.95,1.55,1.06,1.66,.08,.08,.17,.31,.2,.44l.09,.33s.14-.24,.17-.29c.04,0,.11,.03,.11,.03,.1,.14,0,1.25-.09,1.55,.09,.02,.21,.07,.32,.09,.1-.39,.2-1.67-.02-1.87l-.26-.11s-.06,.01-.08,.02c-.05-.13-.12-.3-.22-.4-.11-.1-.7-.8-1.04-1.65l-.04-.1h-.1c-.67,.01-1.18-.1-1.55-.34-.58-.38-1.03-.65-1.36-.67h0c0-.12,.02-.26,.11-.3l.16-.07-.1-.15s-.5-.74-.64-1.08c-.15-.34-.35-.41-.49-.38-.09,.02-.18,.11-.18,.25v.08s.02,.11,.02,.19c0,.12-.02,.26-.11,.34-.06,.06-.16,.09-.27,.11,.02-.06,.04-.12,.05-.19l.02-.17c.06-.57,.11-1.16,.11-1.58,0-.23-.02-.42-.06-.52l-.02-.05c-.26-.64-.39-.91-.57-.95h0s.01-.02,.02-.02h.1c.1-.02,.26-.03,.3-.02l.21,.16,.03-.26s.01-.15,.01-.28c0-.16-.02-.36-.08-.48l-.06-.14s-.03-.04-.03-.07c.08-.02,.16-.02,.19,.02,.14,.2,.21,.43,.21,.55v.05l.03,.04c.07,.1,.12,.15,.17,.18-.01,.14-.05,.64-.05,.64,0,.04,0,.08,0,.12,0,.33,.07,.73,.2,1.19,.14,.5,.55,1.18,.69,1.33,.13,.15,.25,.22,.36,.22l.18-.07,.1-.27v-.25h0v.04l-.07-.49-.1-.54v-.03l-.44-.98-.11-.29c-.21-.53-.48-1.2-.3-2.46,.2-1.39,1.45-2.35,1.93-2.72l.06-.05c.19-.15,.53-.33,1.18-.6l1.41-.58,.46-.19,.68-.31c1.17-.61,1.43-1.19,1.52-1.63,.04-.2,0-.54-.25-.87-.21-.27-.61-.6-1.37-.63-1.31-.06-2.15,.78-2.45,1.14l-.42,.63-.41,.61c-.27,.34-.91,.48-.91,.48h-.06l-.03,.07c-.27,.46-.81,.89-.94,.98l-.3,.3s-.02,.02-.02,.03c0-.03-.01-.05-.01-.09,0-.15,.04-.29,.1-.39,.06-.1,.15-.33,.25-.63l.07-.19,.14-.48v-.06s-.02-.06-.02-.15c0-.2,.06-.6,.44-1.1,.32-.42,.81-.63,1.14-.77l.23-.1,.41-.24c.34-.2,.8-.48,1.11-.6,.44-.18,1.28-.46,2.01-.41,.65,.05,1.81,.33,2.29,1.64,.38,1.05,0,1.87-.27,2.47l-.1,.23c-.47-.18-.91-.08-1.21,0-.47,.11-1.03,.36-1.36,.6-.46,.33-.56,.87-.56,1.29,0,.27,.04,.48,.06,.57,.07,.29,.29,.46,.45,.56-.05,.07-.11,.14-.16,.25-.05,.11-.08,.2-.09,.29-.38-.15-.97-.18-1.52-.2l-.35-.02s-.11-.02-.13,.13c-.02,.15,.11,.17,.11,.17l.36,.02c.53,.02,1.33,.05,1.58,.24l.3,.24-.06-.38s-.02-.17,.07-.36c.11-.21,.23-.31,.23-.31l.18-.16-.23-.09s-.38-.15-.44-.45c-.02-.11-.23-1.1,.39-1.55,.3-.22,.83-.45,1.25-.55,.46-.11,1.1-.26,1.75,.57,1.11,1.41,1.68,2.61,1.75,3.66,0,.09,0,.17,0,.26,0,.97-.35,1.56-.65,2.09l-.22,.39c-.29,.57-1.25,2.84-1.79,5.7l-.02,.08c-.05,.25-.09,.48-.13,.59-.44-.43-3.31-3.59-3.61-4.89v-.05l-.05-.03c-.05-.04-1.08-.93-1.08-2.46,0-.28,.03-.57,.11-.89,0,0,.03-.13-.11-.16-.14-.03-.18,.09-.18,.09-.08,.34-.12,.65-.12,.95,0,1.56,.99,2.53,1.16,2.67,.24,.9,1.41,2.41,2.39,3.56v.04c-.09,.32-.08,.52-.08,.67v.11c0,.19-.12,.58-.17,.72l-.02,.05-.03,.08c-.02,.05-.03,.15-.03,.28,0,.49,.11,1.31,.16,1.48,.09,.29,.41,.52,.41,.53,.14,.04,.07-.2,.18-.16-.06-.08-.18-.23-.24-.42-.07-.18-.21-1.08-.21-1.45,0-.08,0-.14,.01-.16l.04-.13c.1-.29,.19-.6,.19-.82v-.12s0-.08,0-.13c0-.08,.01-.18,.03-.29,.61,.69,1.09,1.19,1.14,1.23,.1,.07,.18,.05,.23,.03,.16-.07,.21-.3,.31-.84,.35,.01,.76,0,.96,0,.05,.3,.21,1.08,.51,1.44,.29,.35,.69,.47,1.12,.33,.38-.12,.75-.73,.75-1.4,0-.1,0-.21-.03-.31-.1-.56-.51-1.28-.9-1.81,.7,.01,1.42-.11,1.58-.25,.05-.05,.08-.11,.08-.18"/><path d="M28.26,23.16h0l-.3-.12v.39l.3-.13-.1,.19c-.08,.04-.16,.06-.23,.06-.2,.02-.24-.04-.26-.07-.05-.09,.05-.26,.18-.22,0,0-.04-.23-.27-.08,0,0,0-.27-.17-.3-.11,.13,.01,.36,.01,.36-.28,0-.17,.23-.17,.23,.09-.11,.28-.04,.27,.08,0,.07-.21,.14-.36,.08-.16-.06-.28-.43-.25-.49,.28-.43,.89-.63,.98-.66,.09-.03,.14,0,.16,.04,.01,.04,.1,.24,.16,.38h-.1l.14,.26Zm.16,0h0l.13-.26h-.1c.06-.14,.15-.34,.16-.38,.02-.04,.07-.07,.16-.04,.08,.03,.7,.23,.98,.66,.04,.06-.09,.43-.25,.49-.15,.06-.36-.01-.36-.08,0-.12,.19-.18,.27-.08,0,0,.11-.23-.17-.23,0,0,.12-.16,.01-.3-.17,.04-.17,.24-.17,.24-.23-.15-.27,.08-.27,.08,.14-.03,.24,.14,.18,.22-.02,.03-.05,.09-.26,.07-.06,0-.15-.02-.22-.06l-.1-.18,.29,.12v-.39l-.29,.11Zm-1.91-.16h0s-.05,.12-.01,.16c.04,.05,.07,.06,.11,.1,.04,.04,.17,.78,.2,.86,.03,.08,.03,.18,.03,.18,0,0-.02,.14,.04,.19,.04,.04,.13,.04,.15,.06,.02,.03,.01,.06,.13,.04,.12-.03,.6-.21,1.18-.21,.59,0,1.07,.18,1.18,.21,.12,.03,.11-.01,.13-.04,.02-.03,.1-.02,.15-.06,.05-.06,.04-.19,.04-.19,0,0,0-.11,.03-.18,.03-.08,.16-.82,.2-.86,.05-.04,.07-.05,.11-.1,.04-.05,.02-.14-.01-.16-.56-.67-1.25-.89-1.71-.94l-.07-.15,.18,.08v-.26l-.18,.08,.08-.18h-.27l.09,.18-.18-.08v.26l.18-.08-.07,.15c-.46,.02-1.15,.28-1.71,.95m3.6,12.58h0c.33-.32,.34-.51,.34-.51-.12-.12-.56-.19-.56-.19,.12,.23-.16,.41-.16,.41,.36,.02,.38,.3,.38,.3m-3.67-.54h0c.03,.16,.34,.48,.34,.48,.04-.26,.37-.24,.37-.24-.28-.23-.14-.46-.14-.46-.45,.06-.57,.22-.57,.22m2-.69h0c.13-.34,.4-.27,.4-.27-.19-.41-.38-.48-.38-.48-.15,.07-.35,.47-.35,.47,.26-.05,.34,.28,.34,.28m-1.28,2.44h0c-.08,.45,.03,.61,.03,.61,.17,.03,.56-.18,.56-.18-.24-.11-.11-.42-.11-.42-.3,.2-.48-.01-.48-.01m6.97-10.45h0c.08-.03,.17-.12,.18-.15,.01-.04,.02-.16-.01-.24-.21-.51-.88-.51-.88-.51-.09-.14-.26-.07-.26-.07-.54-.53-1.18-.65-1.18-.65-.17-.22-.38-.1-.38-.1-.47-.2-.94-.42-1.41-.63l-.05,.2s-.01,.06-.02,.09c0,.02,0,.07,0,.07,0,.08-.02,.19-.08,.29,.43,.19,.87,.38,1.29,.57,0,0,.06,.24,.33,.22,0,0,.52,.4,1.27,.44,0,0,.06,.19,.23,.16,0,0,.45,.5,.97,.31m10.66,12.06h0c-.29-.25-.79-.5-1.07-.82-.11-.12-.5-.26-.98-.41-.01,0-.03-.01-.03-.02-.12-.05-.34-.11-.6-.18,.13,.34,.69,.81,.97,1.01,.19,.14,.14,.28,.1,.34,0,0-.24-.22-.53-.21-.29,.02-.59-.09-1,.15-.41,.24-.64,.36-.72,.65-.05,.19-.09,.33-.09,.33,0,0-.29-.34-.31-.57,0,0-.62-.4-.97-.43-.34-.03-.76,.09-.79,.28,0,0-.04-.37,.19-.6,.1-.1,.27-.24,.27-.24,0,0-.19-.16-.31-.03,0,0,.04-.36,.2-.38,.17-.02,.93-.02,1.21-.02s.81-.1,.93-.43c0-.02,.02-.04,.02-.07-.13-.03-.25-.06-.33-.08-.17-.05-.3-.1-.39-.14-.54-.25-1.5-.29-2.04-.32l-.15-.05v-1.15l-.16-.02c-.7-.07-1.65,.02-2.26,.46h-.04c-.47-.14-.99-.23-1.75-.43-.02,0-.21-.07-.34-.11,.76-.98,1.34-2.2,1.53-3.68h-.3c-.6,4.6-5.2,6.56-6.55,6.86-1.39-.31-6.19-2.34-6.62-7.16h-.29c.14,1.68,.8,3.04,1.66,4.11-.67,.1-1.57,.3-1.9,.38-.13,.03-.23,.07-.33,.1-.02,0-.03,.01-.05,.02-.54-.57-1.63-.76-2.43-.64l-.14,.02v1.4c-.59,.02-1.14,0-1.38,.03-.23,.02-.61,.18-.96,.34,.15,.08,.37,.13,.56,.13l1.23,.02c.27,.03,.39,.32,.42,.59,0,0,.02,.19,.03,.36,.08,.18,.13,.35,.13,.46,0,.05,0,.09,0,.1l-.14,.4-.31-.36c-.04-.05-.29-.14-.55-.11-.19,.02-.56,.21-.79,.35-.08,.25-.28,.51-.33,.57l-.29,.34-.2-.75c-.05-.18-.18-.26-.55-.48l-.07-.04c-.25-.15-.43-.14-.64-.12h-.25c-.16,0-.31,.1-.36,.15l-.23,.21-.14-.28c-.12-.23-.05-.47,.17-.64,.12-.09,.25-.19,.36-.29l-.08,.02c-.36,.07-1.22,.61-1.72,.79-.5,.18-1.25,.57-1.22,.82,.04,.25,.58,1.16,1.23,1.33,.08,.02,.15,.04,.22,.05v-.54h3.48c1.89-.38,3.94-1.08,4.12-2,0,0-.65-.35-1.39-.28v-1.21h0c0-.24,0-.86,0-1.05,.62-.06,1.41,.07,1.87,.43,0,0,.02,.02,.03,.02,.06,.06,.27,.33,.27,.51v3.38s-.04,.09-.12,.21h15.05v-.02l.06,.02h.1c-.08-.12-.12-.21-.12-.21v-3.38c0-.1,.08-.24,.15-.35,.45-.42,1.29-.56,2.01-.51,0,.13,0,.47,0,.74h0v1.42c-.74-.07-1.39,.28-1.39,.28,.18,.93,2.23,1.62,4.12,2h3.45v.81c.09-.05,.17-.1,.23-.16h0c.44-.23,.8-.83,.88-1.1,.11-.34-.25-.68-.54-.93m-14.42-15.58h0l.02,.06c1.7-.85,3.19-1.59,3.32-1.65,.33-.15,.52-.51,.52-.51,0,0-.4-.08-.73,.08-.14,.06-1.76,.8-3.57,1.61,.15,.12,.3,.26,.43,.41m-6.3-1.28h0c-.11-.02-.17-.21-.05-.3,0,0-.23-.14-.26,.16,0,0-.16-.15-.32-.04,.02,.18,.24,.21,.24,.21-.2,.22,.06,.3,.06,.3-.02-.15,.17-.23,.25-.16,.08,.07,.02,.27-.08,.37-.12,.12-.3,.14-.44,.08-.24-.11-.31-.49-.16-.84,.16-.36,.49-.56,.73-.45,.13,.06,.23,.22,.23,.37,0,.15-.11,.32-.22,.3m1.62,.33h0c-.04-.18-.2-.07-.2-.07-.21-.29-.6-.39-.6-.39-.04-.06-.14-.13-.23-.18-.04-.3-.2-.56-.47-.68-.39-.18-.87,.02-1.14,.44-.03-.03-.06-.06-.11-.08-.13-.06-.27-.01-.32,.1-.05,.11,.01,.25,.14,.31,.05,.02,.09,.03,.14,.02-.13,.48,.04,.97,.44,1.14,.26,.12,.56,.07,.82-.1,.1,.03,.21,.06,.29,.05,0,0,.33,.22,.69,.18,0,0,.03,.19,.19,.1,0,0,.24,.3,.59,.21,0,0,.11,.05,.3,.12,.03-.08,.07-.21,.07-.21,.14-.17,.29-.31,.43-.43-.3-.14-.48-.23-.48-.23-.17-.33-.55-.3-.55-.3m-2.64,4.44h0c.09-.04,.16-.11,.19-.18,.08,.01,.19,.01,.3-.01,.13-.03,1.07-.44,1.52-.63h0c.19,.3,.49,.67,.75,.81,.37,.21,.53,.15,.61,.02,.07-.13-.04-.34-.33-.49-.18-.09-.4-.29-.58-.49h0c.24-.12,.69-.35,1.2-.6-.02-.01-.03-.02-.04-.03-.02-.02-.03-.03-.04-.06-.06-.1-.09-.21-.09-.27,0,0,0-.02,0-.04,0-.02-.02-.12-.02-.12,0,0-.02-.1-.05-.23-.56,.25-1.06,.48-1.32,.6h0c-.05-.26-.06-.56-.02-.75,.07-.32-.03-.55-.17-.57-.14-.02-.3,.06-.37,.48-.05,.29,.06,.75,.16,1.09h0c-.43,.23-1.35,.7-1.46,.79-.09,.07-.16,.16-.2,.23-.08-.02-.17-.01-.26,.03-.17,.08-.26,.25-.2,.37,.06,.12,.24,.16,.41,.08m5.68,9.82h0c-.23,.16-.55,.11-.71-.12-.16-.23-.11-.55,.12-.71,.23-.16,.55-.11,.71,.12,.16,.23,.11,.55-.12,.71m1.16-.57h0c-.09-.13-.43,0-.53,.05l-.2,.03-.12-.11c-.02-.05-.02-.11,.01-.16,.03-.06,.1-.1,.19-.1,.11,0,.46-.11,.46-.26,0-.13-.14-.37-.36-.53-.23-.16-.5-.23-.61-.19-.15,.05-.14,.41-.11,.52,.02,.08,0,.16-.05,.22-.04,.04-.09,.06-.15,.06l-.15-.08-.03-.19c.02-.1,.04-.47-.11-.52-.12-.04-.39,.02-.61,.17-.23,.17-.37,.4-.37,.53,0,.15,.35,.26,.46,.27l.17,.09,.03,.16c-.01,.06-.05,.1-.1,.12-.06,.03-.14,.02-.21-.03-.1-.06-.44-.19-.53-.06-.08,.1-.11,.38-.02,.64,.09,.27,.27,.48,.39,.51,.15,.05,.35-.25,.4-.35,.03-.08,.1-.13,.17-.15,.05-.01,.11,0,.15,.04l.07,.15-.09,.17c-.07,.06-.24,.27-.24,.41,0,.03,0,.05,.02,.07,.08,.11,.33,.22,.6,.22h0c.28,0,.53-.11,.61-.21,.01-.02,.02-.05,.02-.07,0-.14-.17-.35-.23-.41l-.09-.18,.07-.15s.1-.05,.15-.04c.07,.02,.13,.07,.16,.15,.04,.1,.24,.41,.39,.36,.12-.04,.31-.24,.39-.51,.09-.26,.06-.54-.01-.64m-.14-3.22h0v-.66h.42c.18,.24,.31,.48,.38,.66h-.8Zm0-1.1h0c.07,.06,.13,.11,.19,.17h-.19v-.17Zm-.26,.17h-.84v-.65c.33,.05,.6,.15,.84,.29v.35Zm0,.93h-.84v-.66h.84v.66Zm-1.1-.93h-.84v-.3c.23-.15,.51-.27,.84-.33v.63Zm0,.93h-.83v-.66h.83v.66Zm-1.1-.93h-.11s.07-.07,.11-.1v.1Zm0,.93h-.73c.07-.18,.2-.42,.39-.66h.34v.66Zm6.43,1.5h0v-1.17s.02-.08,.12-.1c0,0,0,0,0-.02,0-.02,0-.06-.03-.1-.15-.29-.28-.73-.29-.76l-.14-2.56c0-.23,.22-.54,.26-.6v-.73s-.04-.04-.05-.05h-.22s-.05,.02-.05,.01v.06l-.04,.02-.1-.02h-.03s0-.09-.03-.09l-.25,.02v.32h-.36v-.33h-.28v.08h-.04l-.1,.03-.04-.02v-.04s-.01-.03-.05-.03h-.2s-.07,.03-.07,.05v.74s.21,.33,.21,.33h-.31s-.1,0-.11,.02v.32h-.54v-.33h-.45s-.05,0-.05,0v.33h-.54v-1.25c0-.2,.18-.63,.18-.62v-.78c0-.1-.1-.14-.1-.14h-.47c-.07,0-.09,.05-.09,.07v.25h-.17v-.34s-.04-.06-.06-.06l-.42,.02v.37h-.55v-.07l-.02-.32h-.39s-.06,.01-.06,.06v.34h-.16v-.25s-.02-.07-.09-.07h-.46s-.11,.03-.11,.14v.75s.17,.45,.18,.65v1.25h-.54v-.32h-.49v.32h-.54v-.33h-.42s.19-.3,.21-.33v-.74s-.04-.04-.05-.05h-.22s-.05,.02-.05,.01v.06l-.04,.02-.1-.02h-.03s0-.09-.03-.09l-.25,.02v.32h-.36v-.33h-.28v.08l-.03,.02-.1,.02-.04-.02v-.04s-.01-.03-.05-.03h-.2s-.07,.03-.07,.05v.73c.04,.06,.26,.36,.26,.6h0s-.14,2.56-.14,2.58c0,.02-.13,.45-.28,.74-.02,.05-.03,.1-.03,.11,.11,.02,.13,.07,.13,.1v1.17h2.03v-.35h1.01c0-.12,.01-.87,.01-.87v-.02h.82v.23h-.13l.26,.46,.26-.46h-.13v-.23h.84v.23h-.13l.27,.46,.26-.46h-.13v-.23h.84v.23h-.13l.26,.46,.26-.46h-.13v-.23h.9s0,.03,0,.03c0,0,0,.74,.01,.86h1.01v.35h2.03Zm-12.14-8.23h.29v-.55c0-2.57-.01-4.43-.01-4.94h13.27c0,.51-.01,2.36-.01,4.94v.59h.29c0-3.36,.02-5.63,.02-5.67v-.15h-13.85v.15s.01,2.27,.01,5.63m7.5,11.65c.4,.22,.59,.16,.59,.16,.08-.15,0-.59,0-.59-.18,.19-.44-.03-.44-.03,.09,.35-.16,.45-.16,.45"/><path d="M28.35,51.17h0c-12.6,0-22.82-10.22-22.82-22.82S15.74,5.53,28.35,5.53s22.82,10.22,22.82,22.82-10.22,22.82-22.82,22.82M28.35,0C12.69,0,0,12.69,0,28.35s12.69,28.35,28.35,28.35,28.35-12.69,28.35-28.35S44,0,28.35,0"/><path d="M70.82,24.86h2.63l-.95-4.81c-.06-.28-.11-.67-.2-1.09-.08-.73-.11-1.09-.14-2.04-.06,.95-.08,1.35-.17,2.04-.08,.39-.14,.78-.2,1.09l-.98,4.81Zm-2.24-11.22h7.11l5.12,20.17h-5.71l-1.06-5.15h-3.78l-1.06,5.15h-5.71l5.09-20.17Z"/><path d="M93.86,17.77c-.92-.31-1.6-.42-2.32-.42-2.74,0-3.94,1.98-3.94,6.52s1.23,6.27,4,6.27c.9,0,1.82-.2,2.88-.7l.48,3.86c-1.71,.59-3.19,.87-4.7,.87-5.4,0-8.45-3.75-8.45-10.35s3.11-10.49,8.39-10.49c1.46,0,2.88,.25,4.34,.78l-.67,3.66Z"/><polygon points="96.83 13.63 111.16 13.63 111.16 17.47 106.79 17.83 106.79 33.81 101.14 33.81 101.14 17.83 96.83 17.44 96.83 13.63"/><path d="M67.75,37.19c-.51-.35-.96-.51-1.44-.51-.56,0-1.06,.29-1.31,.79-.26,.5-.37,1.16-.37,2.24,0,.99,.1,1.53,.34,2.04,.25,.51,.73,.78,1.38,.78,.38,0,.7-.08,1.08-.27v-2.27h-1.53v-.73h2.54v3.57c-.98,.39-1.51,.52-2.17,.52-1.83,0-2.76-1.21-2.76-3.62,0-2.53,.93-3.84,2.71-3.84,.68,0,1.25,.2,1.88,.62l-.34,.67Z"/><path d="M70.34,40.72h0c0,1.27,.4,1.93,1.17,1.93s1.16-.67,1.16-1.93-.4-1.92-1.16-1.92-1.17,.66-1.17,1.92m1.17-2.63c1.43,0,2.17,.9,2.17,2.63s-.74,2.64-2.17,2.64-2.18-.9-2.18-2.64,.74-2.63,2.18-2.63"/><path d="M74.95,38.08l1.11,3.76c.05,.15,.09,.35,.13,.63,.04-.28,.1-.54,.13-.63l1.08-3.64h.97l-1.61,5.03h-1.21l-1.6-5.02,1-.13Z"/><path d="M79.6,40.39h2.26v-.02c0-1.02-.39-1.56-1.1-1.56s-1.15,.57-1.16,1.58m.08,.65c.08,1,.66,1.55,1.6,1.55,.34,0,.69-.07,1.16-.25l.18,.72c-.53,.18-1.05,.28-1.55,.28-1.56,0-2.45-.99-2.45-2.69,0-1.59,.8-2.57,2.15-2.57s2.02,.9,2.02,2.51c0,.1,0,.24,0,.44h-3.11Z"/><path d="M83.67,38.21l.95-.04v.4c.42-.33,.73-.45,1.25-.45l-.11,.91c-.14-.03-.21-.03-.32-.03-.32,0-.56,.07-.82,.26v3.97h-.95v-5.02Z"/><path d="M86.48,38.21l.93-.13v.47c.53-.34,.98-.49,1.46-.49s.89,.15,1.17,.42c.29,.28,.39,.59,.39,1.25v3.5h-.94v-3.29c0-.19,0-.35-.04-.46-.07-.38-.42-.63-.89-.63-.36,0-.73,.14-1.14,.43v3.95h-.94v-5.02Z"/><path d="M91.54,38.21l.94-.11v.38c.46-.29,.86-.42,1.28-.42s.81,.13,1.07,.38c.07,.07,.12,.11,.2,.24,.52-.4,1.02-.6,1.54-.6,.46,0,.86,.16,1.13,.44,.28,.3,.37,.58,.37,1.25v3.46h-.94v-3.25c0-.21,0-.36-.03-.48-.07-.38-.42-.65-.86-.65-.34,0-.64,.14-.99,.45v3.93h-.94v-3.23c0-.26,0-.39-.01-.49-.06-.38-.42-.66-.88-.66-.34,0-.62,.11-.95,.38v4h-.94v-5.02Z"/><path d="M99.96,40.39h2.27v-.02c0-1.02-.39-1.56-1.1-1.56s-1.14,.57-1.16,1.58m.08,.65c.08,1,.66,1.55,1.6,1.55,.34,0,.69-.07,1.16-.25l.18,.72c-.53,.18-1.05,.28-1.55,.28-1.56,0-2.44-.99-2.44-2.69,0-1.59,.8-2.57,2.14-2.57s2.02,.9,2.02,2.51c0,.1,0,.24,0,.44h-3.11Z"/><path d="M104.03,38.21l.93-.13v.47c.53-.34,.98-.49,1.46-.49s.89,.15,1.17,.42c.29,.28,.39,.59,.39,1.25v3.5h-.94v-3.29c0-.19-.01-.35-.04-.46-.07-.38-.42-.63-.89-.63-.36,0-.73,.14-1.14,.43v3.95h-.94v-5.02Z"/><path d="M108.6,38.2h.62v-.83l.94-.15v.98h.99v.63l-.98,.09v3.01c0,.19,0,.28,.01,.35,.02,.21,.19,.34,.45,.34,.16,0,.31-.03,.52-.1v.68c-.26,.09-.53,.14-.82,.14-.39,0-.7-.11-.89-.29-.16-.17-.22-.41-.22-.84v-3.31l-.62-.06v-.64Z"/></g></g></svg>