<svg width="32" height="32" viewBox="0 0 32 32" fill="none" xmlns="http://www.w3.org/2000/svg">
<path fill-rule="evenodd" clip-rule="evenodd" d="M0.0966405 3.81931L0.193281 7.63896H3.93639H7.6795L7.77751 4.31292C7.83399 2.40393 7.73054 0.843926 7.53522 0.651316C7.34773 0.466424 5.57588 0.244621 3.59747 0.157712L0 0L0.0966405 3.81931ZM8.60882 3.69616C8.59589 5.3112 8.72723 7.09133 8.90078 7.65205C9.19818 8.61342 13.1145 12.8049 13.417 12.4854C13.6923 12.1948 14.5968 3.27302 14.3729 3.0586C14.0955 2.79318 9.24174 0.760037 8.88581 0.760037C8.74629 0.760037 8.62175 2.08146 8.60882 3.69616ZM15.5203 3.86763C15.4482 4.09648 15.1365 6.35948 14.8278 8.89696L14.267 13.5109L17.6035 17.0342C19.439 18.9724 21.0553 20.5579 21.1959 20.5579C21.3361 20.5579 21.6188 19.9163 21.8237 19.1318C22.0289 18.3476 22.85 15.5917 23.649 13.0079C24.448 10.4241 25.036 8.19229 24.956 8.048C24.8073 7.78023 17.9452 4.31191 16.4687 3.75824C15.8892 3.54113 15.6135 3.57268 15.5203 3.86763ZM25.2452 10.7325C24.8743 11.9838 23.9984 14.9326 23.2985 17.2852C22.5989 19.6378 22.1214 21.6565 22.2378 21.7713C22.6145 22.1431 27.3305 20.9082 28.8186 20.0485C31.4057 18.5533 32.625 15.7863 31.6837 13.5454C31.2907 12.6099 29.3909 10.8469 27.0082 9.20601L25.9197 8.45671L25.2452 10.7325ZM0.703705 9.1436C0.703705 9.58687 3.7506 17.0822 5.20769 20.2224C6.99145 24.0675 10.0019 28.6432 11.899 30.3931C13.8087 32.1544 15.1297 32.4135 17.2193 31.4357C19.1943 30.5112 21.8012 25.7782 21.8012 23.1162C21.8012 22.6863 19.3005 19.964 14.9214 15.6272L8.04157 8.81341H4.37264C2.19414 8.81341 0.703705 8.94763 0.703705 9.1436ZM8.38355 10.5288C8.6391 10.9365 7.88537 11.5512 7.33922 11.3808C7.15206 11.3224 6.9496 11.0227 6.88903 10.715C6.76244 10.0724 8.00073 9.91806 8.38355 10.5288ZM4.74558 12.4723C5.2948 12.8149 4.96711 13.5112 4.2566 13.5112C3.98675 13.5112 3.76625 13.2092 3.76625 12.8401C3.76625 12.1116 4.01738 12.0173 4.74558 12.4723ZM9.80627 13.426C10.8366 14.7561 9.88147 16.8668 8.24914 16.8668C7.02004 16.8668 6.14823 15.948 6.14823 14.6528C6.14823 12.7022 8.60677 11.8777 9.80627 13.426ZM12.5285 17.1181C12.7147 17.6694 11.6486 18.0627 11.1912 17.6117C10.9956 17.4188 10.9435 17.0882 11.0755 16.8775C11.3763 16.3977 12.3393 16.5574 12.5285 17.1181ZM9.1468 19.3033C9.22541 19.7059 9.042 19.8868 8.55505 19.8868C8.06811 19.8868 7.84964 19.6714 7.84964 19.1912C7.84964 18.3312 8.97598 18.4288 9.1468 19.3033ZM13.5671 19.4673C14.6345 20.3774 14.7642 21.3377 13.956 22.3508C13.1523 23.3585 12.1015 23.489 10.9881 22.7199C10.0254 22.0552 9.9873 20.4633 10.9122 19.5512C11.7506 18.7244 12.6619 18.6956 13.5671 19.4673ZM16.697 23.4205C16.697 24.1108 15.6796 24.4618 15.324 23.8944C14.9473 23.2934 15.226 22.9068 16.0365 22.9068C16.4027 22.9068 16.697 23.1357 16.697 23.4205ZM13.1223 25.9295C12.8185 26.4141 11.933 26.3372 11.933 25.8262C11.933 25.5862 12.1178 25.2077 12.3438 24.9849C12.6643 24.6688 12.8174 24.6916 13.0427 25.0883C13.2013 25.3678 13.237 25.7463 13.1223 25.9295ZM17.9033 26.0795C18.9224 27.0842 18.9473 27.5882 18.0333 28.7338C17.186 29.7965 15.9453 29.8834 14.9956 28.9468C13.8985 27.865 14.1211 26.4312 15.506 25.6567C16.5211 25.0893 16.9815 25.1705 17.9033 26.0795Z" fill="white"/>
</svg>
